<?xml version="1.0" encoding="UTF-8" standalone="no"?>
<!-- Created with Inkscape (http://www.inkscape.org/) -->

<svg
   xmlns:dc="http://purl.org/dc/elements/1.1/"
   xmlns:cc="http://creativecommons.org/ns#"
   xmlns:rdf="http://www.w3.org/1999/02/22-rdf-syntax-ns#"
   xmlns:svg="http://www.w3.org/2000/svg"
   xmlns="http://www.w3.org/2000/svg"
   xmlns:sodipodi="http://sodipodi.sourceforge.net/DTD/sodipodi-0.dtd"
   xmlns:inkscape="http://www.inkscape.org/namespaces/inkscape"
   width="5cm"
   height="8.6999998cm"
   viewBox="0 0 50 86.999996"
   version="1.1"
   id="svg8"
   inkscape:version="0.92.4 (5da689c313, 2019-01-14)"
   sodipodi:docname="botella.svg">
  <defs
     id="defs2" />
  <sodipodi:namedview
     id="base"
     pagecolor="#ffffff"
     bordercolor="#666666"
     borderopacity="1.0"
     inkscape:pageopacity="0.0"
     inkscape:pageshadow="2"
     inkscape:zoom="1.979899"
     inkscape:cx="213.78638"
     inkscape:cy="151.58187"
     inkscape:document-units="mm"
     inkscape:current-layer="layer1"
     showgrid="false"
     inkscape:pagecheckerboard="true"
     units="cm"
     fit-margin-top="0"
     fit-margin-left="0"
     fit-margin-right="0"
     fit-margin-bottom="0"
     inkscape:window-width="1920"
     inkscape:window-height="986"
     inkscape:window-x="-11"
     inkscape:window-y="-11"
     inkscape:window-maximized="1" />
  <metadata
     id="metadata5">
    <rdf:RDF>
      <cc:Work
         rdf:about="">
        <dc:format>image/svg+xml</dc:format>
        <dc:type
           rdf:resource="http://purl.org/dc/dcmitype/StillImage" />
        <dc:title></dc:title>
      </cc:Work>
    </rdf:RDF>
  </metadata>
  <g
     inkscape:label="Capa 1"
     inkscape:groupmode="layer"
     id="layer1"
     transform="translate(0,-210.00002)"><g
   id="g4628"
   transform="matrix(0.20947998,0,0,0.20947998,8.8908204,240.81071)" />
<g
   id="g4630"
   transform="matrix(0.20947998,0,0,0.20947998,8.8908204,240.81071)" />
<g
   id="g4632"
   transform="matrix(0.20947998,0,0,0.20947998,8.8908204,240.81071)" />
<g
   id="g4634"
   transform="matrix(0.20947998,0,0,0.20947998,8.8908204,240.81071)" />
<g
   id="g4636"
   transform="matrix(0.20947998,0,0,0.20947998,8.8908204,240.81071)" />
<g
   id="g4638"
   transform="matrix(0.20947998,0,0,0.20947998,8.8908204,240.81071)" />
<g
   id="g4640"
   transform="matrix(0.20947998,0,0,0.20947998,8.8908204,240.81071)" />
<g
   id="g4642"
   transform="matrix(0.20947998,0,0,0.20947998,8.8908204,240.81071)" />
<g
   id="g4644"
   transform="matrix(0.20947998,0,0,0.20947998,8.8908204,240.81071)" />
<g
   id="g4646"
   transform="matrix(0.20947998,0,0,0.20947998,8.8908204,240.81071)" />
<g
   id="g4648"
   transform="matrix(0.20947998,0,0,0.20947998,8.8908204,240.81071)" />
<g
   id="g4650"
   transform="matrix(0.20947998,0,0,0.20947998,8.8908204,240.81071)" />
<g
   id="g4652"
   transform="matrix(0.20947998,0,0,0.20947998,8.8908204,240.81071)" />
<g
   id="g4654"
   transform="matrix(0.20947998,0,0,0.20947998,8.8908204,240.81071)" />
<g
   id="g4656"
   transform="matrix(0.20947998,0,0,0.20947998,8.8908204,240.81071)" />
<path
   style="opacity:0.73000004;fill:#00b000;fill-opacity:0;stroke:none;stroke-width:2.03303146;stroke-linecap:round;stroke-linejoin:round;stroke-miterlimit:4;stroke-dasharray:none;stroke-opacity:1"
   d="M 24.325222,319.80868 C 17.066537,317.5278 11.509842,311.21911 10.064241,303.61774 9.6390343,301.38188 9.5270087,264.49903 9.6369978,162.954 L 9.7860763,25.320713 10.9189,22.542794 c 2.310358,-5.665476 6.536692,-9.750628 12.635954,-12.213849 L 26.453593,9.1582727 91.860971,9.0123866 c 42.645419,-0.095117 66.901399,0.035037 69.700529,0.374004 10.0464,1.2165954 17.31368,8.1296824 18.71202,17.8000534 0.65559,4.533771 0.60935,270.858146 -0.0478,275.405466 -1.02453,7.08934 -5.26974,12.9923 -11.55594,16.06856 l -3.32018,1.62479 -69.447989,0.0961 c -56.431667,0.0781 -69.846899,-0.0292 -71.576359,-0.57268 z M 86.486358,278.4902 c 1.072085,-0.97647 55.339962,-92.8099 58.341262,-98.72652 3.38408,-6.67121 3.37065,-14.93098 -0.0365,-22.45378 l -1.52688,-3.37125 2.61866,-4.53734 c 1.84327,-3.19385 3.03908,-4.7115 4.03852,-5.12548 0.78093,-0.32347 2.05708,-1.25323 2.8359,-2.06614 1.15735,-1.20802 1.45698,-2.04414 1.64019,-4.57705 0.21375,-2.95511 0.64335,-3.81075 9.24991,-18.42355 9.25449,-15.71289 9.97787,-17.39984 8.14186,-18.98699 -2.06551,-1.785565 -16.05077,-9.620278 -17.17254,-9.620278 -0.67466,0 -1.59064,0.363973 -2.0355,0.808834 -0.44486,0.444856 -7.325,11.890124 -15.2892,25.433924 l -14.48038,24.62509 -4.50221,0.60308 c -4.85501,0.65033 -8.77494,1.97847 -11.6943,3.96223 -1.01055,0.68668 -1.99064,1.08101 -2.17798,0.87628 -0.18733,-0.20473 -1.31894,-2.61357 -2.51469,-5.35297 -1.19575,-2.7394 -2.585057,-5.23738 -3.087351,-5.55106 -0.502268,-0.31369 -0.913233,-0.82877 -0.913233,-1.14461 0,-0.31586 -0.340927,-0.85723 -0.757615,-1.20305 -0.852422,-0.70744 -0.967231,-1.91715 -0.284368,-2.99625 0.377873,-0.59713 1.220709,-0.34886 4.828337,1.42225 4.16321,2.04388 4.42866,2.10759 5.5954,1.34312 2.89162,-1.89466 0.46059,-4.98667 -5.74544,-7.30757 l -2.967836,-1.1099 2.191146,-4.3659 c 1.20512,-2.40123 2.19114,-4.63596 2.19114,-4.96604 0,-0.44427 0.55326,-0.47584 2.13007,-0.12156 2.87599,0.6462 4.34502,0.20459 4.75514,-1.42945 0.47365,-1.88717 -0.32771,-2.84186 -3.02488,-3.60364 l -2.3451,-0.66236 -0.0758,-5.0214 c -0.0417,-2.76178 -0.0985,-5.304552 -0.12627,-5.650625 -0.0316,-0.393889 0.98844,-0.76109 2.72741,-0.981808 5.70472,-0.724087 10.50876,-3.264959 14.43987,-7.637299 8.88749,-9.885024 8.26811,-24.988951 -1.39147,-33.932019 -9.72512,-9.003747 -24.06315,-8.789391 -33.538063,0.5014 -3.597688,3.527776 -5.895816,7.895064 -6.832682,12.984617 l -0.623683,3.388167 -2.315699,-0.33288 c -3.158201,-0.453993 -5.877961,-0.454367 -8.895772,-0.001 l -2.539463,0.381322 -0.549432,-3.41178 C 63.962876,65.156226 61.898932,61.225692 58.045261,57.34827 48.403812,47.647391 33.660243,47.557706 23.892547,57.140519 14.34103,66.511244 14.264299,81.90208 23.721945,91.360128 c 2.832709,2.832826 9.092665,6.439031 11.177427,6.439031 0.493973,0 0.898132,0.212546 0.898132,0.472322 0,0.259776 0.910455,1.112092 2.023232,1.894039 l 2.023233,1.42171 -0.129197,4.03568 -0.129196,4.03568 -2.513506,0.35823 c -3.495334,0.49816 -4.925065,2.74751 -2.981652,4.69092 0.663135,0.66313 1.453234,0.75738 4.166879,0.49703 l 3.348584,-0.32126 0.979305,2.44324 c 0.538618,1.34377 1.618218,3.53283 2.399113,4.86457 1.624762,2.77087 1.654126,2.88196 0.761745,2.88196 -0.361935,0 -2.504443,0.89289 -4.76113,1.98419 -4.460461,2.15703 -5.626611,3.46865 -4.765085,5.3595 0.896519,1.96764 2.179711,1.91552 6.436526,-0.26144 5.825794,-2.97934 6.04204,-2.83581 3.398744,2.25589 -5.195114,10.00719 -10.157166,23.45966 -12.577479,34.09842 -1.422228,6.25156 -1.601267,13.70575 -0.446813,18.60278 0.587895,2.49377 2.849098,7.96293 4.656525,11.26271 0.09596,0.17519 -0.409367,0.46506 -1.122949,0.64416 -1.878666,0.47152 -5.322554,3.76333 -6.390569,6.10838 -1.360395,2.98702 -1.24343,6.56331 0.263958,8.0707 1.663992,1.664 3.438565,1.89113 13.247727,1.69566 7.499188,-0.14943 8.739379,-0.29469 10.289089,-1.20507 1.731327,-1.01708 1.818601,-1.01949 4.996718,-0.13822 1.779037,0.49331 3.34346,1.00578 3.476492,1.13881 0.133037,0.13304 -4.579722,8.43295 -10.472794,18.44427 -5.893072,10.01131 -10.825177,18.62494 -10.960233,19.14139 -0.14356,0.54898 0.242894,1.47502 0.930392,2.22947 0.912333,1.00117 34.766929,21.28016 40.824435,24.45394 1.73825,0.91074 2.276884,0.84283 3.71676,-0.46862 z"
   id="path4778"
   inkscape:connector-curvature="0"
   transform="matrix(0.26458333,0,0,0.26458333,0,210.00002)" />
<path
   style="opacity:0.73000004;fill:#00b000;fill-opacity:0;stroke:none;stroke-width:2.03303146;stroke-linecap:round;stroke-linejoin:round;stroke-miterlimit:4;stroke-dasharray:none;stroke-opacity:1"
   d="M 24.325222,319.80868 C 17.066537,317.5278 11.509842,311.21911 10.064241,303.61774 9.6390343,301.38188 9.5270087,264.49903 9.6369978,162.954 L 9.7860763,25.320713 10.9189,22.542794 c 2.310358,-5.665476 6.536692,-9.750628 12.635954,-12.213849 L 26.453593,9.1582727 91.860971,9.0123866 c 42.645419,-0.095117 66.901399,0.035037 69.700529,0.374004 10.0464,1.2165954 17.31368,8.1296824 18.71202,17.8000534 0.65559,4.533771 0.60935,270.858146 -0.0478,275.405466 -1.02453,7.08934 -5.26974,12.9923 -11.55594,16.06856 l -3.32018,1.62479 -69.447989,0.0961 c -56.431667,0.0781 -69.846899,-0.0292 -71.576359,-0.57268 z M 86.486358,278.4902 c 1.072085,-0.97647 55.339962,-92.8099 58.341262,-98.72652 3.38408,-6.67121 3.37065,-14.93098 -0.0365,-22.45378 l -1.52688,-3.37125 2.61866,-4.53734 c 1.84327,-3.19385 3.03908,-4.7115 4.03852,-5.12548 0.78093,-0.32347 2.05708,-1.25323 2.8359,-2.06614 1.15735,-1.20802 1.45698,-2.04414 1.64019,-4.57705 0.21375,-2.95511 0.64335,-3.81075 9.24991,-18.42355 9.25449,-15.71289 9.97787,-17.39984 8.14186,-18.98699 -2.06551,-1.785565 -16.05077,-9.620278 -17.17254,-9.620278 -0.67466,0 -1.59064,0.363973 -2.0355,0.808834 -0.44486,0.444856 -7.325,11.890124 -15.2892,25.433924 l -14.48038,24.62509 -4.50221,0.60308 c -4.85501,0.65033 -8.77494,1.97847 -11.6943,3.96223 -1.01055,0.68668 -1.99064,1.08101 -2.17798,0.87628 -0.18733,-0.20473 -1.31894,-2.61357 -2.51469,-5.35297 -1.19575,-2.7394 -2.585057,-5.23738 -3.087351,-5.55106 -0.502268,-0.31369 -0.913233,-0.82877 -0.913233,-1.14461 0,-0.31586 -0.340927,-0.85723 -0.757615,-1.20305 -0.852422,-0.70744 -0.967231,-1.91715 -0.284368,-2.99625 0.377873,-0.59713 1.220709,-0.34886 4.828337,1.42225 4.16321,2.04388 4.42866,2.10759 5.5954,1.34312 2.89162,-1.89466 0.46059,-4.98667 -5.74544,-7.30757 l -2.967836,-1.1099 2.191146,-4.3659 c 1.20512,-2.40123 2.19114,-4.63596 2.19114,-4.96604 0,-0.44427 0.55326,-0.47584 2.13007,-0.12156 2.87599,0.6462 4.34502,0.20459 4.75514,-1.42945 0.47365,-1.88717 -0.32771,-2.84186 -3.02488,-3.60364 l -2.3451,-0.66236 -0.0758,-5.0214 c -0.0417,-2.76178 -0.0985,-5.304552 -0.12627,-5.650625 -0.0316,-0.393889 0.98844,-0.76109 2.72741,-0.981808 5.70472,-0.724087 10.50876,-3.264959 14.43987,-7.637299 8.88749,-9.885024 8.26811,-24.988951 -1.39147,-33.932019 -9.72512,-9.003747 -24.06315,-8.789391 -33.538063,0.5014 -3.597688,3.527776 -5.895816,7.895064 -6.832682,12.984617 l -0.623683,3.388167 -2.315699,-0.33288 c -3.158201,-0.453993 -5.877961,-0.454367 -8.895772,-0.001 l -2.539463,0.381322 -0.549432,-3.41178 C 63.962876,65.156226 61.898932,61.225692 58.045261,57.34827 48.403812,47.647391 33.660243,47.557706 23.892547,57.140519 14.34103,66.511244 14.264299,81.90208 23.721945,91.360128 c 2.832709,2.832826 9.092665,6.439031 11.177427,6.439031 0.493973,0 0.898132,0.212546 0.898132,0.472322 0,0.259776 0.910455,1.112092 2.023232,1.894039 l 2.023233,1.42171 -0.129197,4.03568 -0.129196,4.03568 -2.513506,0.35823 c -3.495334,0.49816 -4.925065,2.74751 -2.981652,4.69092 0.663135,0.66313 1.453234,0.75738 4.166879,0.49703 l 3.348584,-0.32126 0.979305,2.44324 c 0.538618,1.34377 1.618218,3.53283 2.399113,4.86457 1.624762,2.77087 1.654126,2.88196 0.761745,2.88196 -0.361935,0 -2.504443,0.89289 -4.76113,1.98419 -4.460461,2.15703 -5.626611,3.46865 -4.765085,5.3595 0.896519,1.96764 2.179711,1.91552 6.436526,-0.26144 5.825794,-2.97934 6.04204,-2.83581 3.398744,2.25589 -5.195114,10.00719 -10.157166,23.45966 -12.577479,34.09842 -1.422228,6.25156 -1.601267,13.70575 -0.446813,18.60278 0.587895,2.49377 2.849098,7.96293 4.656525,11.26271 0.09596,0.17519 -0.409367,0.46506 -1.122949,0.64416 -1.878666,0.47152 -5.322554,3.76333 -6.390569,6.10838 -1.360395,2.98702 -1.24343,6.56331 0.263958,8.0707 1.663992,1.664 3.438565,1.89113 13.247727,1.69566 7.499188,-0.14943 8.739379,-0.29469 10.289089,-1.20507 1.731327,-1.01708 1.818601,-1.01949 4.996718,-0.13822 1.779037,0.49331 3.34346,1.00578 3.476492,1.13881 0.133037,0.13304 -4.579722,8.43295 -10.472794,18.44427 -5.893072,10.01131 -10.825177,18.62494 -10.960233,19.14139 -0.14356,0.54898 0.242894,1.47502 0.930392,2.22947 0.912333,1.00117 34.766929,21.28016 40.824435,24.45394 1.73825,0.91074 2.276884,0.84283 3.71676,-0.46862 z"
   id="path4780"
   inkscape:connector-curvature="0"
   transform="matrix(0.26458333,0,0,0.26458333,0,210.00002)" />

<g
   id="g4671"
   transform="matrix(0.22244421,-0.0432901,0.0432901,0.22244421,-0.8218727,251.38162)">
	<g
   id="g4669">
		<path
   id="path4667"
   d="M 207.485,16.759 191.809,1.083 c -1.443,-1.443 -3.781,-1.443 -5.225,0 l -26.122,26.12 c -10e-4,0.002 -0.004,0.002 -0.004,0.002 l -25.743,25.742 c -11.951,-4.036 -25.108,-1.018 -34.131,8.005 L 1.082,160.455 c -1.443,1.443 -1.443,3.781 0,5.225 l 41.802,41.802 c 0.722,0.722 1.667,1.083 2.612,1.083 0.945,0 1.891,-0.361 2.612,-1.083 l 99.503,-99.501 c 9.035,-9.035 12.052,-22.196 8.012,-34.138 L 181.35,48.114 c 0.001,-0.002 0.004,-0.002 0.004,-0.002 l 26.129,-26.128 c 0.693,-0.693 1.083,-1.633 1.083,-2.612 0.002,-0.98 -0.388,-1.92 -1.081,-2.613 z M 84.687,87.3 110.815,113.428 63.786,160.457 37.658,134.329 Z m 64.021,-16.993 c -1.063,1.064 -1.375,2.668 -0.789,4.054 4.135,9.753 1.963,20.899 -5.532,28.396 l -96.89,96.888 -36.577,-36.578 23.513,-23.514 28.741,28.74 c 0.722,0.722 1.667,1.083 2.612,1.083 0.945,0 1.891,-0.361 2.612,-1.083 l 52.254,-52.254 c 1.443,-1.443 1.443,-3.781 0,-5.225 L 89.911,82.074 105.808,66.177 c 7.486,-7.484 18.632,-9.656 28.392,-5.526 1.384,0.588 2.986,0.272 4.052,-0.79 l 24.815,-24.815 10.451,10.451 z m 30.038,-30.035 -10.451,-10.451 20.902,-20.9 10.451,10.451 z"
   inkscape:connector-curvature="0" />

	</g>

</g>

<g
   id="g4673"
   transform="matrix(0.26458333,0,0,0.26458333,44.571261,235.73255)">
</g>

<g
   id="g4675"
   transform="matrix(0.26458333,0,0,0.26458333,44.571261,235.73255)">
</g>

<g
   id="g4677"
   transform="matrix(0.26458333,0,0,0.26458333,44.571261,235.73255)">
</g>

<g
   id="g4679"
   transform="matrix(0.26458333,0,0,0.26458333,44.571261,235.73255)">
</g>

<g
   id="g4681"
   transform="matrix(0.26458333,0,0,0.26458333,44.571261,235.73255)">
</g>

<g
   id="g4683"
   transform="matrix(0.26458333,0,0,0.26458333,44.571261,235.73255)">
</g>

<g
   id="g4685"
   transform="matrix(0.26458333,0,0,0.26458333,44.571261,235.73255)">
</g>

<g
   id="g4687"
   transform="matrix(0.26458333,0,0,0.26458333,44.571261,235.73255)">
</g>

<g
   id="g4689"
   transform="matrix(0.26458333,0,0,0.26458333,44.571261,235.73255)">
</g>

<g
   id="g4691"
   transform="matrix(0.26458333,0,0,0.26458333,44.571261,235.73255)">
</g>

<g
   id="g4693"
   transform="matrix(0.26458333,0,0,0.26458333,44.571261,235.73255)">
</g>

<g
   id="g4695"
   transform="matrix(0.26458333,0,0,0.26458333,44.571261,235.73255)">
</g>

<g
   id="g4697"
   transform="matrix(0.26458333,0,0,0.26458333,44.571261,235.73255)">
</g>

<g
   id="g4699"
   transform="matrix(0.26458333,0,0,0.26458333,44.571261,235.73255)">
</g>

<g
   id="g4701"
   transform="matrix(0.26458333,0,0,0.26458333,44.571261,235.73255)">
</g>

<path
   style="opacity:1;fill:#447821;fill-opacity:1;stroke:none;stroke-width:1.84213638;stroke-linecap:round;stroke-linejoin:round;stroke-miterlimit:4;stroke-dasharray:none;stroke-opacity:1"
   d="M 49.387804,304.13669 31.410839,291.94511 38.73129,281.08334 c 4.026248,-5.97398 7.595418,-11.16299 7.931488,-11.53113 0.496898,-0.54432 3.28943,1.1451 14.949662,9.04427 7.886244,5.3425 14.824546,9.81327 15.418448,9.93506 0.593903,0.12179 1.538022,-0.0238 2.098041,-0.3235 1.021068,-0.54646 36.193531,-52.29472 37.018271,-54.46393 0.26711,-0.70255 0.23404,-1.59896 -0.0844,-2.28915 -0.29561,-0.64063 -6.87496,-5.40527 -15.11531,-10.9462 -8.457369,-5.68687 -14.459433,-10.03976 -14.276878,-10.35406 2.661029,-4.58143 11.787257,-17.32035 13.670108,-19.08153 4.7065,-4.40239 10.27138,-6.27817 16.99031,-5.72703 3.01493,0.24731 4.29854,0.16225 4.92764,-0.32656 0.46789,-0.36354 4.51121,-6.11581 8.98517,-12.78281 4.47396,-6.66701 8.34725,-12.19577 8.60732,-12.28614 0.59095,-0.20534 9.58854,5.97823 9.58854,6.58969 0,0.24612 -3.75019,6.00169 -8.33376,12.79016 -4.58356,6.78847 -8.33375,12.8244 -8.33375,13.41318 0,0.58877 0.85231,2.79504 1.89403,4.90282 1.84324,3.72954 1.89404,3.98202 1.89404,9.41435 0,5.16613 -0.1129,5.81655 -1.51523,8.72942 -1.44895,3.00971 -66.905036,100.64034 -67.427683,100.57136 -0.138896,-0.0183 -8.342173,-5.51955 -18.229503,-12.22492 z"
   id="path4728"
   inkscape:connector-curvature="0"
   transform="matrix(0.26458333,0,0,0.26458333,0,210.00002)" />
<path
   style="opacity:1;fill:#917c6f;fill-opacity:1;stroke:none;stroke-width:1.84213638;stroke-linecap:round;stroke-linejoin:round;stroke-miterlimit:4;stroke-dasharray:none;stroke-opacity:1"
   d="m 64.820594,272.52448 c -6.399551,-4.32231 -12.138365,-8.221 -12.75292,-8.66374 -1.113492,-0.8022 -1.062859,-0.88601 14.573979,-24.12604 10.247814,-15.23067 15.898495,-23.19928 16.288454,-22.97005 2.411115,1.41734 24.598143,16.44631 24.827653,16.81767 0.25427,0.41142 -29.291376,44.87539 -30.742923,46.26577 -0.399106,0.38229 -3.882362,-1.70968 -12.194243,-7.32361 z"
   id="path4730"
   inkscape:connector-curvature="0"
   transform="matrix(0.26458333,0,0,0.26458333,0,210.00002)" />
<path
   style="opacity:1;fill:#917c6f;fill-opacity:1;stroke:none;stroke-width:1.84213638;stroke-linecap:round;stroke-linejoin:round;stroke-miterlimit:4;stroke-dasharray:none;stroke-opacity:1"
   d="m 148.63614,157.26807 c -2.47488,-1.70468 -4.59739,-3.18494 -4.7167,-3.28947 -0.31083,-0.27234 13.25369,-20.38017 13.74824,-20.38017 0.66347,0 9.44965,6.22154 9.44965,6.69134 0,0.6618 -13.1379,20.0777 -13.5857,20.0777 -0.21764,0 -2.42061,-1.39473 -4.89549,-3.0994 z"
   id="path4732"
   inkscape:connector-curvature="0"
   transform="matrix(0.26458333,0,0,0.26458333,0,210.00002)" />
</g>
</svg>
