<?xml version="1.0" encoding="UTF-8" standalone="no"?>
<!-- Created with Inkscape (http://www.inkscape.org/) -->

<svg
   xmlns:dc="http://purl.org/dc/elements/1.1/"
   xmlns:cc="http://creativecommons.org/ns#"
   xmlns:rdf="http://www.w3.org/1999/02/22-rdf-syntax-ns#"
   xmlns:svg="http://www.w3.org/2000/svg"
   xmlns="http://www.w3.org/2000/svg"
   xmlns:sodipodi="http://sodipodi.sourceforge.net/DTD/sodipodi-0.dtd"
   xmlns:inkscape="http://www.inkscape.org/namespaces/inkscape"
   width="5cm"
   height="8.6999998cm"
   viewBox="0 0 50 86.999996"
   version="1.1"
   id="svg8"
   inkscape:version="0.92.4 (5da689c313, 2019-01-14)"
   sodipodi:docname="libro.svg">
  <defs
     id="defs2" />
  <sodipodi:namedview
     id="base"
     pagecolor="#ffffff"
     bordercolor="#666666"
     borderopacity="1.0"
     inkscape:pageopacity="0.0"
     inkscape:pageshadow="2"
     inkscape:zoom="1.979899"
     inkscape:cx="213.78638"
     inkscape:cy="133.05315"
     inkscape:document-units="mm"
     inkscape:current-layer="layer1"
     showgrid="false"
     inkscape:pagecheckerboard="true"
     units="cm"
     fit-margin-top="0"
     fit-margin-left="0"
     fit-margin-right="0"
     fit-margin-bottom="0"
     inkscape:window-width="1920"
     inkscape:window-height="986"
     inkscape:window-x="-11"
     inkscape:window-y="-11"
     inkscape:window-maximized="1" />
  <metadata
     id="metadata5">
    <rdf:RDF>
      <cc:Work
         rdf:about="">
        <dc:format>image/svg+xml</dc:format>
        <dc:type
           rdf:resource="http://purl.org/dc/dcmitype/StillImage" />
        <dc:title></dc:title>
      </cc:Work>
    </rdf:RDF>
  </metadata>
  <g
     inkscape:label="Capa 1"
     inkscape:groupmode="layer"
     id="layer1"
     transform="translate(0,-210.00002)"><g
   id="g4628"
   transform="matrix(0.20947998,0,0,0.20947998,8.8908204,240.81071)" />
<g
   id="g4630"
   transform="matrix(0.20947998,0,0,0.20947998,8.8908204,240.81071)" />
<g
   id="g4632"
   transform="matrix(0.20947998,0,0,0.20947998,8.8908204,240.81071)" />
<g
   id="g4634"
   transform="matrix(0.20947998,0,0,0.20947998,8.8908204,240.81071)" />
<g
   id="g4636"
   transform="matrix(0.20947998,0,0,0.20947998,8.8908204,240.81071)" />
<g
   id="g4638"
   transform="matrix(0.20947998,0,0,0.20947998,8.8908204,240.81071)" />
<g
   id="g4640"
   transform="matrix(0.20947998,0,0,0.20947998,8.8908204,240.81071)" />
<g
   id="g4642"
   transform="matrix(0.20947998,0,0,0.20947998,8.8908204,240.81071)" />
<g
   id="g4644"
   transform="matrix(0.20947998,0,0,0.20947998,8.8908204,240.81071)" />
<g
   id="g4646"
   transform="matrix(0.20947998,0,0,0.20947998,8.8908204,240.81071)" />
<g
   id="g4648"
   transform="matrix(0.20947998,0,0,0.20947998,8.8908204,240.81071)" />
<g
   id="g4650"
   transform="matrix(0.20947998,0,0,0.20947998,8.8908204,240.81071)" />
<g
   id="g4652"
   transform="matrix(0.20947998,0,0,0.20947998,8.8908204,240.81071)" />
<g
   id="g4654"
   transform="matrix(0.20947998,0,0,0.20947998,8.8908204,240.81071)" />
<g
   id="g4656"
   transform="matrix(0.20947998,0,0,0.20947998,8.8908204,240.81071)" />
<path
   style="opacity:0.73000004;fill:#00b000;fill-opacity:0;stroke:none;stroke-width:2.03303146;stroke-linecap:round;stroke-linejoin:round;stroke-miterlimit:4;stroke-dasharray:none;stroke-opacity:1"
   d="M 24.325222,319.80868 C 17.066537,317.5278 11.509842,311.21911 10.064241,303.61774 9.6390343,301.38188 9.5270087,264.49903 9.6369978,162.954 L 9.7860763,25.320713 10.9189,22.542794 c 2.310358,-5.665476 6.536692,-9.750628 12.635954,-12.213849 L 26.453593,9.1582727 91.860971,9.0123866 c 42.645419,-0.095117 66.901399,0.035037 69.700529,0.374004 10.0464,1.2165954 17.31368,8.1296824 18.71202,17.8000534 0.65559,4.533771 0.60935,270.858146 -0.0478,275.405466 -1.02453,7.08934 -5.26974,12.9923 -11.55594,16.06856 l -3.32018,1.62479 -69.447989,0.0961 c -56.431667,0.0781 -69.846899,-0.0292 -71.576359,-0.57268 z M 86.486358,278.4902 c 1.072085,-0.97647 55.339962,-92.8099 58.341262,-98.72652 3.38408,-6.67121 3.37065,-14.93098 -0.0365,-22.45378 l -1.52688,-3.37125 2.61866,-4.53734 c 1.84327,-3.19385 3.03908,-4.7115 4.03852,-5.12548 0.78093,-0.32347 2.05708,-1.25323 2.8359,-2.06614 1.15735,-1.20802 1.45698,-2.04414 1.64019,-4.57705 0.21375,-2.95511 0.64335,-3.81075 9.24991,-18.42355 9.25449,-15.71289 9.97787,-17.39984 8.14186,-18.98699 -2.06551,-1.785565 -16.05077,-9.620278 -17.17254,-9.620278 -0.67466,0 -1.59064,0.363973 -2.0355,0.808834 -0.44486,0.444856 -7.325,11.890124 -15.2892,25.433924 l -14.48038,24.62509 -4.50221,0.60308 c -4.85501,0.65033 -8.77494,1.97847 -11.6943,3.96223 -1.01055,0.68668 -1.99064,1.08101 -2.17798,0.87628 -0.18733,-0.20473 -1.31894,-2.61357 -2.51469,-5.35297 -1.19575,-2.7394 -2.585057,-5.23738 -3.087351,-5.55106 -0.502268,-0.31369 -0.913233,-0.82877 -0.913233,-1.14461 0,-0.31586 -0.340927,-0.85723 -0.757615,-1.20305 -0.852422,-0.70744 -0.967231,-1.91715 -0.284368,-2.99625 0.377873,-0.59713 1.220709,-0.34886 4.828337,1.42225 4.16321,2.04388 4.42866,2.10759 5.5954,1.34312 2.89162,-1.89466 0.46059,-4.98667 -5.74544,-7.30757 l -2.967836,-1.1099 2.191146,-4.3659 c 1.20512,-2.40123 2.19114,-4.63596 2.19114,-4.96604 0,-0.44427 0.55326,-0.47584 2.13007,-0.12156 2.87599,0.6462 4.34502,0.20459 4.75514,-1.42945 0.47365,-1.88717 -0.32771,-2.84186 -3.02488,-3.60364 l -2.3451,-0.66236 -0.0758,-5.0214 c -0.0417,-2.76178 -0.0985,-5.304552 -0.12627,-5.650625 -0.0316,-0.393889 0.98844,-0.76109 2.72741,-0.981808 5.70472,-0.724087 10.50876,-3.264959 14.43987,-7.637299 8.88749,-9.885024 8.26811,-24.988951 -1.39147,-33.932019 -9.72512,-9.003747 -24.06315,-8.789391 -33.538063,0.5014 -3.597688,3.527776 -5.895816,7.895064 -6.832682,12.984617 l -0.623683,3.388167 -2.315699,-0.33288 c -3.158201,-0.453993 -5.877961,-0.454367 -8.895772,-0.001 l -2.539463,0.381322 -0.549432,-3.41178 C 63.962876,65.156226 61.898932,61.225692 58.045261,57.34827 48.403812,47.647391 33.660243,47.557706 23.892547,57.140519 14.34103,66.511244 14.264299,81.90208 23.721945,91.360128 c 2.832709,2.832826 9.092665,6.439031 11.177427,6.439031 0.493973,0 0.898132,0.212546 0.898132,0.472322 0,0.259776 0.910455,1.112092 2.023232,1.894039 l 2.023233,1.42171 -0.129197,4.03568 -0.129196,4.03568 -2.513506,0.35823 c -3.495334,0.49816 -4.925065,2.74751 -2.981652,4.69092 0.663135,0.66313 1.453234,0.75738 4.166879,0.49703 l 3.348584,-0.32126 0.979305,2.44324 c 0.538618,1.34377 1.618218,3.53283 2.399113,4.86457 1.624762,2.77087 1.654126,2.88196 0.761745,2.88196 -0.361935,0 -2.504443,0.89289 -4.76113,1.98419 -4.460461,2.15703 -5.626611,3.46865 -4.765085,5.3595 0.896519,1.96764 2.179711,1.91552 6.436526,-0.26144 5.825794,-2.97934 6.04204,-2.83581 3.398744,2.25589 -5.195114,10.00719 -10.157166,23.45966 -12.577479,34.09842 -1.422228,6.25156 -1.601267,13.70575 -0.446813,18.60278 0.587895,2.49377 2.849098,7.96293 4.656525,11.26271 0.09596,0.17519 -0.409367,0.46506 -1.122949,0.64416 -1.878666,0.47152 -5.322554,3.76333 -6.390569,6.10838 -1.360395,2.98702 -1.24343,6.56331 0.263958,8.0707 1.663992,1.664 3.438565,1.89113 13.247727,1.69566 7.499188,-0.14943 8.739379,-0.29469 10.289089,-1.20507 1.731327,-1.01708 1.818601,-1.01949 4.996718,-0.13822 1.779037,0.49331 3.34346,1.00578 3.476492,1.13881 0.133037,0.13304 -4.579722,8.43295 -10.472794,18.44427 -5.893072,10.01131 -10.825177,18.62494 -10.960233,19.14139 -0.14356,0.54898 0.242894,1.47502 0.930392,2.22947 0.912333,1.00117 34.766929,21.28016 40.824435,24.45394 1.73825,0.91074 2.276884,0.84283 3.71676,-0.46862 z"
   id="path4778"
   inkscape:connector-curvature="0"
   transform="matrix(0.26458333,0,0,0.26458333,0,210.00002)" />
<path
   style="opacity:0.73000004;fill:#00b000;fill-opacity:0;stroke:none;stroke-width:2.03303146;stroke-linecap:round;stroke-linejoin:round;stroke-miterlimit:4;stroke-dasharray:none;stroke-opacity:1"
   d="M 24.325222,319.80868 C 17.066537,317.5278 11.509842,311.21911 10.064241,303.61774 9.6390343,301.38188 9.5270087,264.49903 9.6369978,162.954 L 9.7860763,25.320713 10.9189,22.542794 c 2.310358,-5.665476 6.536692,-9.750628 12.635954,-12.213849 L 26.453593,9.1582727 91.860971,9.0123866 c 42.645419,-0.095117 66.901399,0.035037 69.700529,0.374004 10.0464,1.2165954 17.31368,8.1296824 18.71202,17.8000534 0.65559,4.533771 0.60935,270.858146 -0.0478,275.405466 -1.02453,7.08934 -5.26974,12.9923 -11.55594,16.06856 l -3.32018,1.62479 -69.447989,0.0961 c -56.431667,0.0781 -69.846899,-0.0292 -71.576359,-0.57268 z M 86.486358,278.4902 c 1.072085,-0.97647 55.339962,-92.8099 58.341262,-98.72652 3.38408,-6.67121 3.37065,-14.93098 -0.0365,-22.45378 l -1.52688,-3.37125 2.61866,-4.53734 c 1.84327,-3.19385 3.03908,-4.7115 4.03852,-5.12548 0.78093,-0.32347 2.05708,-1.25323 2.8359,-2.06614 1.15735,-1.20802 1.45698,-2.04414 1.64019,-4.57705 0.21375,-2.95511 0.64335,-3.81075 9.24991,-18.42355 9.25449,-15.71289 9.97787,-17.39984 8.14186,-18.98699 -2.06551,-1.785565 -16.05077,-9.620278 -17.17254,-9.620278 -0.67466,0 -1.59064,0.363973 -2.0355,0.808834 -0.44486,0.444856 -7.325,11.890124 -15.2892,25.433924 l -14.48038,24.62509 -4.50221,0.60308 c -4.85501,0.65033 -8.77494,1.97847 -11.6943,3.96223 -1.01055,0.68668 -1.99064,1.08101 -2.17798,0.87628 -0.18733,-0.20473 -1.31894,-2.61357 -2.51469,-5.35297 -1.19575,-2.7394 -2.585057,-5.23738 -3.087351,-5.55106 -0.502268,-0.31369 -0.913233,-0.82877 -0.913233,-1.14461 0,-0.31586 -0.340927,-0.85723 -0.757615,-1.20305 -0.852422,-0.70744 -0.967231,-1.91715 -0.284368,-2.99625 0.377873,-0.59713 1.220709,-0.34886 4.828337,1.42225 4.16321,2.04388 4.42866,2.10759 5.5954,1.34312 2.89162,-1.89466 0.46059,-4.98667 -5.74544,-7.30757 l -2.967836,-1.1099 2.191146,-4.3659 c 1.20512,-2.40123 2.19114,-4.63596 2.19114,-4.96604 0,-0.44427 0.55326,-0.47584 2.13007,-0.12156 2.87599,0.6462 4.34502,0.20459 4.75514,-1.42945 0.47365,-1.88717 -0.32771,-2.84186 -3.02488,-3.60364 l -2.3451,-0.66236 -0.0758,-5.0214 c -0.0417,-2.76178 -0.0985,-5.304552 -0.12627,-5.650625 -0.0316,-0.393889 0.98844,-0.76109 2.72741,-0.981808 5.70472,-0.724087 10.50876,-3.264959 14.43987,-7.637299 8.88749,-9.885024 8.26811,-24.988951 -1.39147,-33.932019 -9.72512,-9.003747 -24.06315,-8.789391 -33.538063,0.5014 -3.597688,3.527776 -5.895816,7.895064 -6.832682,12.984617 l -0.623683,3.388167 -2.315699,-0.33288 c -3.158201,-0.453993 -5.877961,-0.454367 -8.895772,-0.001 l -2.539463,0.381322 -0.549432,-3.41178 C 63.962876,65.156226 61.898932,61.225692 58.045261,57.34827 48.403812,47.647391 33.660243,47.557706 23.892547,57.140519 14.34103,66.511244 14.264299,81.90208 23.721945,91.360128 c 2.832709,2.832826 9.092665,6.439031 11.177427,6.439031 0.493973,0 0.898132,0.212546 0.898132,0.472322 0,0.259776 0.910455,1.112092 2.023232,1.894039 l 2.023233,1.42171 -0.129197,4.03568 -0.129196,4.03568 -2.513506,0.35823 c -3.495334,0.49816 -4.925065,2.74751 -2.981652,4.69092 0.663135,0.66313 1.453234,0.75738 4.166879,0.49703 l 3.348584,-0.32126 0.979305,2.44324 c 0.538618,1.34377 1.618218,3.53283 2.399113,4.86457 1.624762,2.77087 1.654126,2.88196 0.761745,2.88196 -0.361935,0 -2.504443,0.89289 -4.76113,1.98419 -4.460461,2.15703 -5.626611,3.46865 -4.765085,5.3595 0.896519,1.96764 2.179711,1.91552 6.436526,-0.26144 5.825794,-2.97934 6.04204,-2.83581 3.398744,2.25589 -5.195114,10.00719 -10.157166,23.45966 -12.577479,34.09842 -1.422228,6.25156 -1.601267,13.70575 -0.446813,18.60278 0.587895,2.49377 2.849098,7.96293 4.656525,11.26271 0.09596,0.17519 -0.409367,0.46506 -1.122949,0.64416 -1.878666,0.47152 -5.322554,3.76333 -6.390569,6.10838 -1.360395,2.98702 -1.24343,6.56331 0.263958,8.0707 1.663992,1.664 3.438565,1.89113 13.247727,1.69566 7.499188,-0.14943 8.739379,-0.29469 10.289089,-1.20507 1.731327,-1.01708 1.818601,-1.01949 4.996718,-0.13822 1.779037,0.49331 3.34346,1.00578 3.476492,1.13881 0.133037,0.13304 -4.579722,8.43295 -10.472794,18.44427 -5.893072,10.01131 -10.825177,18.62494 -10.960233,19.14139 -0.14356,0.54898 0.242894,1.47502 0.930392,2.22947 0.912333,1.00117 34.766929,21.28016 40.824435,24.45394 1.73825,0.91074 2.276884,0.84283 3.71676,-0.46862 z"
   id="path4780"
   inkscape:connector-curvature="0"
   transform="matrix(0.26458333,0,0,0.26458333,0,210.00002)" />

<g
   id="g4896"
   transform="matrix(0.09543739,0,0,0.09543739,-0.11576897,246.41321)">
	<g
   id="g4894">
		<path
   id="path4892"
   d="M 408.852,0 H 136.599 103.149 C 74.601,0 51.375,23.226 51.375,51.774 V 426.777 C 51.375,473.768 89.607,512 136.6,512 h 280.439 c 24.033,0 43.585,-19.551 43.585,-43.584 V 458.629 394.925 350.338 51.774 C 460.625,23.226 437.4,0 408.852,0 Z M 103.149,17.571 h 24.666 v 324.43 c -0.123,0.013 -0.244,0.034 -0.368,0.048 -13.019,1.399 -25.614,5.924 -36.647,12.963 -8.364,5.336 -15.812,12.114 -21.852,19.99 V 51.774 h -10e-4 c 0,-18.859 15.343,-34.203 34.202,-34.203 z M 443.053,449.843 H 136.6 c -12.719,0 -23.067,-10.347 -23.067,-23.065 0,-12.718 10.347,-23.067 23.067,-23.067 h 306.453 z m 0,-63.705 H 136.6 c -22.408,0 -40.638,18.231 -40.638,40.638 0,22.407 18.231,40.637 40.638,40.637 h 306.453 v 1.002 c 0,14.343 -11.67,26.013 -26.014,26.013 H 136.6 c -37.304,0 -67.653,-30.349 -67.653,-67.652 0,-32.101 22.482,-59.033 52.522,-65.926 0.98,-0.225 1.969,-0.429 2.966,-0.61 1.31,-0.239 2.631,-0.44 3.965,-0.602 2.69,-0.327 5.423,-0.514 8.2,-0.514 h 306.453 z m 0,-44.586 H 145.385 V 17.571 h 263.467 c 18.859,0 34.202,15.343 34.202,34.202 v 289.779 z"
   inkscape:connector-curvature="0" />

	</g>

</g>

<g
   id="g4898"
   transform="matrix(0.09543739,0,0,0.09543739,23.003045,251.09043)">
</g>

<g
   id="g4900"
   transform="matrix(0.09543739,0,0,0.09543739,23.003045,251.09043)">
</g>

<g
   id="g4902"
   transform="matrix(0.09543739,0,0,0.09543739,23.003045,251.09043)">
</g>

<g
   id="g4904"
   transform="matrix(0.09543739,0,0,0.09543739,23.003045,251.09043)">
</g>

<g
   id="g4906"
   transform="matrix(0.09543739,0,0,0.09543739,23.003045,251.09043)">
</g>

<g
   id="g4908"
   transform="matrix(0.09543739,0,0,0.09543739,23.003045,251.09043)">
</g>

<g
   id="g4910"
   transform="matrix(0.09543739,0,0,0.09543739,23.003045,251.09043)">
</g>

<g
   id="g4912"
   transform="matrix(0.09543739,0,0,0.09543739,23.003045,251.09043)">
</g>

<g
   id="g4914"
   transform="matrix(0.09543739,0,0,0.09543739,23.003045,251.09043)">
</g>

<g
   id="g4916"
   transform="matrix(0.09543739,0,0,0.09543739,23.003045,251.09043)">
</g>

<g
   id="g4918"
   transform="matrix(0.09543739,0,0,0.09543739,23.003045,251.09043)">
</g>

<g
   id="g4920"
   transform="matrix(0.09543739,0,0,0.09543739,23.003045,251.09043)">
</g>

<g
   id="g4922"
   transform="matrix(0.09543739,0,0,0.09543739,23.003045,251.09043)">
</g>

<g
   id="g4924"
   transform="matrix(0.09543739,0,0,0.09543739,23.003045,251.09043)">
</g>

<g
   id="g4926"
   transform="matrix(0.09543739,0,0,0.09543739,23.003045,251.09043)">
</g>

<path
   style="opacity:1;fill:#0026ff;fill-opacity:1;stroke:none;stroke-width:1.84213638;stroke-linecap:round;stroke-linejoin:round;stroke-miterlimit:4;stroke-dasharray:none;stroke-opacity:1"
   d="m 52.465019,202.37012 v -58.34844 l 48.866131,0.1384 48.86613,0.13839 2.0923,1.119 c 2.61559,1.39887 5.58275,4.81348 6.24065,7.18175 0.31562,1.13616 0.50129,21.42033 0.50306,54.96006 l 0.003,53.15927 H 105.75057 52.465019 Z"
   id="path4953"
   inkscape:connector-curvature="0"
   transform="matrix(0.26458333,0,0,0.26458333,0,210.00002)" />
<path
   style="opacity:1;fill:#0026ff;fill-opacity:1;stroke:none;stroke-width:1.84213638;stroke-linecap:round;stroke-linejoin:round;stroke-miterlimit:4;stroke-dasharray:none;stroke-opacity:1"
   d="m 24.690758,212.92049 0.0049,-59.02557 1.177723,-2.52906 c 2.434092,-5.227 6.669731,-7.31993 14.813983,-7.31993 h 4.706553 v 58.26374 58.26373 l -3.409265,0.82957 c -5.125212,1.24711 -10.333143,4.02699 -14.03922,7.49384 l -3.259642,3.04924 z"
   id="path4955"
   inkscape:connector-curvature="0"
   transform="matrix(0.26458333,0,0,0.26458333,0,210.00002)" />
<path
   style="opacity:1;fill:#0026ff;fill-opacity:1;stroke:none;stroke-width:1.84213638;stroke-linecap:round;stroke-linejoin:round;stroke-miterlimit:4;stroke-dasharray:none;stroke-opacity:1"
   d="M 43.933437,315.22557 C 33.30147,313.13758 24.685824,302.53013 24.685824,291.52821 c 0,-11.30013 8.696537,-21.64683 19.917005,-23.69627 2.035167,-0.37172 20.878068,-0.5474 58.715121,-0.5474 h 55.71816 v 4.78983 4.78983 l -57.45242,0.13467 -57.45243,0.13466 -2.020305,1.09363 c -11.106571,6.01217 -10.518953,21.74179 1.010153,27.04021 l 2.525381,1.16059 56.694811,0.14085 c 56.41439,0.14016 56.69481,0.14588 56.69481,1.15654 0,1.30494 -1.63488,4.51218 -2.86893,5.62814 -2.76301,2.49862 -0.9117,2.42233 -57.345191,2.36304 -28.968733,-0.0304 -53.668582,-0.25137 -54.888552,-0.49096 z"
   id="path4957"
   inkscape:connector-curvature="0"
   transform="matrix(0.26458333,0,0,0.26458333,0,210.00002)" />
<path
   style="opacity:1;fill:#0026ff;fill-opacity:1;stroke:none;stroke-width:1.84213638;stroke-linecap:round;stroke-linejoin:round;stroke-miterlimit:4;stroke-dasharray:none;stroke-opacity:1"
   d="m 45.899286,299.042 c -0.694337,-0.27687 -1.795533,-1.00114 -2.447102,-1.60949 -3.89929,-3.64062 -3.407013,-9.34051 1.094812,-12.67639 1.424246,-1.05538 1.490963,-1.05675 57.957504,-1.18931 l 56.53161,-0.13272 v 8.08767 8.08767 l -55.9372,-0.032 C 67.189702,299.55686 46.709711,299.36516 45.899286,299.042 Z"
   id="path4959"
   inkscape:connector-curvature="0"
   transform="matrix(0.26458333,0,0,0.26458333,0,210.00002)" />
</g>
</svg>
