<?xml version="1.0" encoding="UTF-8" standalone="no"?>
<!-- Created with Inkscape (http://www.inkscape.org/) -->

<svg
   xmlns:dc="http://purl.org/dc/elements/1.1/"
   xmlns:cc="http://creativecommons.org/ns#"
   xmlns:rdf="http://www.w3.org/1999/02/22-rdf-syntax-ns#"
   xmlns:svg="http://www.w3.org/2000/svg"
   xmlns="http://www.w3.org/2000/svg"
   xmlns:sodipodi="http://sodipodi.sourceforge.net/DTD/sodipodi-0.dtd"
   xmlns:inkscape="http://www.inkscape.org/namespaces/inkscape"
   width="5cm"
   height="8.6999998cm"
   viewBox="0 0 50 86.999996"
   version="1.1"
   id="svg8"
   inkscape:version="0.92.4 (5da689c313, 2019-01-14)"
   sodipodi:docname="ratón.svg">
  <defs
     id="defs2" />
  <sodipodi:namedview
     id="base"
     pagecolor="#ffffff"
     bordercolor="#666666"
     borderopacity="1.0"
     inkscape:pageopacity="0.0"
     inkscape:pageshadow="2"
     inkscape:zoom="1.979899"
     inkscape:cx="213.78638"
     inkscape:cy="151.58187"
     inkscape:document-units="mm"
     inkscape:current-layer="layer1"
     showgrid="false"
     inkscape:pagecheckerboard="true"
     units="cm"
     fit-margin-top="0"
     fit-margin-left="0"
     fit-margin-right="0"
     fit-margin-bottom="0"
     inkscape:window-width="1920"
     inkscape:window-height="986"
     inkscape:window-x="-11"
     inkscape:window-y="-11"
     inkscape:window-maximized="1" />
  <metadata
     id="metadata5">
    <rdf:RDF>
      <cc:Work
         rdf:about="">
        <dc:format>image/svg+xml</dc:format>
        <dc:type
           rdf:resource="http://purl.org/dc/dcmitype/StillImage" />
        <dc:title></dc:title>
      </cc:Work>
    </rdf:RDF>
  </metadata>
  <g
     inkscape:label="Capa 1"
     inkscape:groupmode="layer"
     id="layer1"
     transform="translate(0,-210.00002)">
    <g
       id="g4628"
       transform="matrix(0.20947998,0,0,0.20947998,8.8908204,240.81071)" />
    <g
       id="g4630"
       transform="matrix(0.20947998,0,0,0.20947998,8.8908204,240.81071)" />
    <g
       id="g4632"
       transform="matrix(0.20947998,0,0,0.20947998,8.8908204,240.81071)" />
    <g
       id="g4634"
       transform="matrix(0.20947998,0,0,0.20947998,8.8908204,240.81071)" />
    <g
       id="g4636"
       transform="matrix(0.20947998,0,0,0.20947998,8.8908204,240.81071)" />
    <g
       id="g4638"
       transform="matrix(0.20947998,0,0,0.20947998,8.8908204,240.81071)" />
    <g
       id="g4640"
       transform="matrix(0.20947998,0,0,0.20947998,8.8908204,240.81071)" />
    <g
       id="g4642"
       transform="matrix(0.20947998,0,0,0.20947998,8.8908204,240.81071)" />
    <g
       id="g4644"
       transform="matrix(0.20947998,0,0,0.20947998,8.8908204,240.81071)" />
    <g
       id="g4646"
       transform="matrix(0.20947998,0,0,0.20947998,8.8908204,240.81071)" />
    <g
       id="g4648"
       transform="matrix(0.20947998,0,0,0.20947998,8.8908204,240.81071)" />
    <g
       id="g4650"
       transform="matrix(0.20947998,0,0,0.20947998,8.8908204,240.81071)" />
    <g
       id="g4652"
       transform="matrix(0.20947998,0,0,0.20947998,8.8908204,240.81071)" />
    <g
       id="g4654"
       transform="matrix(0.20947998,0,0,0.20947998,8.8908204,240.81071)" />
    <g
       id="g4656"
       transform="matrix(0.20947998,0,0,0.20947998,8.8908204,240.81071)" />
    <path
       style="opacity:0.73000004;fill:#00b000;fill-opacity:0;stroke:none;stroke-width:2.03303146;stroke-linecap:round;stroke-linejoin:round;stroke-miterlimit:4;stroke-dasharray:none;stroke-opacity:1"
       d="M 24.325222,319.80868 C 17.066537,317.5278 11.509842,311.21911 10.064241,303.61774 9.6390343,301.38188 9.5270087,264.49903 9.6369978,162.954 L 9.7860763,25.320713 10.9189,22.542794 c 2.310358,-5.665476 6.536692,-9.750628 12.635954,-12.213849 L 26.453593,9.1582727 91.860971,9.0123866 c 42.645419,-0.095117 66.901399,0.035037 69.700529,0.374004 10.0464,1.2165954 17.31368,8.1296824 18.71202,17.8000534 0.65559,4.533771 0.60935,270.858146 -0.0478,275.405466 -1.02453,7.08934 -5.26974,12.9923 -11.55594,16.06856 l -3.32018,1.62479 -69.447989,0.0961 c -56.431667,0.0781 -69.846899,-0.0292 -71.576359,-0.57268 z M 86.486358,278.4902 c 1.072085,-0.97647 55.339962,-92.8099 58.341262,-98.72652 3.38408,-6.67121 3.37065,-14.93098 -0.0365,-22.45378 l -1.52688,-3.37125 2.61866,-4.53734 c 1.84327,-3.19385 3.03908,-4.7115 4.03852,-5.12548 0.78093,-0.32347 2.05708,-1.25323 2.8359,-2.06614 1.15735,-1.20802 1.45698,-2.04414 1.64019,-4.57705 0.21375,-2.95511 0.64335,-3.81075 9.24991,-18.42355 9.25449,-15.71289 9.97787,-17.39984 8.14186,-18.98699 -2.06551,-1.785565 -16.05077,-9.620278 -17.17254,-9.620278 -0.67466,0 -1.59064,0.363973 -2.0355,0.808834 -0.44486,0.444856 -7.325,11.890124 -15.2892,25.433924 l -14.48038,24.62509 -4.50221,0.60308 c -4.85501,0.65033 -8.77494,1.97847 -11.6943,3.96223 -1.01055,0.68668 -1.99064,1.08101 -2.17798,0.87628 -0.18733,-0.20473 -1.31894,-2.61357 -2.51469,-5.35297 -1.19575,-2.7394 -2.585057,-5.23738 -3.087351,-5.55106 -0.502268,-0.31369 -0.913233,-0.82877 -0.913233,-1.14461 0,-0.31586 -0.340927,-0.85723 -0.757615,-1.20305 -0.852422,-0.70744 -0.967231,-1.91715 -0.284368,-2.99625 0.377873,-0.59713 1.220709,-0.34886 4.828337,1.42225 4.16321,2.04388 4.42866,2.10759 5.5954,1.34312 2.89162,-1.89466 0.46059,-4.98667 -5.74544,-7.30757 l -2.967836,-1.1099 2.191146,-4.3659 c 1.20512,-2.40123 2.19114,-4.63596 2.19114,-4.96604 0,-0.44427 0.55326,-0.47584 2.13007,-0.12156 2.87599,0.6462 4.34502,0.20459 4.75514,-1.42945 0.47365,-1.88717 -0.32771,-2.84186 -3.02488,-3.60364 l -2.3451,-0.66236 -0.0758,-5.0214 c -0.0417,-2.76178 -0.0985,-5.304552 -0.12627,-5.650625 -0.0316,-0.393889 0.98844,-0.76109 2.72741,-0.981808 5.70472,-0.724087 10.50876,-3.264959 14.43987,-7.637299 8.88749,-9.885024 8.26811,-24.988951 -1.39147,-33.932019 -9.72512,-9.003747 -24.06315,-8.789391 -33.538063,0.5014 -3.597688,3.527776 -5.895816,7.895064 -6.832682,12.984617 l -0.623683,3.388167 -2.315699,-0.33288 c -3.158201,-0.453993 -5.877961,-0.454367 -8.895772,-0.001 l -2.539463,0.381322 -0.549432,-3.41178 C 63.962876,65.156226 61.898932,61.225692 58.045261,57.34827 48.403812,47.647391 33.660243,47.557706 23.892547,57.140519 14.34103,66.511244 14.264299,81.90208 23.721945,91.360128 c 2.832709,2.832826 9.092665,6.439031 11.177427,6.439031 0.493973,0 0.898132,0.212546 0.898132,0.472322 0,0.259776 0.910455,1.112092 2.023232,1.894039 l 2.023233,1.42171 -0.129197,4.03568 -0.129196,4.03568 -2.513506,0.35823 c -3.495334,0.49816 -4.925065,2.74751 -2.981652,4.69092 0.663135,0.66313 1.453234,0.75738 4.166879,0.49703 l 3.348584,-0.32126 0.979305,2.44324 c 0.538618,1.34377 1.618218,3.53283 2.399113,4.86457 1.624762,2.77087 1.654126,2.88196 0.761745,2.88196 -0.361935,0 -2.504443,0.89289 -4.76113,1.98419 -4.460461,2.15703 -5.626611,3.46865 -4.765085,5.3595 0.896519,1.96764 2.179711,1.91552 6.436526,-0.26144 5.825794,-2.97934 6.04204,-2.83581 3.398744,2.25589 -5.195114,10.00719 -10.157166,23.45966 -12.577479,34.09842 -1.422228,6.25156 -1.601267,13.70575 -0.446813,18.60278 0.587895,2.49377 2.849098,7.96293 4.656525,11.26271 0.09596,0.17519 -0.409367,0.46506 -1.122949,0.64416 -1.878666,0.47152 -5.322554,3.76333 -6.390569,6.10838 -1.360395,2.98702 -1.24343,6.56331 0.263958,8.0707 1.663992,1.664 3.438565,1.89113 13.247727,1.69566 7.499188,-0.14943 8.739379,-0.29469 10.289089,-1.20507 1.731327,-1.01708 1.818601,-1.01949 4.996718,-0.13822 1.779037,0.49331 3.34346,1.00578 3.476492,1.13881 0.133037,0.13304 -4.579722,8.43295 -10.472794,18.44427 -5.893072,10.01131 -10.825177,18.62494 -10.960233,19.14139 -0.14356,0.54898 0.242894,1.47502 0.930392,2.22947 0.912333,1.00117 34.766929,21.28016 40.824435,24.45394 1.73825,0.91074 2.276884,0.84283 3.71676,-0.46862 z"
       id="path4778"
       inkscape:connector-curvature="0"
       transform="matrix(0.26458333,0,0,0.26458333,0,210.00002)" />
    <path
       style="opacity:0.73000004;fill:#00b000;fill-opacity:0;stroke:none;stroke-width:2.03303146;stroke-linecap:round;stroke-linejoin:round;stroke-miterlimit:4;stroke-dasharray:none;stroke-opacity:1"
       d="M 24.325222,319.80868 C 17.066537,317.5278 11.509842,311.21911 10.064241,303.61774 9.6390343,301.38188 9.5270087,264.49903 9.6369978,162.954 L 9.7860763,25.320713 10.9189,22.542794 c 2.310358,-5.665476 6.536692,-9.750628 12.635954,-12.213849 L 26.453593,9.1582727 91.860971,9.0123866 c 42.645419,-0.095117 66.901399,0.035037 69.700529,0.374004 10.0464,1.2165954 17.31368,8.1296824 18.71202,17.8000534 0.65559,4.533771 0.60935,270.858146 -0.0478,275.405466 -1.02453,7.08934 -5.26974,12.9923 -11.55594,16.06856 l -3.32018,1.62479 -69.447989,0.0961 c -56.431667,0.0781 -69.846899,-0.0292 -71.576359,-0.57268 z M 86.486358,278.4902 c 1.072085,-0.97647 55.339962,-92.8099 58.341262,-98.72652 3.38408,-6.67121 3.37065,-14.93098 -0.0365,-22.45378 l -1.52688,-3.37125 2.61866,-4.53734 c 1.84327,-3.19385 3.03908,-4.7115 4.03852,-5.12548 0.78093,-0.32347 2.05708,-1.25323 2.8359,-2.06614 1.15735,-1.20802 1.45698,-2.04414 1.64019,-4.57705 0.21375,-2.95511 0.64335,-3.81075 9.24991,-18.42355 9.25449,-15.71289 9.97787,-17.39984 8.14186,-18.98699 -2.06551,-1.785565 -16.05077,-9.620278 -17.17254,-9.620278 -0.67466,0 -1.59064,0.363973 -2.0355,0.808834 -0.44486,0.444856 -7.325,11.890124 -15.2892,25.433924 l -14.48038,24.62509 -4.50221,0.60308 c -4.85501,0.65033 -8.77494,1.97847 -11.6943,3.96223 -1.01055,0.68668 -1.99064,1.08101 -2.17798,0.87628 -0.18733,-0.20473 -1.31894,-2.61357 -2.51469,-5.35297 -1.19575,-2.7394 -2.585057,-5.23738 -3.087351,-5.55106 -0.502268,-0.31369 -0.913233,-0.82877 -0.913233,-1.14461 0,-0.31586 -0.340927,-0.85723 -0.757615,-1.20305 -0.852422,-0.70744 -0.967231,-1.91715 -0.284368,-2.99625 0.377873,-0.59713 1.220709,-0.34886 4.828337,1.42225 4.16321,2.04388 4.42866,2.10759 5.5954,1.34312 2.89162,-1.89466 0.46059,-4.98667 -5.74544,-7.30757 l -2.967836,-1.1099 2.191146,-4.3659 c 1.20512,-2.40123 2.19114,-4.63596 2.19114,-4.96604 0,-0.44427 0.55326,-0.47584 2.13007,-0.12156 2.87599,0.6462 4.34502,0.20459 4.75514,-1.42945 0.47365,-1.88717 -0.32771,-2.84186 -3.02488,-3.60364 l -2.3451,-0.66236 -0.0758,-5.0214 c -0.0417,-2.76178 -0.0985,-5.304552 -0.12627,-5.650625 -0.0316,-0.393889 0.98844,-0.76109 2.72741,-0.981808 5.70472,-0.724087 10.50876,-3.264959 14.43987,-7.637299 8.88749,-9.885024 8.26811,-24.988951 -1.39147,-33.932019 -9.72512,-9.003747 -24.06315,-8.789391 -33.538063,0.5014 -3.597688,3.527776 -5.895816,7.895064 -6.832682,12.984617 l -0.623683,3.388167 -2.315699,-0.33288 c -3.158201,-0.453993 -5.877961,-0.454367 -8.895772,-0.001 l -2.539463,0.381322 -0.549432,-3.41178 C 63.962876,65.156226 61.898932,61.225692 58.045261,57.34827 48.403812,47.647391 33.660243,47.557706 23.892547,57.140519 14.34103,66.511244 14.264299,81.90208 23.721945,91.360128 c 2.832709,2.832826 9.092665,6.439031 11.177427,6.439031 0.493973,0 0.898132,0.212546 0.898132,0.472322 0,0.259776 0.910455,1.112092 2.023232,1.894039 l 2.023233,1.42171 -0.129197,4.03568 -0.129196,4.03568 -2.513506,0.35823 c -3.495334,0.49816 -4.925065,2.74751 -2.981652,4.69092 0.663135,0.66313 1.453234,0.75738 4.166879,0.49703 l 3.348584,-0.32126 0.979305,2.44324 c 0.538618,1.34377 1.618218,3.53283 2.399113,4.86457 1.624762,2.77087 1.654126,2.88196 0.761745,2.88196 -0.361935,0 -2.504443,0.89289 -4.76113,1.98419 -4.460461,2.15703 -5.626611,3.46865 -4.765085,5.3595 0.896519,1.96764 2.179711,1.91552 6.436526,-0.26144 5.825794,-2.97934 6.04204,-2.83581 3.398744,2.25589 -5.195114,10.00719 -10.157166,23.45966 -12.577479,34.09842 -1.422228,6.25156 -1.601267,13.70575 -0.446813,18.60278 0.587895,2.49377 2.849098,7.96293 4.656525,11.26271 0.09596,0.17519 -0.409367,0.46506 -1.122949,0.64416 -1.878666,0.47152 -5.322554,3.76333 -6.390569,6.10838 -1.360395,2.98702 -1.24343,6.56331 0.263958,8.0707 1.663992,1.664 3.438565,1.89113 13.247727,1.69566 7.499188,-0.14943 8.739379,-0.29469 10.289089,-1.20507 1.731327,-1.01708 1.818601,-1.01949 4.996718,-0.13822 1.779037,0.49331 3.34346,1.00578 3.476492,1.13881 0.133037,0.13304 -4.579722,8.43295 -10.472794,18.44427 -5.893072,10.01131 -10.825177,18.62494 -10.960233,19.14139 -0.14356,0.54898 0.242894,1.47502 0.930392,2.22947 0.912333,1.00117 34.766929,21.28016 40.824435,24.45394 1.73825,0.91074 2.276884,0.84283 3.71676,-0.46862 z"
       id="path4780"
       inkscape:connector-curvature="0"
       transform="matrix(0.26458333,0,0,0.26458333,0,210.00002)" />
    <g
       id="g4612"
       transform="matrix(0.11364068,0,0,0.11364068,-3.6578627,238.52135)">
      <path
         id="path4610"
         d="m 190.557,165.314 c 3.76,1.496 8.191,-0.3 9.741,-4.196 1.531,-3.849 -0.348,-8.21 -4.196,-9.742 -5.126,-2.04 -10.517,-3.073 -16.027,-3.073 -0.119,0 -0.24,0 -0.36,0.001 -5.392,0.044 -10.667,1.078 -15.677,3.072 -3.849,1.532 -5.727,5.894 -4.195,9.742 1.532,3.849 5.896,5.728 9.742,4.195 3.277,-1.304 6.727,-1.98 10.253,-2.009 3.706,-0.033 7.293,0.647 10.719,2.01 z M 447.75,249.18 c -46.234,0 -83.85,37.615 -83.85,83.85 v 30.05 c 0,16.404 -10.316,30.735 -25.096,36.343 -0.082,-7.268 -0.88,-14.6 -2.394,-21.814 -7.705,-36.708 -20.465,-73.443 -37.081,-107.001 -1.838,-3.712 -6.34,-5.23 -10.05,-3.392 -3.712,1.839 -5.23,6.338 -3.392,10.05 4.74,9.568 9.183,19.439 13.204,29.338 1.525,3.754 2.98,7.541 4.401,11.341 1.321,8.407 3.188,32.693 -14.345,52.384 -7.262,8.154 -16.843,14.209 -27.706,17.511 -0.979,0.297 -1.985,0.448 -2.991,0.448 -4.475,0 -8.51,-2.995 -9.813,-7.284 -0.797,-2.623 -0.524,-5.399 0.767,-7.817 1.291,-2.418 3.447,-4.189 6.07,-4.986 5.057,-1.537 12.343,-4.783 18.344,-11.521 12.45,-13.982 9.93,-32.572 9.298,-36.156 -0.718,-4.079 -4.604,-6.806 -8.688,-6.085 -4.079,0.719 -6.804,4.608 -6.084,8.688 0.258,1.465 2.29,14.573 -5.729,23.579 -0.395,0.444 -0.805,0.852 -1.219,1.248 -11.115,-17.622 -28.569,-28.262 -47.146,-28.262 -18.553,0 -35.995,10.621 -47.118,28.215 -0.398,-0.384 -0.793,-0.775 -1.174,-1.203 -8.019,-9.005 -5.986,-22.113 -5.729,-23.579 0.72,-4.079 -2.005,-7.969 -6.084,-8.688 -4.075,-0.718 -7.969,2.005 -8.688,6.085 -0.632,3.584 -3.152,22.175 9.297,36.156 6.001,6.739 13.289,9.985 18.345,11.521 5.415,1.646 8.481,7.39 6.837,12.804 -1.304,4.289 -5.339,7.284 -9.814,7.284 -1.006,0 -2.012,-0.151 -2.989,-0.447 -0.649,-0.197 -1.293,-0.406 -1.933,-0.623 -0.046,-0.018 -0.094,-0.03 -0.14,-0.047 -10.011,-3.418 -18.839,-9.211 -25.634,-16.842 -17.777,-19.963 -15.612,-44.654 -14.292,-52.727 1.381,-3.685 2.795,-7.357 4.275,-10.999 7.026,-17.305 15.233,-34.235 24.428,-50.477 25.488,28.392 54.128,47.544 56.28,48.965 2.374,1.568 5.427,1.656 7.885,0.235 0.981,-0.567 24.312,-14.155 47.94,-37.168 7.279,-7.09 13.765,-14.304 19.455,-21.598 10.578,2.191 20.553,6.369 29.582,12.398 3.41,2.277 8.082,1.404 10.402,-2.071 2.3,-3.445 1.373,-8.102 -2.072,-10.402 -8.824,-5.894 -18.415,-10.289 -28.563,-13.101 6.76,-10.565 11.844,-21.242 15.18,-31.906 4.556,0.514 8.542,1.427 11.755,2.388 3.972,1.187 8.147,-1.068 9.335,-5.037 1.187,-3.968 -1.068,-8.147 -5.036,-9.334 -3.497,-1.046 -7.739,-2.05 -12.559,-2.702 2.025,-12.493 1.473,-24.942 -1.164,-36.804 41.122,-0.274 74.494,-33.802 74.494,-74.987 0,-41.355 -33.645,-75 -75,-75 -41.012,0 -74.422,33.093 -74.974,73.976 -20.725,-4.63 -29.426,-3.614 -45.047,0.205 C 191.287,33.204 157.831,0 116.75,0 c -41.355,0 -75,33.645 -75,75 0,33.039 21.179,61.823 52.7,71.627 3.854,1.199 8.146,-0.932 9.39,-4.934 1.229,-3.956 -0.979,-8.159 -4.935,-9.389 C 73.69,124.462 56.75,101.433 56.75,75 c 0,-33.084 26.916,-60 60,-60 34.673,0 62.406,29.746 59.836,64.412 -15.515,6.838 -26.778,16.538 -33.465,23.434 -27.626,28.487 -32.235,57.144 -28.054,82.65 -5.259,0.361 -10.506,1.159 -15.669,2.415 -4.024,0.979 -6.494,5.035 -5.516,9.06 0.979,4.024 5.028,6.498 9.061,5.516 4.256,-1.035 9.693,-1.962 15.933,-2.172 3.886,11.397 9.76,22.355 16.693,32.609 -10.818,2.779 -21.031,7.319 -30.377,13.561 -3.445,2.3 -4.372,6.958 -2.072,10.402 2.319,3.474 6.996,4.346 10.402,2.071 8.588,-5.735 18.024,-9.8 28.049,-12.082 0.096,-0.022 0.193,-0.038 0.29,-0.06 -23.117,40.586 -40.182,85.152 -49.77,130.793 -6.223,29.624 -0.178,60.031 16.587,84.882 -16.082,3.531 -28.157,17.883 -28.157,35.01 0,3.874 1.509,7.516 4.226,10.232 2.73,2.752 6.379,4.268 10.274,4.268 h 49.851 c 6.587,0 12.871,-2.624 17.513,-7.104 12.451,4.648 25.8,7.103 39.515,7.103 h 24.7 c 13.894,0 27.202,-2.525 39.494,-7.126 4.644,4.494 10.939,7.126 17.537,7.126 h 49.851 c 3.896,0 7.544,-1.516 10.252,-4.246 2.739,-2.738 4.248,-6.38 4.248,-10.254 0,-17.11 -12.052,-31.45 -28.111,-34.999 3.349,-4.955 6.307,-10.191 8.831,-15.663 44.547,-1.92 80.2,-38.747 80.2,-83.757 v -30.05 c 0,-21.422 17.428,-38.85 38.85,-38.85 12.406,0 22.5,-10.093 22.5,-22.5 0,-12.407 -10.096,-22.501 -22.502,-22.501 z m -221.388,32.555 c -4.94,3.585 -9.066,6.331 -11.869,8.126 -2.899,-2.073 -7.254,-5.284 -12.486,-9.441 -0.015,-0.239 -0.047,-0.482 -0.047,-0.719 0,-6.764 5.514,-12.266 12.291,-12.266 6.777,0 12.291,5.502 12.291,12.266 -0.001,0.677 -0.062,1.357 -0.18,2.034 z M 311.75,15 c 33.084,0 60,26.916 60,60 0,33.084 -26.916,60 -60,60 -1.396,0 -2.785,-0.05 -4.16,-0.145 -6.287,-15.997 -14.836,-26.553 -17.21,-29.303 C 278.525,91.827 264.584,83.579 251.862,78.623 249.782,44.14 277.235,15 311.75,15 Z M 135.368,201.539 c 1.7,0.315 3.424,0.687 5.174,1.142 8.683,2.255 16.867,6.023 24.326,11.2 3.369,2.338 8.057,1.544 10.438,-1.885 2.362,-3.403 1.518,-8.076 -1.885,-10.438 -8.916,-6.188 -18.709,-10.694 -29.107,-13.396 -4.572,-1.187 -9.243,-2.008 -13.959,-2.466 -4.496,-22.736 -0.925,-47.188 23.535,-72.409 20.13,-20.757 52.659,-33.954 87.711,-22.482 12.884,4.217 25.174,10.363 37.428,24.55 1.365,1.58 10.331,12.36 15.988,28.807 0.037,0.113 0.074,0.226 0.117,0.337 4.636,11.972 5.641,28.195 3.186,41.668 -4.42,0.227 -9.084,0.821 -13.942,1.949 -10.646,2.472 -20.556,7.032 -29.454,13.554 -3.341,2.449 -4.064,7.142 -1.615,10.483 2.466,3.364 7.171,4.043 10.482,1.616 7.254,-5.316 15.321,-9.031 23.979,-11.042 2.16,-0.501 4.27,-0.863 6.333,-1.13 -3.738,10.214 -9.119,19.841 -15.37,28.739 -6.663,-0.706 -13.39,-0.738 -20.105,-0.081 -4.123,0.403 -7.138,4.072 -6.735,8.194 0.403,4.122 4.063,7.14 8.194,6.734 2.423,-0.237 4.846,-0.36 7.267,-0.387 -8.892,10.185 -18.488,19.05 -27.222,26.27 -3.624,-10.814 -13.853,-18.632 -25.88,-18.632 -11.44,0 -21.253,7.073 -25.303,17.069 -7.969,-7.008 -16.674,-15.347 -24.924,-24.62 1.464,0.067 2.928,0.157 4.392,0.3 4.123,0.411 7.791,-2.612 8.194,-6.734 0.402,-4.123 -2.612,-7.791 -6.735,-8.194 -5.965,-0.583 -11.936,-0.608 -17.863,-0.116 -6.678,-9.031 -12.502,-18.655 -16.645,-28.6 z m 58.92,183.825 c 3.739,-12.309 -2.417,-25.303 -13.879,-30.409 8.38,-12.818 20.61,-20.265 33.841,-20.265 13.024,0 25.466,7.613 33.836,20.3 -11.412,5.131 -17.533,18.093 -13.801,30.374 3.177,10.458 12.502,17.548 23.351,17.89 -1.833,11.448 -6.372,21.902 -13.184,30.08 -8.254,9.909 -18.979,15.366 -30.202,15.366 -11.224,0 -21.95,-5.459 -30.205,-15.372 -6.81,-8.178 -11.348,-18.628 -13.18,-30.071 10.88,-0.312 20.239,-7.412 23.423,-17.893 z M 144.87,497 H 95.525 c 0.267,-11.267 9.515,-20.35 20.845,-20.35 h 3.617 c 7.566,8.061 16.181,14.879 25.564,20.306 -0.226,0.015 -0.45,0.044 -0.681,0.044 z m 188.105,0 H 283.63 c -0.253,0 -0.5,-0.03 -0.749,-0.048 9.529,-5.504 18.168,-12.361 25.654,-20.302 h 3.595 c 11.33,0 20.578,9.083 20.845,20.35 z M 226.6,497 h -24.7 c -61.877,-10e-4 -107.672,-56.586 -95.131,-116.309 1.87,-8.906 4.045,-17.771 6.484,-26.571 2.816,8.688 7.463,17.752 14.97,26.184 7.378,8.286 16.634,14.831 27.076,19.197 3.184,36.384 28.309,64.199 58.95,64.199 30.628,0 55.75,-27.8 58.948,-64.167 10.472,-4.366 19.754,-10.923 27.152,-19.229 7.473,-8.392 12.11,-17.411 14.93,-26.062 2.425,8.76 4.589,17.584 6.451,26.449 C 334.124,439.71 288.048,497.224 226.6,497 Z M 447.75,279.18 c -29.692,0 -53.85,24.157 -53.85,53.85 v 30.05 c 0,34.755 -25.891,63.56 -59.395,68.185 1.486,-5.15 2.604,-10.453 3.33,-15.876 23.784,-5.809 41.065,-27.318 41.065,-52.308 v -30.05 c 0,-37.964 30.886,-68.85 68.85,-68.85 4.136,0 7.5,3.364 7.5,7.5 0,4.136 -3.364,7.499 -7.5,7.499 z M 237.943,165.314 c 3.279,-1.305 6.729,-1.98 10.254,-2.009 0.078,-0.001 0.157,-0.001 0.236,-0.001 3.604,0 7.131,0.676 10.482,2.01 3.76,1.497 8.192,-0.299 9.742,-4.195 1.531,-3.848 -0.347,-8.21 -4.195,-9.742 -5.236,-2.084 -10.73,-3.099 -16.389,-3.072 -5.391,0.044 -10.664,1.077 -15.676,3.071 -3.849,1.531 -5.728,5.893 -4.196,9.742 1.533,3.849 5.897,5.727 9.742,4.196 z"
         inkscape:connector-curvature="0" />
    </g>
    <path
       style="opacity:1;fill:#000000;fill-opacity:1;stroke:none;stroke-width:0.96499997;stroke-linecap:round;stroke-linejoin:round;stroke-miterlimit:4;stroke-dasharray:none;stroke-opacity:1"
       id="path4629"
       d="m 7.7563254,253.79219 c 0.3826669,-0.0205 0.7546385,0.0394 1.1242667,0.1306 0.2764353,0.0901 0.5798,0.0624 0.8385775,0.19961 0.1749232,0.0983 0.3206054,0.2337 0.4963464,0.33114 0,0 -0.8864033,0.57553 -0.8864033,0.57553 v 0 c -0.1691778,-0.10173 -0.3176545,-0.23244 -0.4933585,-0.32318 -0.2595261,-0.10855 -0.5546283,-0.0924 -0.8207798,-0.18507 -0.3667207,-0.0871 -0.7372223,-0.12983 -1.1149555,-0.10649 0,0 0.8563065,-0.62214 0.8563065,-0.62214 z"
       inkscape:connector-curvature="0" />
    <path
       style="opacity:1;fill:#000000;fill-opacity:1;stroke:none;stroke-width:0.96499997;stroke-linecap:round;stroke-linejoin:round;stroke-miterlimit:4;stroke-dasharray:none;stroke-opacity:1"
       id="path4631"
       d="m 8.4288259,254.34885 c 0.3663849,0.10029 0.7396411,0.16921 1.1166795,0.21299 0.2928773,0.0303 0.5874996,0.0331 0.8816296,0.0346 0.04118,0.007 0.08236,0.0143 0.12354,0.0215 0,0 -0.8641023,0.60992 -0.8641023,0.60992 v 0 c -0.038122,-0.004 -0.076243,-0.008 -0.1143651,-0.0113 -0.2957311,-0.003 -0.5919483,-0.0101 -0.8857985,-0.0467 -0.3780491,-0.0508 -0.7496619,-0.1319 -1.1225429,-0.21107 0,0 0.8649597,-0.60987 0.8649597,-0.60987 z"
       inkscape:connector-curvature="0" />
    <path
       style="opacity:1;fill:#000000;fill-opacity:1;stroke:none;stroke-width:0.96499997;stroke-linecap:round;stroke-linejoin:round;stroke-miterlimit:4;stroke-dasharray:none;stroke-opacity:1"
       id="path4633"
       d="m 8.1655445,254.37085 c 0.3349504,0.12299 0.610067,0.35308 0.9330291,0.50034 0.2414434,0.0694 0.4753991,0.16343 0.722095,0.21425 0.1184513,0.0421 0.2397334,0.0741 0.3616934,0.10394 0,0 -0.8703258,0.59968 -0.8703258,0.59968 v 0 c -0.1208307,-0.0321 -0.2406049,-0.0673 -0.3610001,-0.10092 -0.2488131,-0.0613 -0.4911947,-0.14984 -0.7320584,-0.23582 -0.3128299,-0.15538 -0.5877925,-0.38271 -0.9263692,-0.48364 0,0 0.872936,-0.59783 0.872936,-0.59783 z"
       inkscape:connector-curvature="0" />
    <path
       style="opacity:1;fill:#000000;fill-opacity:1;stroke:none;stroke-width:0.96499997;stroke-linecap:round;stroke-linejoin:round;stroke-miterlimit:4;stroke-dasharray:none;stroke-opacity:1"
       id="path4635"
       d="m 29.012869,269.64283 c -0.212894,-0.31062 -0.396573,-0.63949 -0.595177,-0.9593 -0.195607,-0.23296 -0.286002,-0.51321 -0.391909,-0.79081 -0.103846,-0.21964 -0.172096,-0.45243 -0.259064,-0.67827 0,0 0.924345,-0.51485 0.924345,-0.51485 v 0 c 0.0879,0.22571 0.153075,0.45998 0.258718,0.67921 0.103039,0.27186 0.184645,0.54789 0.378455,0.77539 0.196463,0.31964 0.372459,0.65281 0.597577,0.95367 0,0 -0.912945,0.53496 -0.912945,0.53496 z"
       inkscape:connector-curvature="0" />
    <path
       style="opacity:1;fill:#000000;fill-opacity:1;stroke:none;stroke-width:0.96499997;stroke-linecap:round;stroke-linejoin:round;stroke-miterlimit:4;stroke-dasharray:none;stroke-opacity:1"
       id="path4637"
       d="m 29.425206,269.88556 c -0.142697,-0.35007 -0.329141,-0.67621 -0.530418,-0.99484 -0.133598,-0.23864 -0.234505,-0.49446 -0.300619,-0.75962 -0.02289,-0.2409 -0.142301,-0.44078 -0.269134,-0.6394 -0.07298,-0.13691 -0.03582,-0.0683 -0.111514,-0.20586 0,0 0.916942,-0.52728 0.916942,-0.52728 v 0 c 0.07617,0.13632 0.03997,0.0696 0.108852,0.19995 0.131946,0.20762 0.261279,0.41941 0.284676,0.67071 0.05968,0.25556 0.157316,0.50036 0.282067,0.73119 0.200539,0.32526 0.382188,0.65946 0.541198,1.0073 0,0 -0.92205,0.51785 -0.92205,0.51785 z"
       inkscape:connector-curvature="0" />
    <path
       style="opacity:1;fill:#000000;fill-opacity:1;stroke:none;stroke-width:0.96499997;stroke-linecap:round;stroke-linejoin:round;stroke-miterlimit:4;stroke-dasharray:none;stroke-opacity:1"
       id="path4639"
       d="m 27.767785,266.75921 c 0.03118,0.12783 0.05336,0.25753 0.09824,0.38155 0.03059,0.0813 0.07541,0.15653 0.118809,0.23154 0.03511,0.0761 0.05437,0.15932 0.07438,0.24062 0.03554,0.0793 0.07226,0.1575 0.104534,0.23854 0.04982,0.0729 0.07644,0.15704 0.116102,0.23508 0.04126,0.0802 0.113795,0.12374 0.179647,0.17979 0.05528,0.0613 0.107717,0.12456 0.161158,0.18738 0.06968,0.0562 0.118816,0.12066 0.149561,0.20454 0.02455,0.0852 0.02257,0.17395 0.04087,0.26031 0.0062,0.078 0.03579,0.13543 0.08171,0.19633 0.05,0.0699 0.108511,0.12875 0.146063,0.20706 0.03272,0.0745 0.05275,0.15336 0.08015,0.22958 0.02961,0.0716 0.04011,0.14824 0.06343,0.22178 0.01744,0.0407 0.03809,0.0744 0.07285,0.10176 0,0 -0.318072,0.19825 -0.318072,0.19825 v 0 c -0.03726,-0.0343 -0.06327,-0.0729 -0.08298,-0.11982 -0.02341,-0.0731 -0.03431,-0.14886 -0.06267,-0.22043 -0.02768,-0.0749 -0.0459,-0.15328 -0.07799,-0.2268 -0.03575,-0.0762 -0.09524,-0.13164 -0.142679,-0.20018 -0.04896,-0.0646 -0.08295,-0.12792 -0.08951,-0.21061 -0.01865,-0.085 -0.01847,-0.17139 -0.03834,-0.25615 -0.02793,-0.0808 -0.07854,-0.13736 -0.142885,-0.19264 -0.0524,-0.061 -0.102709,-0.12346 -0.1577,-0.18215 -0.0708,-0.0579 -0.142965,-0.10921 -0.186923,-0.19286 -0.04092,-0.0787 -0.06782,-0.16388 -0.11793,-0.238 -0.03357,-0.0824 -0.0701,-0.16262 -0.107191,-0.24323 -0.01871,-0.078 -0.03838,-0.15727 -0.06988,-0.23096 -0.04424,-0.0771 -0.08933,-0.15477 -0.120232,-0.23829 -0.04498,-0.1248 -0.06652,-0.25517 -0.10097,-0.38295 0,0 0.328443,-0.17904 0.328443,-0.17904 z"
       inkscape:connector-curvature="0" />
    <path
       style="opacity:1;fill:#000000;fill-opacity:1;stroke:none;stroke-width:0.96499997;stroke-linecap:round;stroke-linejoin:round;stroke-miterlimit:4;stroke-dasharray:none;stroke-opacity:1"
       id="path4641"
       d="m 28.626702,266.37054 c 0.06711,0.10729 0.137147,0.21014 0.180999,0.32963 0.0288,0.0832 0.07349,0.16082 0.132622,0.22607 0.04108,0.0567 0.08272,0.11297 0.124529,0.16926 0.02665,0.012 0.09591,0.15328 0.08156,0.0857 -0.464923,0.27735 -0.234891,0.2017 -0.344463,-0.006 -0.06373,-0.0772 -0.09298,-0.17379 -0.144058,-0.25813 -0.04801,-0.0738 -0.106916,-0.13741 -0.154189,-0.21217 -0.05146,-0.083 -0.0694,-0.17737 -0.07977,-0.27285 -0.02011,-0.18571 0.07968,-0.14589 0.346678,-0.24147 0.0058,-0.002 0.01201,0.0339 0.01834,0.0653 0.0058,0.0773 0.01516,0.15463 0.04146,0.22798 0.02838,0.0589 0.05577,0.12518 0.103312,0.17142 0.05423,0.0576 0.08648,0.1328 0.123262,0.20233 0.03024,0.0802 0.06294,0.15769 0.105862,0.23192 0.02942,0.0814 0.09003,0.14235 0.136647,0.21314 0.0068,0.0134 0.01347,0.0268 0.02029,0.0401 0.0029,0.006 0.01556,0.034 0.02471,0.0415 0.0016,10e-4 -4.5e-5,-0.007 -0.0021,-0.006 -0.35087,0.18133 -0.240462,0.26579 -0.358416,0.1631 -0.0713,-0.0504 -0.0955,-0.12908 -0.127687,-0.20526 -0.0265,-0.0734 -0.05135,-0.14743 -0.07525,-0.22181 -0.02429,-0.0842 -0.02816,-0.17213 -0.03121,-0.25917 -0.0021,-0.0942 -0.0019,-0.18838 -0.0016,-0.28257 2.09e-4,-0.0946 2.65e-4,-0.18921 2.65e-4,-0.28382 -0.0089,-0.0641 -0.01841,-0.12914 -0.03755,-0.19106 0,0 0.328189,-0.1802 0.328189,-0.1802 v 0 c 0.02141,0.0653 0.03037,0.13414 0.04215,0.20172 -5.2e-5,0.0946 -1.45e-4,0.18924 -2.64e-4,0.28386 -1.8e-4,0.0938 -7.94e-4,0.18759 0.0011,0.28137 0.0024,0.0837 0.005,0.16839 0.02704,0.24975 0.02296,0.0735 0.04844,0.1461 0.07338,0.21885 0.03044,0.0718 0.05091,0.14449 0.120062,0.19039 0.114512,0.10318 0.03892,0.0215 -0.277521,0.24001 -0.0028,0.002 -0.0469,-0.0877 -0.04842,-0.0916 -0.04705,-0.0712 -0.108308,-0.13301 -0.138277,-0.2148 -0.04291,-0.0748 -0.07623,-0.15251 -0.105743,-0.23348 -0.03537,-0.0663 -0.06704,-0.13775 -0.118973,-0.19264 -0.04865,-0.0527 -0.08111,-0.12047 -0.110889,-0.18511 -0.02797,-0.0747 -0.0404,-0.15398 -0.04484,-0.23337 -0.02797,-0.16964 -0.0728,-0.0133 0.311185,-0.23721 0.0035,-0.002 -0.0083,0.003 -0.01029,0.006 -0.0039,0.007 -0.0058,0.0145 -0.0063,0.0222 -7.93e-4,0.0118 0.0016,0.0237 0.0024,0.0356 0.0084,0.09 0.02273,0.17937 0.07147,0.25756 0.04778,0.0746 0.1079,0.13803 0.154498,0.21311 0.05081,0.0853 0.08091,0.1819 0.14528,0.25952 0.132213,0.24292 -0.0053,0.2428 -0.275867,0.42578 -0.04636,-0.034 -0.06449,-0.0903 -0.107882,-0.12825 -0.04155,-0.0553 -0.08161,-0.11141 -0.122682,-0.16689 -0.06032,-0.0704 -0.108145,-0.15115 -0.138199,-0.23913 -0.04098,-0.1174 -0.10899,-0.21817 -0.177718,-0.32102 0,0 0.322775,-0.18913 0.322775,-0.18913 z"
       inkscape:connector-curvature="0" />
    <path
       style="opacity:1;fill:#000000;fill-opacity:1;stroke:none;stroke-width:0.96499997;stroke-linecap:round;stroke-linejoin:round;stroke-miterlimit:4;stroke-dasharray:none;stroke-opacity:1"
       id="path4643"
       d="m 27.689206,267.67585 c 0.10477,0.0777 0.189752,0.17593 0.2681,0.27926 0.05051,0.0845 0.135874,0.13552 0.199869,0.2075 0.03986,0.0667 0.07115,0.13758 0.110691,0.20472 0.03958,0.0688 0.03921,0.14939 0.07073,0.22097 0.04102,0.0701 0.07852,0.14002 0.110312,0.2151 0.04697,0.0746 0.09443,0.14704 0.125204,0.23001 0.01169,0.0785 0.05727,0.13414 0.105661,0.19285 0.06476,0.0494 0.110527,0.11595 0.161745,0.17793 0.06699,0.0572 0.131181,0.11771 0.193096,0.18038 0.04878,0.0591 0.09231,0.12287 0.145674,0.178 0.04828,0.0607 0.115782,0.10012 0.166733,0.1576 0.04397,0.0407 0.07413,0.0934 0.104907,0.14429 0,0 -0.32408,0.18803 -0.32408,0.18803 v 0 c -0.02967,-0.0489 -0.05881,-0.099 -0.101097,-0.1382 -0.05196,-0.0557 -0.117999,-0.0971 -0.166503,-0.15691 -0.0517,-0.0562 -0.09604,-0.11851 -0.144351,-0.1776 -0.06327,-0.0631 -0.129037,-0.12339 -0.195085,-0.18343 -0.05073,-0.0626 -0.0995,-0.12592 -0.162378,-0.17733 -0.05092,-0.0614 -0.09872,-0.12276 -0.111172,-0.20444 -0.0295,-0.0828 -0.07888,-0.15336 -0.124368,-0.22807 -0.03233,-0.0745 -0.06885,-0.14462 -0.110212,-0.21437 -0.0324,-0.0705 -0.03361,-0.14792 -0.06911,-0.21723 -0.03822,-0.065 -0.06874,-0.1335 -0.10622,-0.19862 -0.06542,-0.0717 -0.150135,-0.12527 -0.200562,-0.21087 -0.07545,-0.10075 -0.156967,-0.19724 -0.262641,-0.26784 0,0 0.315057,-0.20173 0.315057,-0.20173 z"
       inkscape:connector-curvature="0" />
    <path
       style="opacity:1;fill:#6c5d53;fill-opacity:1;stroke:none;stroke-width:1.84213638;stroke-linecap:round;stroke-linejoin:round;stroke-miterlimit:4;stroke-dasharray:none;stroke-opacity:1"
       d="m 117.4302,163.1112 c -1.48418,-3.6087 -5.42954,-9.28375 -8.68675,-12.49512 -3.32522,-3.27841 -6.49909,-5.50574 -11.246424,-7.89239 l -3.202777,-1.61015 0.349933,-3.12621 c 0.705701,-6.30454 2.995735,-11.2487 7.249458,-15.65149 7.87787,-8.15394 19.57405,-10.1046 29.74209,-4.96031 15.59532,7.8901 18.60664,29.04241 5.83538,40.9893 -4.89921,4.58296 -10.70246,7.05586 -16.5481,7.05151 l -2.54554,-0.002 z"
       id="path4645"
       inkscape:connector-curvature="0"
       transform="matrix(0.26458333,0,0,0.26458333,0,210.00002)" />
    <path
       style="opacity:1;fill:#6c5d53;fill-opacity:1;stroke:none;stroke-width:1.84213638;stroke-linecap:round;stroke-linejoin:round;stroke-miterlimit:4;stroke-dasharray:none;stroke-opacity:1"
       d="m 88.640419,222.12153 c -0.930556,-1.78166 -3.106437,-3.80297 -5.365748,-4.98456 -2.555498,-1.33651 -7.701154,-1.254 -10.401884,0.16678 -1.992344,1.04812 -4.867123,3.85549 -5.39185,5.26543 -0.163559,0.43949 -1.976035,-1.01818 -5.120305,-4.11793 l -4.867125,-4.79823 1.523253,-0.31438 c 2.213137,-0.45676 3.044708,-1.35342 3.044708,-3.28299 0,-2.94799 -1.320728,-3.72623 -6.323642,-3.72623 h -4.303337 l -2.196191,-3.40927 c -2.586128,-4.01458 -4.513402,-7.70679 -4.191072,-8.02912 0.443016,-0.44302 6.694377,1.9293 9.600566,3.6433 1.617213,0.95379 3.570725,1.73417 4.341137,1.73417 1.92963,0 3.182579,-1.51883 2.981794,-3.61456 -0.135726,-1.41666 -0.609355,-1.98299 -2.939713,-3.51508 -3.480018,-2.28793 -8.797314,-4.40959 -12.821368,-5.11586 -1.698694,-0.29814 -3.37264,-0.89029 -3.71988,-1.31589 -0.898551,-1.10132 -0.810342,-9.76892 0.137189,-13.48034 2.482395,-9.72341 10.722709,-19.37962 20.696487,-24.25267 10.331201,-5.04768 21.137059,-4.93395 31.886534,0.33559 11.353638,5.56572 19.394698,18.83692 19.372538,31.97297 -0.009,5.19842 -0.31678,6.3565 -1.69352,6.3677 -4.53049,0.0369 -14.930024,4.08215 -17.484443,6.8012 -1.373484,1.46201 -1.475373,3.46446 -0.245436,4.82353 1.317784,1.45613 3.273303,1.22099 6.615919,-0.79553 2.73522,-1.6501 9.56764,-4.15153 10.04249,-3.67668 0.29866,0.29866 -2.03673,5.1874 -4.10283,8.58857 l -1.78473,2.93797 h -4.64927 c -5.705796,0 -6.894341,0.6095 -6.894341,3.53553 0,2.35606 1.339821,3.53553 4.016195,3.53553 h 1.771116 l -4.535151,4.58019 c -5.692331,5.74884 -6.048249,5.95944 -6.99809,4.14086 z M 64.334311,178.48946 c 6.92491,0.40239 6.976677,0.39582 7.756182,-0.98439 1.043709,-1.84802 0.406031,-3.8057 -1.576315,-4.83932 -2.118628,-1.10468 -8.701546,-1.49788 -11.84604,-0.70756 -3.034589,0.76269 -4.182814,1.78561 -4.182814,3.72635 0,0.8379 0.397747,1.96347 0.883883,2.50128 0.769733,0.85154 1.242642,0.92482 3.661803,0.56736 1.527856,-0.22575 3.914341,-0.34442 5.303301,-0.26372 z m 29.294424,0.0214 c 7.138415,0.35431 6.976145,0.37535 7.756185,-1.00579 1.88473,-3.33715 -0.85231,-5.57075 -7.251109,-5.91734 -8.103035,-0.43891 -12.328164,2.40408 -9.523583,6.40817 0.769895,1.09919 1.037026,1.15664 3.661803,0.78765 1.557227,-0.21892 3.967744,-0.34163 5.356704,-0.27269 z"
       id="path4647"
       inkscape:connector-curvature="0"
       transform="matrix(0.26458333,0,0,0.26458333,0,210.00002)" />
    <path
       style="opacity:1;fill:#6c5d53;fill-opacity:1;stroke:none;stroke-width:1.84213638;stroke-linecap:round;stroke-linejoin:round;stroke-miterlimit:4;stroke-dasharray:none;stroke-opacity:1"
       d="m 32.982575,165.69704 c -4.733205,-0.9427 -11.386091,-4.40025 -14.544947,-7.55911 -5.067252,-5.06725 -7.413729,-10.74376 -7.429646,-17.97351 -0.02809,-12.75781 8.868694,-23.18086 21.632793,-25.34395 11.314375,-1.91741 23.888322,5.66656 27.690084,16.70125 0.945857,2.74537 1.760014,8.09714 1.431144,9.40746 -0.165655,0.66004 -1.201814,1.53666 -2.638314,2.2321 -7.705439,3.73037 -16.962388,13.27347 -20.498707,21.13235 -1.049743,2.33289 -1.01678,2.32468 -5.642407,1.40341 z"
       id="path4649"
       inkscape:connector-curvature="0"
       transform="matrix(0.26458333,0,0,0.26458333,0,210.00002)" />
    <path
       style="opacity:1;fill:#6c5d53;fill-opacity:1;stroke:none;stroke-width:1.84213638;stroke-linecap:round;stroke-linejoin:round;stroke-miterlimit:4;stroke-dasharray:none;stroke-opacity:1"
       d="m 75.739187,230.05254 c -1.411323,-1.11558 -2.566041,-2.26162 -2.566041,-2.54675 0,-1.01518 1.541491,-3.47722 2.497404,-3.98881 2.542583,-1.36075 6.005471,-0.12971 7.105486,2.52596 0.813585,1.96417 0.48759,2.62648 -2.204435,4.47864 l -2.266372,1.5593 z"
       id="path4651"
       inkscape:connector-curvature="0"
       transform="matrix(0.26458333,0,0,0.26458333,0,210.00002)" />
    <path
       style="opacity:1;fill:#6c5d53;fill-opacity:1;stroke:none;stroke-width:1.84213638;stroke-linecap:round;stroke-linejoin:round;stroke-miterlimit:4;stroke-dasharray:none;stroke-opacity:1"
       d="m 55.946067,273.32559 c -4.206338,-1.73033 -6.135449,-3.0679 -9.202497,-6.38068 -4.571167,-4.93741 -6.905458,-11.05799 -6.905458,-18.10631 0,-3.10326 0.310388,-4.5359 1.80992,-8.35392 1.604878,-4.08624 9.083674,-19.8013 10.171755,-21.37372 0.28679,-0.41445 2.0079,0.93842 5.504694,4.32695 5.855258,5.67398 15.614201,13.65148 18.752853,15.32963 l 2.146574,1.14771 2.384128,-1.26182 c 3.793779,-2.0079 13.838816,-9.72707 18.792922,-14.44155 2.500672,-2.37971 4.785322,-4.17926 5.076982,-3.999 0.29168,0.18026 0.87865,1.16142 1.30438,2.18035 0.42574,1.01893 1.20284,2.31028 1.72689,2.86965 1.07964,1.15243 4.17267,7.6808 7.18215,15.15918 1.9964,4.96095 2.02769,5.1361 1.75939,9.84899 -0.45,7.90434 -2.90625,13.27566 -8.34975,18.25922 -3.20847,2.93737 -8.551287,5.6814 -11.062086,5.6814 -2.229266,0 -3.864748,-1.66381 -3.864748,-3.93168 0,-2.29393 0.791636,-3.14068 4.514336,-4.82863 4.079488,-1.84973 6.947818,-4.5017 8.664908,-8.01132 1.15463,-2.35999 1.42383,-3.67091 1.58675,-7.72702 0.17844,-4.44273 0.0997,-4.9814 -0.87043,-5.95149 -1.34155,-1.34155 -3.66264,-1.37368 -4.84511,-0.0671 -0.68574,0.75773 -0.92667,1.95374 -0.99585,4.94353 -0.0713,3.08044 -0.34935,4.40318 -1.270016,6.04128 l -1.178752,2.0973 -3.50432,-3.75239 c -8.739627,-9.35831 -20.365342,-10.71605 -30.406159,-3.55107 -1.73808,1.24027 -4.033655,3.40045 -5.101275,4.80041 l -1.941129,2.54537 -0.918123,-1.37989 c -1.320937,-1.9853 -1.959162,-4.71286 -1.85422,-7.92433 0.06817,-2.08625 -0.141495,-3.05768 -0.822331,-3.81 -1.043905,-1.1535 -3.170963,-1.31959 -4.495548,-0.35103 -2.164988,1.58308 -1.942803,9.38472 0.403869,14.18115 1.698773,3.47216 4.035369,5.63223 8.474573,7.83433 4.32755,2.14671 5.451216,3.71314 4.430785,6.17668 -0.547947,1.32286 -2.727225,2.99065 -3.863763,2.95691 -0.222139,-0.007 -1.678471,-0.5363 -3.236294,-1.17713 z"
       id="path4653"
       inkscape:connector-curvature="0"
       transform="matrix(0.26458333,0,0,0.26458333,0,210.00002)" />
    <path
       style="opacity:1;fill:#6c5d53;fill-opacity:1;stroke:none;stroke-width:1.84213638;stroke-linecap:round;stroke-linejoin:round;stroke-miterlimit:4;stroke-dasharray:none;stroke-opacity:1"
       d="m 66.859692,320.64698 c -10.932028,-1.7005 -21.433914,-8.16176 -27.778071,-17.09038 -7.287114,-10.25573 -9.276378,-21.7677 -6.109387,-35.35534 0.77697,-3.33351 1.540204,-6.26952 1.696077,-6.52447 0.155873,-0.25495 0.783031,0.65418 1.393685,2.02031 2.517927,5.63297 6.916707,10.31652 13.372565,14.23828 3.122017,1.89654 3.29947,2.1089 3.618966,4.33083 0.905062,6.29425 4.392263,13.33559 8.774875,17.71821 12.259319,12.25931 30.832036,8.1533 38.672608,-8.54965 1.54658,-3.29472 2.97671,-8.27525 2.97671,-10.36664 0,-1.02342 0.4206,-1.51551 1.89404,-2.21595 2.84245,-1.35125 7.83204,-5.03919 9.70714,-7.17482 2.22437,-2.53341 4.76616,-6.57895 5.60711,-8.92434 0.64722,-1.80507 0.71025,-1.8477 1.12007,-0.75761 1.58941,4.22775 2.99815,12.63165 2.98758,17.8226 -0.0371,18.24456 -12.21559,34.28706 -30.154773,39.72248 -3.07448,0.93154 -5.017498,1.0889 -14.89975,1.20671 -6.250319,0.0745 -12.046069,0.0294 -12.879445,-0.10022 z"
       id="path4655"
       inkscape:connector-curvature="0"
       transform="matrix(0.26458333,0,0,0.26458333,0,210.00002)" />
    <path
       style="opacity:1;fill:#6c5d53;fill-opacity:1;stroke:none;stroke-width:1.84213638;stroke-linecap:round;stroke-linejoin:round;stroke-miterlimit:4;stroke-dasharray:none;stroke-opacity:1"
       d="m 130.26816,292.35878 c 0.0118,-0.23042 0.3036,-1.627 0.64851,-3.10352 0.61279,-2.62331 0.69206,-2.71098 3.47334,-3.84138 5.81303,-2.36259 9.82427,-6.25435 12.67379,-12.29628 l 1.60405,-3.40111 0.31315,-11.8693 c 0.29255,-11.08911 0.40229,-12.13488 1.66942,-15.9099 3.29589,-9.819 10.87573,-16.91745 20.7657,-19.44688 6.9168,-1.76902 9.84335,-1.12708 9.84335,2.15915 0,1.68514 -1.68966,2.89306 -4.04688,2.89306 -2.67772,0 -7.51684,1.38896 -10.09526,2.89762 -3.47107,2.03096 -7.27776,5.89798 -9.01559,9.15848 -2.51296,4.71481 -3.09035,8.21289 -3.09877,18.7737 -0.008,10.41666 -0.47,13.12239 -3.17766,18.62242 -2.92532,5.94218 -9.41606,11.77662 -15.69652,14.1094 -3.34496,1.24244 -5.88781,1.78677 -5.86063,1.25454 z"
       id="path4657"
       inkscape:connector-curvature="0"
       transform="matrix(0.26458333,0,0,0.26458333,0,210.00002)" />
    <path
       style="opacity:1;fill:#6c5d53;fill-opacity:1;stroke:none;stroke-width:1.84213638;stroke-linecap:round;stroke-linejoin:round;stroke-miterlimit:4;stroke-dasharray:none;stroke-opacity:1"
       d="m 109.03356,320.79631 c 0,-0.10198 0.96596,-0.81831 2.14657,-1.59184 1.18062,-0.77352 3.46069,-2.5371 5.06682,-3.91906 2.75248,-2.36831 3.04969,-2.49806 5.1738,-2.25865 3.62693,0.40881 7.31079,3.89562 7.31079,6.91973 0,1.00821 -0.25718,1.03524 -9.84899,1.03524 -5.41694,0 -9.84899,-0.0834 -9.84899,-0.18542 z"
       id="path4659"
       inkscape:connector-curvature="0"
       transform="matrix(0.26458333,0,0,0.26458333,0,210.00002)" />
    <path
       style="opacity:1;fill:#6c5d53;fill-opacity:1;stroke:none;stroke-width:1.84213638;stroke-linecap:round;stroke-linejoin:round;stroke-miterlimit:4;stroke-dasharray:none;stroke-opacity:1"
       d="m 27.716281,319.79373 c 0,-1.43709 1.783149,-4.16486 3.604105,-5.51336 0.732194,-0.54222 2.372784,-1.10326 3.645755,-1.24674 2.198619,-0.24782 2.460692,-0.13516 5.23473,2.25014 1.60613,1.38106 3.920296,3.22808 5.142591,4.10449 l 2.222356,1.59347 h -9.924769 -9.924768 z"
       id="path4661"
       inkscape:connector-curvature="0"
       transform="matrix(0.26458333,0,0,0.26458333,0,210.00002)" />
    <path
       style="opacity:1;fill:#ac9d93;fill-opacity:1;stroke:none;stroke-width:1.84213638;stroke-linecap:round;stroke-linejoin:round;stroke-miterlimit:4;stroke-dasharray:none;stroke-opacity:1"
       d="m 73.841955,299.57708 c -4.110881,-1.34491 -7.75767,-4.39568 -10.440215,-8.73391 -1.279881,-2.06983 -3.360577,-7.57045 -3.360577,-8.88416 0,-0.36784 1.009977,-0.93892 2.244394,-1.26908 6.638266,-1.77547 9.86263,-9.67736 6.482785,-15.88725 -0.755891,-1.38882 -2.145668,-3.04925 -3.088395,-3.68985 l -1.714048,-1.16473 2.394148,-2.55954 c 3.478321,-3.7186 7.095618,-5.34974 11.863861,-5.34974 4.732621,0 7.680589,1.32055 11.541422,5.17003 l 2.702587,2.69464 -2.004215,1.45185 c -2.664236,1.92996 -4.158573,5.08973 -4.158573,8.79327 0,4.99259 3.223471,9.302 7.891942,10.55063 2.252376,0.60242 2.275505,0.63055 1.964828,2.38957 -1.023185,5.79314 -6.485467,13.19686 -11.53072,15.62905 -2.981137,1.43713 -7.840012,1.82408 -10.789224,0.85922 z"
       id="path4663"
       inkscape:connector-curvature="0"
       transform="matrix(0.26458333,0,0,0.26458333,0,210.00002)" />
    <path
       style="opacity:1;fill:#ac9d93;fill-opacity:1;stroke:none;stroke-width:1.84213638;stroke-linecap:round;stroke-linejoin:round;stroke-miterlimit:4;stroke-dasharray:none;stroke-opacity:1"
       d="m 75.78944,229.7761 c -2.28905,-1.95934 -2.550193,-2.89722 -1.302635,-4.67836 2.32847,-3.32436 8.28279,-1.69805 8.28279,2.26228 0,1.05105 -3.305842,4.22321 -4.401187,4.22321 -0.257262,0 -1.417798,-0.81321 -2.578968,-1.80713 z"
       id="path4665"
       inkscape:connector-curvature="0"
       transform="matrix(0.26458333,0,0,0.26458333,0,210.00002)" />
  </g>
</svg>
