<?xml version="1.0" encoding="UTF-8" standalone="no"?>
<!-- Created with Inkscape (http://www.inkscape.org/) -->

<svg
   xmlns:dc="http://purl.org/dc/elements/1.1/"
   xmlns:cc="http://creativecommons.org/ns#"
   xmlns:rdf="http://www.w3.org/1999/02/22-rdf-syntax-ns#"
   xmlns:svg="http://www.w3.org/2000/svg"
   xmlns="http://www.w3.org/2000/svg"
   xmlns:sodipodi="http://sodipodi.sourceforge.net/DTD/sodipodi-0.dtd"
   xmlns:inkscape="http://www.inkscape.org/namespaces/inkscape"
   width="5cm"
   height="8.6999998cm"
   viewBox="0 0 50 86.999996"
   version="1.1"
   id="svg8"
   inkscape:version="0.92.4 (5da689c313, 2019-01-14)"
   sodipodi:docname="sofa.svg">
  <defs
     id="defs2" />
  <sodipodi:namedview
     id="base"
     pagecolor="#ffffff"
     bordercolor="#666666"
     borderopacity="1.0"
     inkscape:pageopacity="0.0"
     inkscape:pageshadow="2"
     inkscape:zoom="1.979899"
     inkscape:cx="213.78638"
     inkscape:cy="151.58187"
     inkscape:document-units="mm"
     inkscape:current-layer="layer1"
     showgrid="false"
     inkscape:pagecheckerboard="true"
     units="cm"
     fit-margin-top="0"
     fit-margin-left="0"
     fit-margin-right="0"
     fit-margin-bottom="0"
     inkscape:window-width="1920"
     inkscape:window-height="986"
     inkscape:window-x="-11"
     inkscape:window-y="-11"
     inkscape:window-maximized="1" />
  <metadata
     id="metadata5">
    <rdf:RDF>
      <cc:Work
         rdf:about="">
        <dc:format>image/svg+xml</dc:format>
        <dc:type
           rdf:resource="http://purl.org/dc/dcmitype/StillImage" />
        <dc:title></dc:title>
      </cc:Work>
    </rdf:RDF>
  </metadata>
  <g
     inkscape:label="Capa 1"
     inkscape:groupmode="layer"
     id="layer1"
     transform="translate(0,-210.00002)"><g
   id="g4628"
   transform="matrix(0.20947998,0,0,0.20947998,8.8908204,240.81071)" />
<g
   id="g4630"
   transform="matrix(0.20947998,0,0,0.20947998,8.8908204,240.81071)" />
<g
   id="g4632"
   transform="matrix(0.20947998,0,0,0.20947998,8.8908204,240.81071)" />
<g
   id="g4634"
   transform="matrix(0.20947998,0,0,0.20947998,8.8908204,240.81071)" />
<g
   id="g4636"
   transform="matrix(0.20947998,0,0,0.20947998,8.8908204,240.81071)" />
<g
   id="g4638"
   transform="matrix(0.20947998,0,0,0.20947998,8.8908204,240.81071)" />
<g
   id="g4640"
   transform="matrix(0.20947998,0,0,0.20947998,8.8908204,240.81071)" />
<g
   id="g4642"
   transform="matrix(0.20947998,0,0,0.20947998,8.8908204,240.81071)" />
<g
   id="g4644"
   transform="matrix(0.20947998,0,0,0.20947998,8.8908204,240.81071)" />
<g
   id="g4646"
   transform="matrix(0.20947998,0,0,0.20947998,8.8908204,240.81071)" />
<g
   id="g4648"
   transform="matrix(0.20947998,0,0,0.20947998,8.8908204,240.81071)" />
<g
   id="g4650"
   transform="matrix(0.20947998,0,0,0.20947998,8.8908204,240.81071)" />
<g
   id="g4652"
   transform="matrix(0.20947998,0,0,0.20947998,8.8908204,240.81071)" />
<g
   id="g4654"
   transform="matrix(0.20947998,0,0,0.20947998,8.8908204,240.81071)" />
<g
   id="g4656"
   transform="matrix(0.20947998,0,0,0.20947998,8.8908204,240.81071)" />
<path
   style="opacity:0.73000004;fill:#00b000;fill-opacity:0;stroke:none;stroke-width:2.03303146;stroke-linecap:round;stroke-linejoin:round;stroke-miterlimit:4;stroke-dasharray:none;stroke-opacity:1"
   d="M 24.325222,319.80868 C 17.066537,317.5278 11.509842,311.21911 10.064241,303.61774 9.6390343,301.38188 9.5270087,264.49903 9.6369978,162.954 L 9.7860763,25.320713 10.9189,22.542794 c 2.310358,-5.665476 6.536692,-9.750628 12.635954,-12.213849 L 26.453593,9.1582727 91.860971,9.0123866 c 42.645419,-0.095117 66.901399,0.035037 69.700529,0.374004 10.0464,1.2165954 17.31368,8.1296824 18.71202,17.8000534 0.65559,4.533771 0.60935,270.858146 -0.0478,275.405466 -1.02453,7.08934 -5.26974,12.9923 -11.55594,16.06856 l -3.32018,1.62479 -69.447989,0.0961 c -56.431667,0.0781 -69.846899,-0.0292 -71.576359,-0.57268 z M 86.486358,278.4902 c 1.072085,-0.97647 55.339962,-92.8099 58.341262,-98.72652 3.38408,-6.67121 3.37065,-14.93098 -0.0365,-22.45378 l -1.52688,-3.37125 2.61866,-4.53734 c 1.84327,-3.19385 3.03908,-4.7115 4.03852,-5.12548 0.78093,-0.32347 2.05708,-1.25323 2.8359,-2.06614 1.15735,-1.20802 1.45698,-2.04414 1.64019,-4.57705 0.21375,-2.95511 0.64335,-3.81075 9.24991,-18.42355 9.25449,-15.71289 9.97787,-17.39984 8.14186,-18.98699 -2.06551,-1.785565 -16.05077,-9.620278 -17.17254,-9.620278 -0.67466,0 -1.59064,0.363973 -2.0355,0.808834 -0.44486,0.444856 -7.325,11.890124 -15.2892,25.433924 l -14.48038,24.62509 -4.50221,0.60308 c -4.85501,0.65033 -8.77494,1.97847 -11.6943,3.96223 -1.01055,0.68668 -1.99064,1.08101 -2.17798,0.87628 -0.18733,-0.20473 -1.31894,-2.61357 -2.51469,-5.35297 -1.19575,-2.7394 -2.585057,-5.23738 -3.087351,-5.55106 -0.502268,-0.31369 -0.913233,-0.82877 -0.913233,-1.14461 0,-0.31586 -0.340927,-0.85723 -0.757615,-1.20305 -0.852422,-0.70744 -0.967231,-1.91715 -0.284368,-2.99625 0.377873,-0.59713 1.220709,-0.34886 4.828337,1.42225 4.16321,2.04388 4.42866,2.10759 5.5954,1.34312 2.89162,-1.89466 0.46059,-4.98667 -5.74544,-7.30757 l -2.967836,-1.1099 2.191146,-4.3659 c 1.20512,-2.40123 2.19114,-4.63596 2.19114,-4.96604 0,-0.44427 0.55326,-0.47584 2.13007,-0.12156 2.87599,0.6462 4.34502,0.20459 4.75514,-1.42945 0.47365,-1.88717 -0.32771,-2.84186 -3.02488,-3.60364 l -2.3451,-0.66236 -0.0758,-5.0214 c -0.0417,-2.76178 -0.0985,-5.304552 -0.12627,-5.650625 -0.0316,-0.393889 0.98844,-0.76109 2.72741,-0.981808 5.70472,-0.724087 10.50876,-3.264959 14.43987,-7.637299 8.88749,-9.885024 8.26811,-24.988951 -1.39147,-33.932019 -9.72512,-9.003747 -24.06315,-8.789391 -33.538063,0.5014 -3.597688,3.527776 -5.895816,7.895064 -6.832682,12.984617 l -0.623683,3.388167 -2.315699,-0.33288 c -3.158201,-0.453993 -5.877961,-0.454367 -8.895772,-0.001 l -2.539463,0.381322 -0.549432,-3.41178 C 63.962876,65.156226 61.898932,61.225692 58.045261,57.34827 48.403812,47.647391 33.660243,47.557706 23.892547,57.140519 14.34103,66.511244 14.264299,81.90208 23.721945,91.360128 c 2.832709,2.832826 9.092665,6.439031 11.177427,6.439031 0.493973,0 0.898132,0.212546 0.898132,0.472322 0,0.259776 0.910455,1.112092 2.023232,1.894039 l 2.023233,1.42171 -0.129197,4.03568 -0.129196,4.03568 -2.513506,0.35823 c -3.495334,0.49816 -4.925065,2.74751 -2.981652,4.69092 0.663135,0.66313 1.453234,0.75738 4.166879,0.49703 l 3.348584,-0.32126 0.979305,2.44324 c 0.538618,1.34377 1.618218,3.53283 2.399113,4.86457 1.624762,2.77087 1.654126,2.88196 0.761745,2.88196 -0.361935,0 -2.504443,0.89289 -4.76113,1.98419 -4.460461,2.15703 -5.626611,3.46865 -4.765085,5.3595 0.896519,1.96764 2.179711,1.91552 6.436526,-0.26144 5.825794,-2.97934 6.04204,-2.83581 3.398744,2.25589 -5.195114,10.00719 -10.157166,23.45966 -12.577479,34.09842 -1.422228,6.25156 -1.601267,13.70575 -0.446813,18.60278 0.587895,2.49377 2.849098,7.96293 4.656525,11.26271 0.09596,0.17519 -0.409367,0.46506 -1.122949,0.64416 -1.878666,0.47152 -5.322554,3.76333 -6.390569,6.10838 -1.360395,2.98702 -1.24343,6.56331 0.263958,8.0707 1.663992,1.664 3.438565,1.89113 13.247727,1.69566 7.499188,-0.14943 8.739379,-0.29469 10.289089,-1.20507 1.731327,-1.01708 1.818601,-1.01949 4.996718,-0.13822 1.779037,0.49331 3.34346,1.00578 3.476492,1.13881 0.133037,0.13304 -4.579722,8.43295 -10.472794,18.44427 -5.893072,10.01131 -10.825177,18.62494 -10.960233,19.14139 -0.14356,0.54898 0.242894,1.47502 0.930392,2.22947 0.912333,1.00117 34.766929,21.28016 40.824435,24.45394 1.73825,0.91074 2.276884,0.84283 3.71676,-0.46862 z"
   id="path4778"
   inkscape:connector-curvature="0"
   transform="matrix(0.26458333,0,0,0.26458333,0,210.00002)" />
<path
   style="opacity:0.73000004;fill:#00b000;fill-opacity:0;stroke:none;stroke-width:2.03303146;stroke-linecap:round;stroke-linejoin:round;stroke-miterlimit:4;stroke-dasharray:none;stroke-opacity:1"
   d="M 24.325222,319.80868 C 17.066537,317.5278 11.509842,311.21911 10.064241,303.61774 9.6390343,301.38188 9.5270087,264.49903 9.6369978,162.954 L 9.7860763,25.320713 10.9189,22.542794 c 2.310358,-5.665476 6.536692,-9.750628 12.635954,-12.213849 L 26.453593,9.1582727 91.860971,9.0123866 c 42.645419,-0.095117 66.901399,0.035037 69.700529,0.374004 10.0464,1.2165954 17.31368,8.1296824 18.71202,17.8000534 0.65559,4.533771 0.60935,270.858146 -0.0478,275.405466 -1.02453,7.08934 -5.26974,12.9923 -11.55594,16.06856 l -3.32018,1.62479 -69.447989,0.0961 c -56.431667,0.0781 -69.846899,-0.0292 -71.576359,-0.57268 z M 86.486358,278.4902 c 1.072085,-0.97647 55.339962,-92.8099 58.341262,-98.72652 3.38408,-6.67121 3.37065,-14.93098 -0.0365,-22.45378 l -1.52688,-3.37125 2.61866,-4.53734 c 1.84327,-3.19385 3.03908,-4.7115 4.03852,-5.12548 0.78093,-0.32347 2.05708,-1.25323 2.8359,-2.06614 1.15735,-1.20802 1.45698,-2.04414 1.64019,-4.57705 0.21375,-2.95511 0.64335,-3.81075 9.24991,-18.42355 9.25449,-15.71289 9.97787,-17.39984 8.14186,-18.98699 -2.06551,-1.785565 -16.05077,-9.620278 -17.17254,-9.620278 -0.67466,0 -1.59064,0.363973 -2.0355,0.808834 -0.44486,0.444856 -7.325,11.890124 -15.2892,25.433924 l -14.48038,24.62509 -4.50221,0.60308 c -4.85501,0.65033 -8.77494,1.97847 -11.6943,3.96223 -1.01055,0.68668 -1.99064,1.08101 -2.17798,0.87628 -0.18733,-0.20473 -1.31894,-2.61357 -2.51469,-5.35297 -1.19575,-2.7394 -2.585057,-5.23738 -3.087351,-5.55106 -0.502268,-0.31369 -0.913233,-0.82877 -0.913233,-1.14461 0,-0.31586 -0.340927,-0.85723 -0.757615,-1.20305 -0.852422,-0.70744 -0.967231,-1.91715 -0.284368,-2.99625 0.377873,-0.59713 1.220709,-0.34886 4.828337,1.42225 4.16321,2.04388 4.42866,2.10759 5.5954,1.34312 2.89162,-1.89466 0.46059,-4.98667 -5.74544,-7.30757 l -2.967836,-1.1099 2.191146,-4.3659 c 1.20512,-2.40123 2.19114,-4.63596 2.19114,-4.96604 0,-0.44427 0.55326,-0.47584 2.13007,-0.12156 2.87599,0.6462 4.34502,0.20459 4.75514,-1.42945 0.47365,-1.88717 -0.32771,-2.84186 -3.02488,-3.60364 l -2.3451,-0.66236 -0.0758,-5.0214 c -0.0417,-2.76178 -0.0985,-5.304552 -0.12627,-5.650625 -0.0316,-0.393889 0.98844,-0.76109 2.72741,-0.981808 5.70472,-0.724087 10.50876,-3.264959 14.43987,-7.637299 8.88749,-9.885024 8.26811,-24.988951 -1.39147,-33.932019 -9.72512,-9.003747 -24.06315,-8.789391 -33.538063,0.5014 -3.597688,3.527776 -5.895816,7.895064 -6.832682,12.984617 l -0.623683,3.388167 -2.315699,-0.33288 c -3.158201,-0.453993 -5.877961,-0.454367 -8.895772,-0.001 l -2.539463,0.381322 -0.549432,-3.41178 C 63.962876,65.156226 61.898932,61.225692 58.045261,57.34827 48.403812,47.647391 33.660243,47.557706 23.892547,57.140519 14.34103,66.511244 14.264299,81.90208 23.721945,91.360128 c 2.832709,2.832826 9.092665,6.439031 11.177427,6.439031 0.493973,0 0.898132,0.212546 0.898132,0.472322 0,0.259776 0.910455,1.112092 2.023232,1.894039 l 2.023233,1.42171 -0.129197,4.03568 -0.129196,4.03568 -2.513506,0.35823 c -3.495334,0.49816 -4.925065,2.74751 -2.981652,4.69092 0.663135,0.66313 1.453234,0.75738 4.166879,0.49703 l 3.348584,-0.32126 0.979305,2.44324 c 0.538618,1.34377 1.618218,3.53283 2.399113,4.86457 1.624762,2.77087 1.654126,2.88196 0.761745,2.88196 -0.361935,0 -2.504443,0.89289 -4.76113,1.98419 -4.460461,2.15703 -5.626611,3.46865 -4.765085,5.3595 0.896519,1.96764 2.179711,1.91552 6.436526,-0.26144 5.825794,-2.97934 6.04204,-2.83581 3.398744,2.25589 -5.195114,10.00719 -10.157166,23.45966 -12.577479,34.09842 -1.422228,6.25156 -1.601267,13.70575 -0.446813,18.60278 0.587895,2.49377 2.849098,7.96293 4.656525,11.26271 0.09596,0.17519 -0.409367,0.46506 -1.122949,0.64416 -1.878666,0.47152 -5.322554,3.76333 -6.390569,6.10838 -1.360395,2.98702 -1.24343,6.56331 0.263958,8.0707 1.663992,1.664 3.438565,1.89113 13.247727,1.69566 7.499188,-0.14943 8.739379,-0.29469 10.289089,-1.20507 1.731327,-1.01708 1.818601,-1.01949 4.996718,-0.13822 1.779037,0.49331 3.34346,1.00578 3.476492,1.13881 0.133037,0.13304 -4.579722,8.43295 -10.472794,18.44427 -5.893072,10.01131 -10.825177,18.62494 -10.960233,19.14139 -0.14356,0.54898 0.242894,1.47502 0.930392,2.22947 0.912333,1.00117 34.766929,21.28016 40.824435,24.45394 1.73825,0.91074 2.276884,0.84283 3.71676,-0.46862 z"
   id="path4780"
   inkscape:connector-curvature="0"
   transform="matrix(0.26458333,0,0,0.26458333,0,210.00002)" />

<g
   id="g4738"
   transform="matrix(0.14000855,0,0,0.14000855,1.009996,247.10055)">
	<g
   id="g4736">
		<path
   id="path4734"
   d="M 303.6,118.8 V 52 c 0,-38.4 -26.8,-52 -52,-52 H 102 C 76.8,0 50,13.6 50,52 v 66.8 C 31.6,123.6 18,140 18,160 v 107.2 c 0,31.6 21.2,44 42,45.2 v 27.2 c 0,8 6.4,14.4 14.4,14.4 h 14.8 c 8,0 14.4,-6.4 14.4,-14.4 v -27.2 h 146.8 v 27.2 c 0,8 6.4,14.4 14.4,14.4 h 14.8 c 8,0 14.4,-6.4 14.4,-14.4 v -27.2 c 30.8,-1.6 42,-24 42,-45.2 V 159.6 C 335.2,140 321.6,123.2 303.6,118.8 Z M 64.4,52 C 64.4,19.2 88,14 102,14 h 149.6 c 14,0 37.6,4.8 37.6,37.6 v 65.6 c -21.6,2 -38.8,20 -38.8,42.4 v 10 H 103.2 v -10 C 103.2,137.2 86,119.2 64.4,117.2 Z M 250,184 v 49.6 H 103.2 V 184 Z M 89.2,339.6 H 74.4 v -27.2 h 14.8 z m 190,0 h -14.8 v -27.2 h 14.8 z m 42.4,-72.4 h -0.4 c 0,14 -5.2,31.2 -31.2,31.2 H 279.2 264.4 89.2 74.4 63.6 c -14,0 -31.2,-5.2 -31.2,-31.2 V 159.6 c 0,-15.6 12.8,-28.4 28.4,-28.4 15.6,0 28.4,12.8 28.4,28.4 v 81.2 c 0,4 3.2,7.2 7.2,7.2 h 161.2 c 4,0 7.2,-3.2 7.2,-7.2 v -81.2 c 0,-15.6 12.8,-28.4 28.4,-28.4 15.6,0 28.4,12.8 28.4,28.4 z"
   inkscape:connector-curvature="0" />

	</g>

</g>

<g
   id="g4740"
   transform="matrix(0.14000855,0,0,0.14000855,1.009996,247.10055)">
</g>

<g
   id="g4742"
   transform="matrix(0.14000855,0,0,0.14000855,1.009996,247.10055)">
</g>

<g
   id="g4744"
   transform="matrix(0.14000855,0,0,0.14000855,1.009996,247.10055)">
</g>

<g
   id="g4746"
   transform="matrix(0.14000855,0,0,0.14000855,1.009996,247.10055)">
</g>

<g
   id="g4748"
   transform="matrix(0.14000855,0,0,0.14000855,1.009996,247.10055)">
</g>

<g
   id="g4750"
   transform="matrix(0.14000855,0,0,0.14000855,1.009996,247.10055)">
</g>

<g
   id="g4752"
   transform="matrix(0.14000855,0,0,0.14000855,1.009996,247.10055)">
</g>

<g
   id="g4754"
   transform="matrix(0.14000855,0,0,0.14000855,1.009996,247.10055)">
</g>

<g
   id="g4756"
   transform="matrix(0.14000855,0,0,0.14000855,1.009996,247.10055)">
</g>

<g
   id="g4758"
   transform="matrix(0.14000855,0,0,0.14000855,1.009996,247.10055)">
</g>

<g
   id="g4760"
   transform="matrix(0.14000855,0,0,0.14000855,1.009996,247.10055)">
</g>

<g
   id="g4762"
   transform="matrix(0.14000855,0,0,0.14000855,1.009996,247.10055)">
</g>

<g
   id="g4764"
   transform="matrix(0.14000855,0,0,0.14000855,1.009996,247.10055)">
</g>

<g
   id="g4766"
   transform="matrix(0.14000855,0,0,0.14000855,1.009996,247.10055)">
</g>

<g
   id="g4768"
   transform="matrix(0.14000855,0,0,0.14000855,1.009996,247.10055)">
</g>

<path
   style="opacity:1;fill:#ff0000;fill-opacity:1;stroke:none;stroke-width:1.84213638;stroke-linecap:round;stroke-linejoin:round;stroke-miterlimit:4;stroke-dasharray:none;stroke-opacity:1"
   d="m 58.525934,225.31477 c 0,-7.12107 -2.451278,-12.92505 -7.376056,-17.46455 -2.639889,-2.43336 -7.515213,-4.87956 -10.667076,-5.35221 l -2.20213,-0.33023 0.147375,-20.52135 0.147374,-20.52134 1.457363,-3.15545 c 2.466813,-5.3411 6.780649,-8.49644 13.251236,-9.6926 1.899473,-0.35113 17.221848,-0.53344 44.351818,-0.5277 43.502512,0.009 45.608872,0.10528 49.797732,2.27142 2.90789,1.50373 5.86323,4.69239 7.36726,7.94888 l 1.45736,3.15545 0.15215,20.51188 0.15215,20.51189 -2.04483,0.27427 c -6.08488,0.81615 -12.96879,6.13441 -16.07465,12.4187 -1.74827,3.53738 -1.88537,4.15333 -2.06,9.25534 l -0.18708,5.46575 H 97.360935 58.525934 Z"
   id="path4795"
   inkscape:connector-curvature="0"
   transform="matrix(0.26458333,0,0,0.26458333,0,210.00002)" />
<path
   style="opacity:1;fill:#ff0000;fill-opacity:1;stroke:none;stroke-width:1.84213638;stroke-linecap:round;stroke-linejoin:round;stroke-miterlimit:4;stroke-dasharray:none;stroke-opacity:1"
   d="M 58.525934,250.52359 V 237.64414 H 97.164268 135.8026 v 12.87945 12.87944 H 97.164268 58.525934 Z"
   id="path4797"
   inkscape:connector-curvature="0"
   transform="matrix(0.26458333,0,0,0.26458333,0,210.00002)" />
<path
   style="opacity:1;fill:#ff0000;fill-opacity:1;stroke:none;stroke-width:1.84213638;stroke-linecap:round;stroke-linejoin:round;stroke-miterlimit:4;stroke-dasharray:none;stroke-opacity:1"
   d="m 31.756892,297.28067 c -4.383695,-1.3548 -7.36704,-3.90825 -9.190563,-7.86621 l -1.163501,-2.52538 v -33.0825 -33.08249 l 1.139523,-2.13253 c 1.698535,-3.17868 3.781185,-5.32435 6.780653,-6.98584 5.589786,-3.09632 13.721451,-1.49503 17.822365,3.5096 3.652675,4.4576 3.524074,3.42576 3.804421,30.52501 0.242346,23.42594 0.292107,24.44007 1.232957,25.12754 0.828684,0.60551 7.810314,0.71638 45.11126,0.71638 27.820253,0 44.472283,-0.18273 45.054663,-0.49441 1.88832,-1.0106 2.04008,-2.994 2.04516,-26.7288 l 0.005,-23.03187 1.19504,-2.56643 c 3.18164,-6.83281 10.70901,-10.21674 17.80511,-8.00429 2.28604,0.71275 3.60424,1.56318 5.78412,3.73161 4.76803,4.74296 4.56792,2.91805 4.38491,39.98981 -0.14358,29.08717 -0.23888,32.21387 -1.04555,34.30527 -1.24642,3.23151 -3.55569,5.83726 -6.59259,7.43897 l -2.60066,1.37157 -65.154839,0.0876 c -35.835161,0.0482 -65.72305,-0.088 -66.417529,-0.30262 z"
   id="path4799"
   inkscape:connector-curvature="0"
   transform="matrix(0.26458333,0,0,0.26458333,0,210.00002)" />
<path
   style="opacity:1;fill:#ff0000;fill-opacity:1;stroke:none;stroke-width:1.84213638;stroke-linecap:round;stroke-linejoin:round;stroke-miterlimit:4;stroke-dasharray:none;stroke-opacity:1"
   d="m 51.150504,312.90051 c 0,-4.02799 0.07844,-5.6758 0.174308,-3.6618 0.09587,2.01399 0.09587,5.30961 0,7.3236 -0.09587,2.01399 -0.174308,0.36618 -0.174308,-3.6618 z"
   id="path4801"
   inkscape:connector-curvature="0"
   transform="matrix(0.26458333,0,0,0.26458333,0,210.00002)" />
<path
   style="opacity:1;fill:#ff0000;fill-opacity:1;stroke:none;stroke-width:1.84213638;stroke-linecap:round;stroke-linejoin:round;stroke-miterlimit:4;stroke-dasharray:none;stroke-opacity:1"
   d="m 43.373646,312.64797 v -6.81853 h 3.788072 3.788072 v 6.81853 6.81853 h -3.788072 -3.788072 z"
   id="path4803"
   inkscape:connector-curvature="0"
   transform="matrix(0.26458333,0,0,0.26458333,0,210.00002)" />
<path
   style="opacity:1;fill:#ff0000;fill-opacity:1;stroke:none;stroke-width:1.84213638;stroke-linecap:round;stroke-linejoin:round;stroke-miterlimit:4;stroke-dasharray:none;stroke-opacity:1"
   d="m 143.88382,312.64797 v -6.81853 h 3.78808 3.78807 v 6.81853 6.81853 h -3.78807 -3.78808 z"
   id="path4805"
   inkscape:connector-curvature="0"
   transform="matrix(0.26458333,0,0,0.26458333,0,210.00002)" />
</g>
</svg>
