<?xml version="1.0" standalone="no"?>
<!DOCTYPE svg PUBLIC "-//W3C//DTD SVG 20010904//EN"
 "http://www.w3.org/TR/2001/REC-SVG-20010904/DTD/svg10.dtd">
<svg version="1.0" xmlns="http://www.w3.org/2000/svg"
 width="630.000000pt" height="630.000000pt" viewBox="0 0 630.000000 630.000000"
 preserveAspectRatio="xMidYMid meet">
<metadata>
Created by potrace 1.16, written by Peter Selinger 2001-2019
</metadata>
<g transform="translate(0.000000,630.000000) scale(0.100000,-0.100000)"
fill="#000000" stroke="none">
<path d="M0 3150 l0 -3150 3150 0 3150 0 0 3150 0 3150 -3150 0 -3150 0 0
-3150z m3860 2340 c24 -24 30 -25 30 -5 0 11 13 15 54 15 46 0 56 -4 70 -24 9
-14 13 -31 10 -39 -3 -8 -1 -18 5 -22 6 -3 11 0 11 8 0 8 7 17 15 21 8 3 15
13 15 22 0 25 59 11 160 -38 153 -74 313 -263 425 -503 170 -367 215 -472 215
-508 0 -81 -72 -145 -152 -134 -48 6 -61 17 -104 84 -34 54 -40 58 -68 47 -25
-10 -19 -41 19 -104 49 -80 48 -120 -4 -171 -35 -35 -44 -39 -90 -39 -59 0
-79 16 -135 105 -34 55 -61 68 -71 36 -6 -20 42 -106 296 -531 90 -150 91
-202 9 -258 -43 -29 -110 -26 -143 6 -11 12 -106 164 -211 339 -148 246 -196
318 -211 318 -30 0 -30 -58 -1 -343 46 -451 46 -453 -23 -499 -56 -38 -133
-26 -167 25 -13 19 -127 668 -169 963 -8 55 -20 78 -34 64 -5 -6 -17 -88 -26
-184 -9 -101 -22 -188 -31 -206 -22 -46 -85 -79 -140 -72 -48 5 -78 26 -101
70 -13 26 -12 56 11 290 15 144 31 289 37 322 12 59 11 61 -35 174 -180 438
-326 616 -620 752 l-61 28 585 3 c322 2 591 4 598 6 6 1 21 -7 32 -18z m-1362
-54 c155 -42 329 -197 480 -429 31 -48 80 -123 109 -167 80 -123 78 -109 31
-181 -38 -60 -128 -204 -258 -417 -60 -98 -103 -152 -121 -152 -6 0 -8 -8 -4
-19 3 -12 0 -21 -10 -25 -8 -3 -15 -16 -15 -29 0 -13 -26 -64 -57 -114 -32
-50 -63 -99 -68 -108 -15 -24 -53 -11 -61 21 -7 26 -14 30 -29 15 -6 -6 -73
28 -180 91 -151 90 -292 173 -722 428 -68 39 -123 77 -122 83 0 7 17 37 38 67
27 40 43 54 58 53 22 -2 33 18 38 69 1 16 11 40 21 54 11 15 23 34 29 43 5 9
46 72 91 141 44 69 125 195 180 280 54 85 119 174 144 197 46 45 122 87 187
102 59 14 183 12 241 -3z m-1028 -1447 c33 -7 62 -22 85 -43 l34 -33 -40 -94
c-22 -52 -44 -97 -48 -102 -4 -4 -34 -1 -67 7 -32 8 -92 18 -132 21 -84 8 -83
-1 -22 130 38 82 60 109 95 118 33 8 42 7 95 -4z m323 -103 c18 -7 47 -27 66
-45 30 -28 33 -35 29 -75 -5 -39 -57 -172 -81 -204 -10 -12 -25 -5 -194 89
-24 13 -43 29 -43 34 0 6 14 45 31 88 48 118 103 151 192 113z m280 -181 c45
-31 53 -58 39 -143 -16 -94 -70 -196 -154 -286 -79 -86 -142 -128 -192 -128
-39 0 -76 17 -76 35 0 7 32 50 71 97 82 97 91 116 88 180 -3 58 50 196 91 240
36 38 81 40 133 5z m-803 -31 c162 -30 379 -124 448 -192 29 -30 33 -40 29
-68 -9 -54 -37 -102 -72 -124 -42 -26 -117 -26 -261 0 -121 21 -186 42 -285
89 -78 37 -79 37 -79 10 0 -36 41 -97 76 -114 26 -12 197 -45 237 -45 23 0 39
-79 39 -182 0 -60 2 -108 4 -108 16 0 55 117 60 177 8 96 7 95 48 78 20 -8 46
-15 59 -15 17 0 28 -10 40 -35 22 -46 68 -73 140 -81 50 -6 60 -10 73 -35 30
-59 115 -77 212 -45 29 10 56 16 58 13 11 -10 -36 -99 -152 -289 -64 -106
-128 -213 -142 -238 -39 -71 -62 -100 -78 -100 -11 0 -13 -6 -9 -20 4 -13 -4
-34 -23 -62 -16 -24 -37 -58 -47 -77 l-17 -34 -186 6 c-207 6 -278 16 -397 53
-110 35 -176 75 -271 166 -89 85 -129 150 -163 262 -27 89 -26 128 5 227 46
147 233 570 284 644 62 90 165 150 261 154 15 1 64 -6 109 -15z m4130 -230
c70 -142 120 -258 120 -275 0 -19 5 -29 15 -29 23 0 138 -236 126 -258 -5 -9
-12 -38 -16 -65 -4 -26 -14 -51 -23 -56 -8 -5 -12 -14 -7 -20 5 -9 16 -2 36
21 15 18 28 29 29 24 0 -5 7 -3 15 4 13 11 15 8 15 -18 0 -16 -7 -35 -15 -42
-10 -8 -12 -17 -6 -28 15 -27 -25 -92 -109 -172 -61 -59 -109 -92 -217 -151
-149 -82 -186 -98 -308 -136 -152 -46 -314 -71 -378 -59 -29 5 -39 16 -77 84
-24 42 -62 111 -85 152 -24 41 -96 170 -160 285 -65 116 -131 231 -147 258
-15 26 -28 54 -28 61 0 8 19 25 43 39 23 13 127 77 232 141 104 64 195 116
201 116 6 0 17 7 24 15 7 9 21 13 31 10 12 -4 19 -1 19 8 0 17 54 56 183 131
54 32 105 55 112 52 8 -3 15 2 17 11 3 18 194 141 221 142 13 1 46 -58 137
-245z m-3186 22 c42 -17 86 -80 86 -121 0 -106 -174 -282 -296 -301 -48 -7
-99 14 -109 46 -5 16 6 31 48 70 59 54 138 163 182 250 24 47 40 69 53 70 1 0
18 -6 36 -14z m1896 -1171 c113 -76 231 -158 262 -182 l57 -44 138 -10 c293
-21 512 22 783 155 59 29 121 63 136 75 14 11 32 21 38 21 6 0 17 9 24 20 10
17 42 29 42 16 0 -6 -91 -169 -101 -182 -5 -7 -45 -83 -89 -170 -43 -88 -127
-247 -185 -354 -59 -107 -142 -262 -184 -345 -115 -221 -158 -296 -194 -333
-45 -46 -135 -90 -247 -119 -87 -23 -121 -26 -420 -33 -179 -5 -478 -10 -666
-11 -313 -3 -343 -2 -368 14 -68 45 -89 149 -41 206 14 16 40 34 58 40 18 5
138 15 267 22 129 7 245 16 258 20 12 5 22 17 22 27 0 37 -32 40 -354 26 -291
-13 -311 -13 -345 3 -44 22 -61 54 -61 117 0 41 5 53 33 81 l32 32 155 8 c85
4 235 10 332 14 177 6 205 12 193 43 -7 18 -30 22 -245 43 -341 32 -526 54
-552 64 -60 23 -81 102 -46 171 37 72 48 73 348 39 298 -34 478 -45 500 -30
22 15 2 43 -41 57 -19 7 -167 37 -329 68 -162 32 -306 64 -318 72 -70 45 -56
183 20 215 36 15 80 10 343 -41 116 -23 315 -61 443 -86 222 -43 272 -48 257
-24 -4 6 -73 55 -155 110 -82 55 -155 109 -164 122 -20 29 -21 110 -1 148 22
42 61 61 115 57 39 -3 74 -23 250 -142z m-3313 -37 c93 -56 203 -95 342 -119
129 -22 520 -38 981 -39 140 0 326 -3 413 -7 l157 -6 0 -488 c0 -315 -4 -490
-10 -494 -7 -4 -7 -12 0 -25 5 -10 10 -33 10 -51 0 -30 -1 -31 -18 -16 -21 19
-38 22 -47 7 -3 -5 10 -24 29 -41 37 -32 49 -80 25 -95 -8 -4 -7 -9 2 -15 11
-6 11 -12 -1 -33 -16 -30 -28 -33 -46 -8 -13 16 -15 16 -25 0 -7 -14 -23 -18
-65 -18 -54 0 -54 0 -48 26 6 24 5 25 -14 13 -11 -7 -18 -19 -14 -27 3 -9 0
-13 -9 -10 -9 3 -13 20 -11 54 1 27 -1 42 -4 34 -31 -86 -34 -89 -85 -87 -29
1 -49 7 -49 13 0 6 -7 17 -15 24 -12 10 -16 8 -25 -14 -7 -20 -17 -26 -38 -26
-15 0 -34 6 -40 12 -10 10 -14 10 -21 0 -5 -9 -42 -12 -132 -11 -279 2 -402
32 -522 127 -115 92 -104 73 -551 909 -68 127 -94 175 -198 366 -26 48 -46 87
-43 87 3 0 35 -19 72 -42z"/>
</g>
</svg>
