<?xml version="1.0" encoding="UTF-8" standalone="no"?>
<!-- Created with Inkscape (http://www.inkscape.org/) -->

<svg
   xmlns:dc="http://purl.org/dc/elements/1.1/"
   xmlns:cc="http://creativecommons.org/ns#"
   xmlns:rdf="http://www.w3.org/1999/02/22-rdf-syntax-ns#"
   xmlns:svg="http://www.w3.org/2000/svg"
   xmlns="http://www.w3.org/2000/svg"
   xmlns:sodipodi="http://sodipodi.sourceforge.net/DTD/sodipodi-0.dtd"
   xmlns:inkscape="http://www.inkscape.org/namespaces/inkscape"
   width="5cm"
   height="5cm"
   viewBox="0 0 50 49.999998"
   version="1.1"
   id="svg8"
   inkscape:version="0.92.4 (5da689c313, 2019-01-14)"
   sodipodi:docname="e-fantasma.svg">
  <defs
     id="defs2" />
  <sodipodi:namedview
     id="base"
     pagecolor="#ffffff"
     bordercolor="#666666"
     borderopacity="1.0"
     inkscape:pageopacity="0.0"
     inkscape:pageshadow="2"
     inkscape:zoom="1.979899"
     inkscape:cx="106.96275"
     inkscape:cy="146.62785"
     inkscape:document-units="mm"
     inkscape:current-layer="layer1"
     showgrid="false"
     inkscape:pagecheckerboard="true"
     units="cm"
     fit-margin-top="0"
     fit-margin-left="0"
     fit-margin-right="0"
     fit-margin-bottom="0"
     inkscape:window-width="1920"
     inkscape:window-height="986"
     inkscape:window-x="-11"
     inkscape:window-y="-11"
     inkscape:window-maximized="1" />
  <metadata
     id="metadata5">
    <rdf:RDF>
      <cc:Work
         rdf:about="">
        <dc:format>image/svg+xml</dc:format>
        <dc:type
           rdf:resource="http://purl.org/dc/dcmitype/StillImage" />
        <dc:title></dc:title>
      </cc:Work>
    </rdf:RDF>
  </metadata>
  <g
     inkscape:label="Capa 1"
     inkscape:groupmode="layer"
     id="layer1"
     transform="translate(0,-247.00002)">
    <g
       id="g4628"
       transform="matrix(0.20947998,0,0,0.20947998,8.8908204,240.81071)" />
    <g
       id="g4630"
       transform="matrix(0.20947998,0,0,0.20947998,8.8908204,240.81071)" />
    <g
       id="g4632"
       transform="matrix(0.20947998,0,0,0.20947998,8.8908204,240.81071)" />
    <g
       id="g4634"
       transform="matrix(0.20947998,0,0,0.20947998,8.8908204,240.81071)" />
    <g
       id="g4636"
       transform="matrix(0.20947998,0,0,0.20947998,8.8908204,240.81071)" />
    <g
       id="g4638"
       transform="matrix(0.20947998,0,0,0.20947998,8.8908204,240.81071)" />
    <g
       id="g4640"
       transform="matrix(0.20947998,0,0,0.20947998,8.8908204,240.81071)" />
    <g
       id="g4642"
       transform="matrix(0.20947998,0,0,0.20947998,8.8908204,240.81071)" />
    <g
       id="g4644"
       transform="matrix(0.20947998,0,0,0.20947998,8.8908204,240.81071)" />
    <g
       id="g4646"
       transform="matrix(0.20947998,0,0,0.20947998,8.8908204,240.81071)" />
    <g
       id="g4648"
       transform="matrix(0.20947998,0,0,0.20947998,8.8908204,240.81071)" />
    <g
       id="g4650"
       transform="matrix(0.20947998,0,0,0.20947998,8.8908204,240.81071)" />
    <g
       id="g4652"
       transform="matrix(0.20947998,0,0,0.20947998,8.8908204,240.81071)" />
    <g
       id="g4654"
       transform="matrix(0.20947998,0,0,0.20947998,8.8908204,240.81071)" />
    <g
       id="g4656"
       transform="matrix(0.20947998,0,0,0.20947998,8.8908204,240.81071)" />
    <path
       style="opacity:0.73000004;fill:#00b000;fill-opacity:0;stroke:none;stroke-width:2.03303146;stroke-linecap:round;stroke-linejoin:round;stroke-miterlimit:4;stroke-dasharray:none;stroke-opacity:1"
       d="M 24.325222,319.80868 C 17.066537,317.5278 11.509842,311.21911 10.064241,303.61774 9.6390343,301.38188 9.5270087,264.49903 9.6369978,162.954 L 9.7860763,25.320713 10.9189,22.542794 c 2.310358,-5.665476 6.536692,-9.750628 12.635954,-12.213849 L 26.453593,9.1582727 91.860971,9.0123866 c 42.645419,-0.095117 66.901399,0.035037 69.700529,0.374004 10.0464,1.2165954 17.31368,8.1296824 18.71202,17.8000534 0.65559,4.533771 0.60935,270.858146 -0.0478,275.405466 -1.02453,7.08934 -5.26974,12.9923 -11.55594,16.06856 l -3.32018,1.62479 -69.447989,0.0961 c -56.431667,0.0781 -69.846899,-0.0292 -71.576359,-0.57268 z M 86.486358,278.4902 c 1.072085,-0.97647 55.339962,-92.8099 58.341262,-98.72652 3.38408,-6.67121 3.37065,-14.93098 -0.0365,-22.45378 l -1.52688,-3.37125 2.61866,-4.53734 c 1.84327,-3.19385 3.03908,-4.7115 4.03852,-5.12548 0.78093,-0.32347 2.05708,-1.25323 2.8359,-2.06614 1.15735,-1.20802 1.45698,-2.04414 1.64019,-4.57705 0.21375,-2.95511 0.64335,-3.81075 9.24991,-18.42355 9.25449,-15.71289 9.97787,-17.39984 8.14186,-18.98699 -2.06551,-1.785565 -16.05077,-9.620278 -17.17254,-9.620278 -0.67466,0 -1.59064,0.363973 -2.0355,0.808834 -0.44486,0.444856 -7.325,11.890124 -15.2892,25.433924 l -14.48038,24.62509 -4.50221,0.60308 c -4.85501,0.65033 -8.77494,1.97847 -11.6943,3.96223 -1.01055,0.68668 -1.99064,1.08101 -2.17798,0.87628 -0.18733,-0.20473 -1.31894,-2.61357 -2.51469,-5.35297 -1.19575,-2.7394 -2.585057,-5.23738 -3.087351,-5.55106 -0.502268,-0.31369 -0.913233,-0.82877 -0.913233,-1.14461 0,-0.31586 -0.340927,-0.85723 -0.757615,-1.20305 -0.852422,-0.70744 -0.967231,-1.91715 -0.284368,-2.99625 0.377873,-0.59713 1.220709,-0.34886 4.828337,1.42225 4.16321,2.04388 4.42866,2.10759 5.5954,1.34312 2.89162,-1.89466 0.46059,-4.98667 -5.74544,-7.30757 l -2.967836,-1.1099 2.191146,-4.3659 c 1.20512,-2.40123 2.19114,-4.63596 2.19114,-4.96604 0,-0.44427 0.55326,-0.47584 2.13007,-0.12156 2.87599,0.6462 4.34502,0.20459 4.75514,-1.42945 0.47365,-1.88717 -0.32771,-2.84186 -3.02488,-3.60364 l -2.3451,-0.66236 -0.0758,-5.0214 c -0.0417,-2.76178 -0.0985,-5.304552 -0.12627,-5.650625 -0.0316,-0.393889 0.98844,-0.76109 2.72741,-0.981808 5.70472,-0.724087 10.50876,-3.264959 14.43987,-7.637299 8.88749,-9.885024 8.26811,-24.988951 -1.39147,-33.932019 -9.72512,-9.003747 -24.06315,-8.789391 -33.538063,0.5014 -3.597688,3.527776 -5.895816,7.895064 -6.832682,12.984617 l -0.623683,3.388167 -2.315699,-0.33288 c -3.158201,-0.453993 -5.877961,-0.454367 -8.895772,-0.001 l -2.539463,0.381322 -0.549432,-3.41178 C 63.962876,65.156226 61.898932,61.225692 58.045261,57.34827 48.403812,47.647391 33.660243,47.557706 23.892547,57.140519 14.34103,66.511244 14.264299,81.90208 23.721945,91.360128 c 2.832709,2.832826 9.092665,6.439031 11.177427,6.439031 0.493973,0 0.898132,0.212546 0.898132,0.472322 0,0.259776 0.910455,1.112092 2.023232,1.894039 l 2.023233,1.42171 -0.129197,4.03568 -0.129196,4.03568 -2.513506,0.35823 c -3.495334,0.49816 -4.925065,2.74751 -2.981652,4.69092 0.663135,0.66313 1.453234,0.75738 4.166879,0.49703 l 3.348584,-0.32126 0.979305,2.44324 c 0.538618,1.34377 1.618218,3.53283 2.399113,4.86457 1.624762,2.77087 1.654126,2.88196 0.761745,2.88196 -0.361935,0 -2.504443,0.89289 -4.76113,1.98419 -4.460461,2.15703 -5.626611,3.46865 -4.765085,5.3595 0.896519,1.96764 2.179711,1.91552 6.436526,-0.26144 5.825794,-2.97934 6.04204,-2.83581 3.398744,2.25589 -5.195114,10.00719 -10.157166,23.45966 -12.577479,34.09842 -1.422228,6.25156 -1.601267,13.70575 -0.446813,18.60278 0.587895,2.49377 2.849098,7.96293 4.656525,11.26271 0.09596,0.17519 -0.409367,0.46506 -1.122949,0.64416 -1.878666,0.47152 -5.322554,3.76333 -6.390569,6.10838 -1.360395,2.98702 -1.24343,6.56331 0.263958,8.0707 1.663992,1.664 3.438565,1.89113 13.247727,1.69566 7.499188,-0.14943 8.739379,-0.29469 10.289089,-1.20507 1.731327,-1.01708 1.818601,-1.01949 4.996718,-0.13822 1.779037,0.49331 3.34346,1.00578 3.476492,1.13881 0.133037,0.13304 -4.579722,8.43295 -10.472794,18.44427 -5.893072,10.01131 -10.825177,18.62494 -10.960233,19.14139 -0.14356,0.54898 0.242894,1.47502 0.930392,2.22947 0.912333,1.00117 34.766929,21.28016 40.824435,24.45394 1.73825,0.91074 2.276884,0.84283 3.71676,-0.46862 z"
       id="path4778"
       inkscape:connector-curvature="0"
       transform="matrix(0.26458333,0,0,0.26458333,0,210.00002)" />
    <path
       style="opacity:0.73000004;fill:#00b000;fill-opacity:0;stroke:none;stroke-width:2.03303146;stroke-linecap:round;stroke-linejoin:round;stroke-miterlimit:4;stroke-dasharray:none;stroke-opacity:1"
       d="M 24.325222,319.80868 C 17.066537,317.5278 11.509842,311.21911 10.064241,303.61774 9.6390343,301.38188 9.5270087,264.49903 9.6369978,162.954 L 9.7860763,25.320713 10.9189,22.542794 c 2.310358,-5.665476 6.536692,-9.750628 12.635954,-12.213849 L 26.453593,9.1582727 91.860971,9.0123866 c 42.645419,-0.095117 66.901399,0.035037 69.700529,0.374004 10.0464,1.2165954 17.31368,8.1296824 18.71202,17.8000534 0.65559,4.533771 0.60935,270.858146 -0.0478,275.405466 -1.02453,7.08934 -5.26974,12.9923 -11.55594,16.06856 l -3.32018,1.62479 -69.447989,0.0961 c -56.431667,0.0781 -69.846899,-0.0292 -71.576359,-0.57268 z M 86.486358,278.4902 c 1.072085,-0.97647 55.339962,-92.8099 58.341262,-98.72652 3.38408,-6.67121 3.37065,-14.93098 -0.0365,-22.45378 l -1.52688,-3.37125 2.61866,-4.53734 c 1.84327,-3.19385 3.03908,-4.7115 4.03852,-5.12548 0.78093,-0.32347 2.05708,-1.25323 2.8359,-2.06614 1.15735,-1.20802 1.45698,-2.04414 1.64019,-4.57705 0.21375,-2.95511 0.64335,-3.81075 9.24991,-18.42355 9.25449,-15.71289 9.97787,-17.39984 8.14186,-18.98699 -2.06551,-1.785565 -16.05077,-9.620278 -17.17254,-9.620278 -0.67466,0 -1.59064,0.363973 -2.0355,0.808834 -0.44486,0.444856 -7.325,11.890124 -15.2892,25.433924 l -14.48038,24.62509 -4.50221,0.60308 c -4.85501,0.65033 -8.77494,1.97847 -11.6943,3.96223 -1.01055,0.68668 -1.99064,1.08101 -2.17798,0.87628 -0.18733,-0.20473 -1.31894,-2.61357 -2.51469,-5.35297 -1.19575,-2.7394 -2.585057,-5.23738 -3.087351,-5.55106 -0.502268,-0.31369 -0.913233,-0.82877 -0.913233,-1.14461 0,-0.31586 -0.340927,-0.85723 -0.757615,-1.20305 -0.852422,-0.70744 -0.967231,-1.91715 -0.284368,-2.99625 0.377873,-0.59713 1.220709,-0.34886 4.828337,1.42225 4.16321,2.04388 4.42866,2.10759 5.5954,1.34312 2.89162,-1.89466 0.46059,-4.98667 -5.74544,-7.30757 l -2.967836,-1.1099 2.191146,-4.3659 c 1.20512,-2.40123 2.19114,-4.63596 2.19114,-4.96604 0,-0.44427 0.55326,-0.47584 2.13007,-0.12156 2.87599,0.6462 4.34502,0.20459 4.75514,-1.42945 0.47365,-1.88717 -0.32771,-2.84186 -3.02488,-3.60364 l -2.3451,-0.66236 -0.0758,-5.0214 c -0.0417,-2.76178 -0.0985,-5.304552 -0.12627,-5.650625 -0.0316,-0.393889 0.98844,-0.76109 2.72741,-0.981808 5.70472,-0.724087 10.50876,-3.264959 14.43987,-7.637299 8.88749,-9.885024 8.26811,-24.988951 -1.39147,-33.932019 -9.72512,-9.003747 -24.06315,-8.789391 -33.538063,0.5014 -3.597688,3.527776 -5.895816,7.895064 -6.832682,12.984617 l -0.623683,3.388167 -2.315699,-0.33288 c -3.158201,-0.453993 -5.877961,-0.454367 -8.895772,-0.001 l -2.539463,0.381322 -0.549432,-3.41178 C 63.962876,65.156226 61.898932,61.225692 58.045261,57.34827 48.403812,47.647391 33.660243,47.557706 23.892547,57.140519 14.34103,66.511244 14.264299,81.90208 23.721945,91.360128 c 2.832709,2.832826 9.092665,6.439031 11.177427,6.439031 0.493973,0 0.898132,0.212546 0.898132,0.472322 0,0.259776 0.910455,1.112092 2.023232,1.894039 l 2.023233,1.42171 -0.129197,4.03568 -0.129196,4.03568 -2.513506,0.35823 c -3.495334,0.49816 -4.925065,2.74751 -2.981652,4.69092 0.663135,0.66313 1.453234,0.75738 4.166879,0.49703 l 3.348584,-0.32126 0.979305,2.44324 c 0.538618,1.34377 1.618218,3.53283 2.399113,4.86457 1.624762,2.77087 1.654126,2.88196 0.761745,2.88196 -0.361935,0 -2.504443,0.89289 -4.76113,1.98419 -4.460461,2.15703 -5.626611,3.46865 -4.765085,5.3595 0.896519,1.96764 2.179711,1.91552 6.436526,-0.26144 5.825794,-2.97934 6.04204,-2.83581 3.398744,2.25589 -5.195114,10.00719 -10.157166,23.45966 -12.577479,34.09842 -1.422228,6.25156 -1.601267,13.70575 -0.446813,18.60278 0.587895,2.49377 2.849098,7.96293 4.656525,11.26271 0.09596,0.17519 -0.409367,0.46506 -1.122949,0.64416 -1.878666,0.47152 -5.322554,3.76333 -6.390569,6.10838 -1.360395,2.98702 -1.24343,6.56331 0.263958,8.0707 1.663992,1.664 3.438565,1.89113 13.247727,1.69566 7.499188,-0.14943 8.739379,-0.29469 10.289089,-1.20507 1.731327,-1.01708 1.818601,-1.01949 4.996718,-0.13822 1.779037,0.49331 3.34346,1.00578 3.476492,1.13881 0.133037,0.13304 -4.579722,8.43295 -10.472794,18.44427 -5.893072,10.01131 -10.825177,18.62494 -10.960233,19.14139 -0.14356,0.54898 0.242894,1.47502 0.930392,2.22947 0.912333,1.00117 34.766929,21.28016 40.824435,24.45394 1.73825,0.91074 2.276884,0.84283 3.71676,-0.46862 z"
       id="path4780"
       inkscape:connector-curvature="0"
       transform="matrix(0.26458333,0,0,0.26458333,0,210.00002)" />
    <g
       id="g4819"
       transform="matrix(0.09284176,0,0,0.09284176,0.97705308,247.97556)">
      <g
         id="g4817">
        <g
           id="g4815">
          <path
             id="path4807"
             d="m 307.35,228.017 c -5.01,-3.069 -11.268,-3.264 -16.458,-0.513 l -17.063,9.087 -16.745,-11.691 c -5.763,-4.078 -13.473,-4.076 -19.234,0.005 l -16.454,11.683 -17.354,-9.083 c -5.191,-2.752 -11.449,-2.557 -16.458,0.513 -5.253,3.181 -8.44,8.896 -8.383,15.037 v 51.492 c -0.056,6.141 3.13,11.857 8.383,15.038 5.012,3.061 11.266,3.256 16.458,0.513 l 17.062,-9.087 16.746,11.689 c 5.765,4.074 13.471,4.072 19.234,-0.005 l 16.454,-11.683 17.354,9.083 c 5.193,2.743 11.446,2.548 16.458,-0.513 5.253,-3.181 8.439,-8.896 8.383,-15.037 v -51.492 c 0.057,-6.14 -3.13,-11.855 -8.383,-15.036 z m -25.896,57.879 c -5.549,-2.914 -12.262,-2.481 -17.392,1.121 l -16.446,11.688 -16.746,-11.692 c -5.13,-3.603 -11.843,-4.034 -17.392,-1.117 l -17.212,8.65 -0.142,-51.925 17.354,9.083 c 5.55,2.912 12.261,2.479 17.392,-1.121 l 16.446,-11.688 16.746,11.692 c 5.132,3.597 11.842,4.028 17.392,1.117 l 17.058,-9.087 c 0.037,0.017 0.154,0.104 0.154,0.438 l 0.142,51.925 z"
             inkscape:connector-curvature="0" />
          <path
             id="path4809"
             d="m 238.933,170.667 c 0,-4.713 -3.82,-8.533 -8.533,-8.533 -23.057,0 -33.658,-9.689 -38.53,-18.79 l -0.057,-0.112 c -2.488,-4.706 -3.882,-9.912 -4.08,-15.231 0,-4.713 -3.82,-8.533 -8.533,-8.533 -4.713,0 -8.533,3.82 -8.533,8.533 0.068,4.81 0.845,9.585 2.306,14.168 -11.306,5.098 -18.792,16.11 -19.373,28.498 0,19.142 18.742,34.133 42.667,34.133 23.925,0 42.666,-14.992 42.666,-34.133 z m -68.266,0 c 0.586,-5.937 4.404,-11.064 9.923,-13.328 9.231,12.088 23.128,19.728 38.281,21.044 -5.797,6.284 -14.062,9.703 -22.604,9.351 -13.876,-0.001 -25.6,-7.817 -25.6,-17.067 z"
             inkscape:connector-curvature="0" />
          <path
             id="path4811"
             d="m 330.494,142.169 c 1.462,-4.584 2.239,-9.358 2.306,-14.169 0.015,-4.713 -3.793,-8.545 -8.506,-8.56 -4.713,-0.015 -8.545,3.793 -8.56,8.506 -0.046,3.5 -1.633,34.188 -42.667,34.188 -4.713,0 -8.533,3.82 -8.533,8.533 0,19.142 18.742,34.133 42.667,34.133 23.925,0 42.667,-14.992 42.667,-34.133 -0.582,-12.388 -8.069,-23.401 -19.374,-28.498 z M 307.2,187.733 c -8.542,0.352 -16.807,-3.068 -22.604,-9.351 15.153,-1.316 29.05,-8.955 38.281,-21.044 5.52,2.264 9.337,7.391 9.923,13.328 0,9.251 -11.725,17.067 -25.6,17.067 z"
             inkscape:connector-curvature="0" />
          <path
             id="path4813"
             d="M 460.8,162.133 H 416.582 C 406.609,66.776 343.902,0 259.938,0 173.33,0 106.385,68.071 95.574,162.133 H 51.2 c -50.617,0 -51.2,73.662 -51.2,76.8 v 34.133 c 0,14.138 11.461,25.6 25.6,25.6 14.139,0 25.6,-11.462 25.6,-25.6 V 256 c 0.006,-4.71 3.823,-8.527 8.533,-8.533 4.687,0.063 8.471,3.847 8.533,8.533 -0.049,9.091 4.753,17.519 12.599,22.112 7.846,4.593 17.545,4.655 25.449,0.162 9.37,38.194 23.689,75 42.594,109.485 C 180.621,444.438 237.925,512 330.829,512 c 3.044,0 5.857,-1.621 7.383,-4.254 1.526,-2.633 1.534,-5.88 0.021,-8.521 -48.821,-85.217 -23.125,-113.242 12.442,-152.029 20.986,-20.858 38.187,-45.204 50.837,-71.952 4.591,4.057 10.495,6.315 16.622,6.356 14.132,-0.015 25.585,-11.468 25.6,-25.6 v -0.21 c 0.115,-4.672 3.964,-8.382 8.637,-8.325 4.673,0.057 8.43,3.862 8.43,8.535 v 17.067 c 0,14.138 11.461,25.6 25.6,25.6 14.139,0 25.6,-11.462 25.6,-25.6 V 238.934 C 512,235.796 511.417,162.133 460.8,162.133 Z m -366.933,102.4 c -2.329,-0.029 -4.547,-0.996 -6.153,-2.682 -1.606,-1.686 -2.464,-3.949 -2.38,-6.276 0,-0.082 -0.045,-0.148 -0.047,-0.23 l 0.043,-0.003 C 84.967,241.338 73.415,230.226 59.407,230.406 45.399,230.586 34.137,241.991 34.134,256 v 17.067 c 0,4.713 -3.821,8.533 -8.533,8.533 -4.712,0 -8.533,-3.821 -8.533,-8.533 v -34.133 c 0,-0.596 0.392,-59.733 34.133,-59.733 h 43.072 c -0.134,3.261 -0.406,6.466 -0.406,9.779 0.371,23.482 3.053,46.871 8.007,69.828 -1.187,3.411 -4.395,5.705 -8.007,5.725 z m 244.229,71.13 c -35.6,38.825 -66.579,72.612 -22.004,158.621 C 170.229,481.25 110.933,276.138 110.933,188.979 c 0,-98.004 64.058,-171.913 149.004,-171.913 81.775,0 141.129,72.3 141.129,171.913 0.001,78 -33.453,114.488 -62.97,146.684 z m 156.837,-62.596 c 0,4.713 -3.82,8.533 -8.533,8.533 -4.713,0 -8.533,-3.821 -8.533,-8.533 V 256 c -0.002,-14.055 -11.335,-25.481 -25.389,-25.597 -14.055,-0.117 -25.576,11.119 -25.811,25.173 V 256 c 0,4.677 -3.763,8.484 -8.441,8.537 -4.677,0.052 -8.526,-3.669 -8.63,-8.345 -0.069,-0.637 -0.212,-1.263 -0.428,-1.867 6.176,-21.225 9.196,-43.242 8.966,-65.346 0,-3.319 -0.253,-6.517 -0.373,-9.779 h 43.04 c 33.621,0 34.133,59.146 34.133,59.742 v 34.125 z"
             inkscape:connector-curvature="0" />
        </g>
      </g>
    </g>
    <g
       id="g4821"
       transform="matrix(0.09701785,0,0,0.09701785,1.4954729,246.90648)" />
    <g
       id="g4823"
       transform="matrix(0.09701785,0,0,0.09701785,1.4954729,246.90648)" />
    <g
       id="g4825"
       transform="matrix(0.09701785,0,0,0.09701785,1.4954729,246.90648)" />
    <g
       id="g4827"
       transform="matrix(0.09701785,0,0,0.09701785,1.4954729,246.90648)" />
    <g
       id="g4829"
       transform="matrix(0.09701785,0,0,0.09701785,1.4954729,246.90648)" />
    <g
       id="g4831"
       transform="matrix(0.09701785,0,0,0.09701785,1.4954729,246.90648)" />
    <g
       id="g4833"
       transform="matrix(0.09701785,0,0,0.09701785,1.4954729,246.90648)" />
    <g
       id="g4835"
       transform="matrix(0.09701785,0,0,0.09701785,1.4954729,246.90648)" />
    <g
       id="g4837"
       transform="matrix(0.09701785,0,0,0.09701785,1.4954729,246.90648)" />
    <g
       id="g4839"
       transform="matrix(0.09701785,0,0,0.09701785,1.4954729,246.90648)" />
    <g
       id="g4841"
       transform="matrix(0.09701785,0,0,0.09701785,1.4954729,246.90648)" />
    <g
       id="g4843"
       transform="matrix(0.09701785,0,0,0.09701785,1.4954729,246.90648)" />
    <g
       id="g4845"
       transform="matrix(0.09701785,0,0,0.09701785,1.4954729,246.90648)" />
    <g
       id="g4847"
       transform="matrix(0.09701785,0,0,0.09701785,1.4954729,246.90648)" />
    <g
       id="g4849"
       transform="matrix(0.09701785,0,0,0.09701785,1.4954729,246.90648)" />
    <path
       style="opacity:1;fill:#ffffff;fill-opacity:1;stroke:none;stroke-width:1.84213638;stroke-linecap:round;stroke-linejoin:round;stroke-miterlimit:4;stroke-dasharray:none;stroke-opacity:1"
       d="M 108.78102,315.81807 C 90.418546,311.95939 75.14403,299.58674 62.659276,278.45858 54.482817,264.62142 47.452001,244.59706 44.304692,226.18318 c -1.610655,-9.42341 -1.619196,-23.56564 -0.01868,-30.92767 2.824427,-12.99173 8.689939,-23.98554 17.002965,-31.86889 15.54337,-14.73997 38.252982,-17.81988 56.113863,-7.61025 5.14153,2.939 12.11675,9.55879 15.6204,14.82446 7.59327,11.41198 11.0027,23.65302 10.97942,39.41991 -0.014,9.4906 -0.88814,15.31926 -3.44227,22.95296 -3.13668,9.37477 -7.03002,15.39562 -17.65477,27.30213 -12.54958,14.06355 -15.33293,18.95598 -16.18005,28.4404 -0.56919,6.37276 1.928,16.8268 5.90124,24.70448 0.80163,1.58938 1.45751,3.00991 1.45751,3.15672 0,0.35247 -0.0388,0.34691 -5.3033,-0.75936 z m -12.430096,-63.9981 3.227261,-2.30244 3.725895,1.84362 c 4.08936,2.02347 6.10931,2.27307 8.23474,1.01754 2.87052,-1.69565 3.05058,-2.56865 3.05058,-14.79037 v -11.16743 l -1.6418,-1.79152 c -2.47629,-2.7021 -4.73919,-2.82992 -9.09832,-0.51392 -1.87909,0.99836 -3.64768,1.8152 -3.930204,1.8152 -0.282525,0 -2.038286,-1.02278 -3.901694,-2.27285 -2.675197,-1.79464 -3.834061,-2.27284 -5.508057,-2.27284 -1.684098,0 -2.802697,0.46736 -5.439869,2.27284 -1.825906,1.25007 -3.541144,2.27285 -3.811641,2.27285 -0.270498,0 -2.164238,-0.82754 -4.208311,-1.83898 -4.220005,-2.08811 -6.303822,-2.0817 -8.57848,0.0264 -2.079859,1.92755 -2.476441,4.55659 -2.287695,15.16574 0.187975,10.56581 0.46779,11.61898 3.504205,13.18917 2.214066,1.14494 4.104924,0.87948 7.997301,-1.12277 l 3.605303,-1.85459 3.009209,2.12215 c 1.655064,1.16719 3.522112,2.33566 4.148993,2.59662 1.925403,0.80149 4.528543,0.0128 7.902584,-2.3944 z M 79.492209,214.25803 c 2.686344,-0.99407 5.895182,-3.74199 7.107714,-6.08677 0.402763,-0.77886 0.859918,-2.38598 1.015899,-3.57138 0.427319,-3.24746 -0.406263,-4.01949 -4.853015,-4.49462 -7.353348,-0.7857 -11.354001,-4.02965 -12.802798,-10.38121 -0.879578,-3.85608 -1.267304,-4.36786 -3.309106,-4.36786 -2.62318,0 -3.225585,0.95644 -2.95982,4.69932 0.228996,3.22505 0.200181,3.31998 -1.307562,4.30787 -0.847945,0.55558 -2.233252,1.99569 -3.07846,3.20023 -1.373209,1.95703 -1.536742,2.58393 -1.536742,5.89114 0,3.30487 0.163873,3.93422 1.53085,5.87919 3.97484,5.65551 12.559419,7.74887 20.19304,4.92409 z m 38.699371,0.0643 c 3.50564,-1.31303 5.8165,-3.33251 7.31268,-6.39058 1.11895,-2.28706 1.29273,-3.17318 1.0403,-5.30462 -0.37631,-3.17724 -2.37386,-6.67506 -4.65586,-8.15262 -1.66525,-1.07823 -1.71994,-1.21243 -1.42358,-3.49353 0.40995,-3.15541 -0.0296,-4.65697 -1.56846,-5.35812 -2.45583,-1.11895 -4.79953,0.71911 -4.82343,3.7828 -0.0266,3.41085 -3.44823,7.92546 -7.18932,9.48585 -1.04342,0.43521 -3.31626,0.92833 -5.05077,1.09584 -1.7345,0.16751 -3.691317,0.6409 -4.348471,1.052 -1.073096,0.67129 -1.171626,1.02718 -0.967131,3.49315 0.698198,8.41931 11.865752,13.46352 21.674042,9.78983 z"
       id="path4880"
       inkscape:connector-curvature="0"
       transform="matrix(0.26458333,0,0,0.26458333,0,210.00002)" />
    <path
       style="opacity:1;fill:#ffffff;fill-opacity:1;stroke:none;stroke-width:1.84213638;stroke-linecap:round;stroke-linejoin:round;stroke-miterlimit:4;stroke-dasharray:none;stroke-opacity:1"
       d="m 10.815123,241.10382 c -0.811794,-0.89703 -0.8728101,-1.92141 -0.654332,-10.98541 0.26865,-11.1455 0.961844,-14.46543 3.967962,-19.00384 2.600001,-3.92529 4.014707,-4.37682 13.713011,-4.37682 h 8.246946 l 0.62236,8.71256 c 0.342298,4.79191 1.026121,11.04877 1.519606,13.90413 0.827939,4.79055 0.833821,5.24897 0.07615,5.93465 -1.865897,1.68861 -4.529628,0.0742 -4.529628,-2.74537 0,-0.68386 -0.470695,-2.21571 -1.045989,-3.40411 -3.099668,-6.40306 -12.902702,-6.49788 -16.138039,-0.15609 -0.776881,1.52281 -0.998718,2.97181 -0.998718,6.52345 0,3.89238 -0.148993,4.7148 -1.010153,5.57596 -1.278901,1.27891 -2.623938,1.28636 -3.769175,0.0209 z"
       id="path4882"
       inkscape:connector-curvature="0"
       transform="matrix(0.26458333,0,0,0.26458333,0,210.00002)" />
    <path
       style="opacity:1;fill:#ffffff;fill-opacity:1;stroke:none;stroke-width:1.84213638;stroke-linecap:round;stroke-linejoin:round;stroke-miterlimit:4;stroke-dasharray:none;stroke-opacity:1"
       d="m 172.49891,241.16943 c -0.63481,-0.70146 -0.83589,-1.92035 -0.83589,-5.06698 0,-7.60752 -3.15164,-11.72664 -8.99642,-11.75811 -5.39413,-0.029 -8.62622,2.80965 -9.44944,8.29927 -0.38639,2.57668 -1.42685,3.57881 -3.42001,3.29401 -1.92561,-0.27515 -2.51067,-2.38443 -1.60716,-5.79416 1.34201,-5.06462 2.25375,-12.32675 2.25685,-17.97614 l 0.003,-5.42957 h 8.34999 c 9.31039,0 10.77455,0.3402 13.03721,3.02922 3.69773,4.3945 4.85879,9.01389 5.23327,20.82104 0.24728,7.79677 0.17599,9.11516 -0.55303,10.2278 -0.99304,1.51556 -2.8212,1.67645 -4.01834,0.35362 z"
       id="path4884"
       inkscape:connector-curvature="0"
       transform="matrix(0.26458333,0,0,0.26458333,0,210.00002)" />
    <path
       style="opacity:1;fill:#c83737;fill-opacity:1;stroke:none;stroke-width:1.84213638;stroke-linecap:round;stroke-linejoin:round;stroke-miterlimit:4;stroke-dasharray:none;stroke-opacity:1"
       d="m 87.076493,245.56649 c -4.364301,-3.08595 -5.92931,-3.18503 -10.885499,-0.68913 l -3.522925,1.77411 v -8.8699 -8.8699 l 3.205265,1.79248 c 4.607242,2.57652 6.736214,2.48438 10.973372,-0.47491 1.785572,-1.24707 3.427003,-2.26984 3.647625,-2.27284 0.220621,-0.003 1.894859,1.01733 3.720527,2.26739 4.109101,2.81357 5.945282,2.94225 10.338532,0.72455 1.68694,-0.85157 3.17254,-1.44292 3.30133,-1.31413 0.1288,0.1288 0.3687,4.02831 0.53311,8.66557 l 0.29893,8.4314 -3.60206,-1.81397 c -5.04791,-2.54209 -6.603189,-2.45043 -11.017017,0.64928 l -3.507545,2.46325 z"
       id="path4886"
       inkscape:connector-curvature="0"
       transform="matrix(0.26458333,0,0,0.26458333,0,210.00002)" />
    <path
       style="opacity:1;fill:#c83737;fill-opacity:1;stroke:none;stroke-width:1.84213638;stroke-linecap:round;stroke-linejoin:round;stroke-miterlimit:4;stroke-dasharray:none;stroke-opacity:1"
       d="m 107.89235,208.54122 c -3.81135,-1.36004 -3.83417,-1.86905 -0.13957,-3.11337 3.2717,-1.1019 6.02026,-2.82835 8.16432,-5.12825 1.29646,-1.39068 2.45247,-1.08639 3.4892,0.91843 1.12327,2.17216 0.90044,3.43893 -0.92626,5.26563 -2.61094,2.61094 -6.77121,3.41942 -10.58769,2.05756 z"
       id="path4888"
       inkscape:connector-curvature="0"
       transform="matrix(0.26458333,0,0,0.26458333,0,210.00002)" />
    <path
       style="opacity:1;fill:#c83737;fill-opacity:1;stroke:none;stroke-width:1.84213638;stroke-linecap:round;stroke-linejoin:round;stroke-miterlimit:4;stroke-dasharray:none;stroke-opacity:1"
       d="m 69.558132,208.80025 c -5.379229,-1.74297 -7.233741,-5.91936 -3.94862,-8.89235 0.915654,-0.82866 1.065034,-0.77273 3.37695,1.26441 2.866556,2.52585 4.50313,3.43088 8.202123,4.53581 l 2.752748,0.82228 -1.859734,1.14938 c -2.042724,1.26247 -6.34127,1.82755 -8.523467,1.12047 z"
       id="path4890"
       inkscape:connector-curvature="0"
       transform="matrix(0.26458333,0,0,0.26458333,0,210.00002)" />
  </g>
</svg>
