<?xml version="1.0" encoding="UTF-8" standalone="no"?>
<!-- Created with Inkscape (http://www.inkscape.org/) -->

<svg
   xmlns:dc="http://purl.org/dc/elements/1.1/"
   xmlns:cc="http://creativecommons.org/ns#"
   xmlns:rdf="http://www.w3.org/1999/02/22-rdf-syntax-ns#"
   xmlns:svg="http://www.w3.org/2000/svg"
   xmlns="http://www.w3.org/2000/svg"
   xmlns:sodipodi="http://sodipodi.sourceforge.net/DTD/sodipodi-0.dtd"
   xmlns:inkscape="http://www.inkscape.org/namespaces/inkscape"
   width="5cm"
   height="5.8000002cm"
   viewBox="0 0 50 58.000001"
   version="1.1"
   id="svg8"
   inkscape:version="0.92.4 (5da689c313, 2019-01-14)"
   sodipodi:docname="e-raton.svg">
  <defs
     id="defs2" />
  <sodipodi:namedview
     id="base"
     pagecolor="#ffffff"
     bordercolor="#666666"
     borderopacity="1.0"
     inkscape:pageopacity="0.0"
     inkscape:pageshadow="2"
     inkscape:zoom="1.979899"
     inkscape:cx="106.96275"
     inkscape:cy="151.58187"
     inkscape:document-units="mm"
     inkscape:current-layer="layer1"
     showgrid="false"
     inkscape:pagecheckerboard="true"
     units="cm"
     fit-margin-top="0"
     fit-margin-left="0"
     fit-margin-right="0"
     fit-margin-bottom="0"
     inkscape:window-width="1920"
     inkscape:window-height="986"
     inkscape:window-x="-11"
     inkscape:window-y="-11"
     inkscape:window-maximized="1" />
  <metadata
     id="metadata5">
    <rdf:RDF>
      <cc:Work
         rdf:about="">
        <dc:format>image/svg+xml</dc:format>
        <dc:type
           rdf:resource="http://purl.org/dc/dcmitype/StillImage" />
        <dc:title></dc:title>
      </cc:Work>
    </rdf:RDF>
  </metadata>
  <g
     inkscape:label="Capa 1"
     inkscape:groupmode="layer"
     id="layer1"
     transform="translate(0,-239.00002)">
    <g
       id="g4628"
       transform="matrix(0.20947998,0,0,0.20947998,8.8908204,240.81071)" />
    <g
       id="g4630"
       transform="matrix(0.20947998,0,0,0.20947998,8.8908204,240.81071)" />
    <g
       id="g4632"
       transform="matrix(0.20947998,0,0,0.20947998,8.8908204,240.81071)" />
    <g
       id="g4634"
       transform="matrix(0.20947998,0,0,0.20947998,8.8908204,240.81071)" />
    <g
       id="g4636"
       transform="matrix(0.20947998,0,0,0.20947998,8.8908204,240.81071)" />
    <g
       id="g4638"
       transform="matrix(0.20947998,0,0,0.20947998,8.8908204,240.81071)" />
    <g
       id="g4640"
       transform="matrix(0.20947998,0,0,0.20947998,8.8908204,240.81071)" />
    <g
       id="g4642"
       transform="matrix(0.20947998,0,0,0.20947998,8.8908204,240.81071)" />
    <g
       id="g4644"
       transform="matrix(0.20947998,0,0,0.20947998,8.8908204,240.81071)" />
    <g
       id="g4646"
       transform="matrix(0.20947998,0,0,0.20947998,8.8908204,240.81071)" />
    <g
       id="g4648"
       transform="matrix(0.20947998,0,0,0.20947998,8.8908204,240.81071)" />
    <g
       id="g4650"
       transform="matrix(0.20947998,0,0,0.20947998,8.8908204,240.81071)" />
    <g
       id="g4652"
       transform="matrix(0.20947998,0,0,0.20947998,8.8908204,240.81071)" />
    <g
       id="g4654"
       transform="matrix(0.20947998,0,0,0.20947998,8.8908204,240.81071)" />
    <g
       id="g4656"
       transform="matrix(0.20947998,0,0,0.20947998,8.8908204,240.81071)" />
    <path
       style="opacity:0.73000004;fill:#00b000;fill-opacity:0;stroke:none;stroke-width:2.03303146;stroke-linecap:round;stroke-linejoin:round;stroke-miterlimit:4;stroke-dasharray:none;stroke-opacity:1"
       d="M 24.325222,319.80868 C 17.066537,317.5278 11.509842,311.21911 10.064241,303.61774 9.6390343,301.38188 9.5270087,264.49903 9.6369978,162.954 L 9.7860763,25.320713 10.9189,22.542794 c 2.310358,-5.665476 6.536692,-9.750628 12.635954,-12.213849 L 26.453593,9.1582727 91.860971,9.0123866 c 42.645419,-0.095117 66.901399,0.035037 69.700529,0.374004 10.0464,1.2165954 17.31368,8.1296824 18.71202,17.8000534 0.65559,4.533771 0.60935,270.858146 -0.0478,275.405466 -1.02453,7.08934 -5.26974,12.9923 -11.55594,16.06856 l -3.32018,1.62479 -69.447989,0.0961 c -56.431667,0.0781 -69.846899,-0.0292 -71.576359,-0.57268 z M 86.486358,278.4902 c 1.072085,-0.97647 55.339962,-92.8099 58.341262,-98.72652 3.38408,-6.67121 3.37065,-14.93098 -0.0365,-22.45378 l -1.52688,-3.37125 2.61866,-4.53734 c 1.84327,-3.19385 3.03908,-4.7115 4.03852,-5.12548 0.78093,-0.32347 2.05708,-1.25323 2.8359,-2.06614 1.15735,-1.20802 1.45698,-2.04414 1.64019,-4.57705 0.21375,-2.95511 0.64335,-3.81075 9.24991,-18.42355 9.25449,-15.71289 9.97787,-17.39984 8.14186,-18.98699 -2.06551,-1.785565 -16.05077,-9.620278 -17.17254,-9.620278 -0.67466,0 -1.59064,0.363973 -2.0355,0.808834 -0.44486,0.444856 -7.325,11.890124 -15.2892,25.433924 l -14.48038,24.62509 -4.50221,0.60308 c -4.85501,0.65033 -8.77494,1.97847 -11.6943,3.96223 -1.01055,0.68668 -1.99064,1.08101 -2.17798,0.87628 -0.18733,-0.20473 -1.31894,-2.61357 -2.51469,-5.35297 -1.19575,-2.7394 -2.585057,-5.23738 -3.087351,-5.55106 -0.502268,-0.31369 -0.913233,-0.82877 -0.913233,-1.14461 0,-0.31586 -0.340927,-0.85723 -0.757615,-1.20305 -0.852422,-0.70744 -0.967231,-1.91715 -0.284368,-2.99625 0.377873,-0.59713 1.220709,-0.34886 4.828337,1.42225 4.16321,2.04388 4.42866,2.10759 5.5954,1.34312 2.89162,-1.89466 0.46059,-4.98667 -5.74544,-7.30757 l -2.967836,-1.1099 2.191146,-4.3659 c 1.20512,-2.40123 2.19114,-4.63596 2.19114,-4.96604 0,-0.44427 0.55326,-0.47584 2.13007,-0.12156 2.87599,0.6462 4.34502,0.20459 4.75514,-1.42945 0.47365,-1.88717 -0.32771,-2.84186 -3.02488,-3.60364 l -2.3451,-0.66236 -0.0758,-5.0214 c -0.0417,-2.76178 -0.0985,-5.304552 -0.12627,-5.650625 -0.0316,-0.393889 0.98844,-0.76109 2.72741,-0.981808 5.70472,-0.724087 10.50876,-3.264959 14.43987,-7.637299 8.88749,-9.885024 8.26811,-24.988951 -1.39147,-33.932019 -9.72512,-9.003747 -24.06315,-8.789391 -33.538063,0.5014 -3.597688,3.527776 -5.895816,7.895064 -6.832682,12.984617 l -0.623683,3.388167 -2.315699,-0.33288 c -3.158201,-0.453993 -5.877961,-0.454367 -8.895772,-0.001 l -2.539463,0.381322 -0.549432,-3.41178 C 63.962876,65.156226 61.898932,61.225692 58.045261,57.34827 48.403812,47.647391 33.660243,47.557706 23.892547,57.140519 14.34103,66.511244 14.264299,81.90208 23.721945,91.360128 c 2.832709,2.832826 9.092665,6.439031 11.177427,6.439031 0.493973,0 0.898132,0.212546 0.898132,0.472322 0,0.259776 0.910455,1.112092 2.023232,1.894039 l 2.023233,1.42171 -0.129197,4.03568 -0.129196,4.03568 -2.513506,0.35823 c -3.495334,0.49816 -4.925065,2.74751 -2.981652,4.69092 0.663135,0.66313 1.453234,0.75738 4.166879,0.49703 l 3.348584,-0.32126 0.979305,2.44324 c 0.538618,1.34377 1.618218,3.53283 2.399113,4.86457 1.624762,2.77087 1.654126,2.88196 0.761745,2.88196 -0.361935,0 -2.504443,0.89289 -4.76113,1.98419 -4.460461,2.15703 -5.626611,3.46865 -4.765085,5.3595 0.896519,1.96764 2.179711,1.91552 6.436526,-0.26144 5.825794,-2.97934 6.04204,-2.83581 3.398744,2.25589 -5.195114,10.00719 -10.157166,23.45966 -12.577479,34.09842 -1.422228,6.25156 -1.601267,13.70575 -0.446813,18.60278 0.587895,2.49377 2.849098,7.96293 4.656525,11.26271 0.09596,0.17519 -0.409367,0.46506 -1.122949,0.64416 -1.878666,0.47152 -5.322554,3.76333 -6.390569,6.10838 -1.360395,2.98702 -1.24343,6.56331 0.263958,8.0707 1.663992,1.664 3.438565,1.89113 13.247727,1.69566 7.499188,-0.14943 8.739379,-0.29469 10.289089,-1.20507 1.731327,-1.01708 1.818601,-1.01949 4.996718,-0.13822 1.779037,0.49331 3.34346,1.00578 3.476492,1.13881 0.133037,0.13304 -4.579722,8.43295 -10.472794,18.44427 -5.893072,10.01131 -10.825177,18.62494 -10.960233,19.14139 -0.14356,0.54898 0.242894,1.47502 0.930392,2.22947 0.912333,1.00117 34.766929,21.28016 40.824435,24.45394 1.73825,0.91074 2.276884,0.84283 3.71676,-0.46862 z"
       id="path4778"
       inkscape:connector-curvature="0"
       transform="matrix(0.26458333,0,0,0.26458333,0,210.00002)" />
    <path
       style="opacity:0.73000004;fill:#00b000;fill-opacity:0;stroke:none;stroke-width:2.03303146;stroke-linecap:round;stroke-linejoin:round;stroke-miterlimit:4;stroke-dasharray:none;stroke-opacity:1"
       d="M 24.325222,319.80868 C 17.066537,317.5278 11.509842,311.21911 10.064241,303.61774 9.6390343,301.38188 9.5270087,264.49903 9.6369978,162.954 L 9.7860763,25.320713 10.9189,22.542794 c 2.310358,-5.665476 6.536692,-9.750628 12.635954,-12.213849 L 26.453593,9.1582727 91.860971,9.0123866 c 42.645419,-0.095117 66.901399,0.035037 69.700529,0.374004 10.0464,1.2165954 17.31368,8.1296824 18.71202,17.8000534 0.65559,4.533771 0.60935,270.858146 -0.0478,275.405466 -1.02453,7.08934 -5.26974,12.9923 -11.55594,16.06856 l -3.32018,1.62479 -69.447989,0.0961 c -56.431667,0.0781 -69.846899,-0.0292 -71.576359,-0.57268 z M 86.486358,278.4902 c 1.072085,-0.97647 55.339962,-92.8099 58.341262,-98.72652 3.38408,-6.67121 3.37065,-14.93098 -0.0365,-22.45378 l -1.52688,-3.37125 2.61866,-4.53734 c 1.84327,-3.19385 3.03908,-4.7115 4.03852,-5.12548 0.78093,-0.32347 2.05708,-1.25323 2.8359,-2.06614 1.15735,-1.20802 1.45698,-2.04414 1.64019,-4.57705 0.21375,-2.95511 0.64335,-3.81075 9.24991,-18.42355 9.25449,-15.71289 9.97787,-17.39984 8.14186,-18.98699 -2.06551,-1.785565 -16.05077,-9.620278 -17.17254,-9.620278 -0.67466,0 -1.59064,0.363973 -2.0355,0.808834 -0.44486,0.444856 -7.325,11.890124 -15.2892,25.433924 l -14.48038,24.62509 -4.50221,0.60308 c -4.85501,0.65033 -8.77494,1.97847 -11.6943,3.96223 -1.01055,0.68668 -1.99064,1.08101 -2.17798,0.87628 -0.18733,-0.20473 -1.31894,-2.61357 -2.51469,-5.35297 -1.19575,-2.7394 -2.585057,-5.23738 -3.087351,-5.55106 -0.502268,-0.31369 -0.913233,-0.82877 -0.913233,-1.14461 0,-0.31586 -0.340927,-0.85723 -0.757615,-1.20305 -0.852422,-0.70744 -0.967231,-1.91715 -0.284368,-2.99625 0.377873,-0.59713 1.220709,-0.34886 4.828337,1.42225 4.16321,2.04388 4.42866,2.10759 5.5954,1.34312 2.89162,-1.89466 0.46059,-4.98667 -5.74544,-7.30757 l -2.967836,-1.1099 2.191146,-4.3659 c 1.20512,-2.40123 2.19114,-4.63596 2.19114,-4.96604 0,-0.44427 0.55326,-0.47584 2.13007,-0.12156 2.87599,0.6462 4.34502,0.20459 4.75514,-1.42945 0.47365,-1.88717 -0.32771,-2.84186 -3.02488,-3.60364 l -2.3451,-0.66236 -0.0758,-5.0214 c -0.0417,-2.76178 -0.0985,-5.304552 -0.12627,-5.650625 -0.0316,-0.393889 0.98844,-0.76109 2.72741,-0.981808 5.70472,-0.724087 10.50876,-3.264959 14.43987,-7.637299 8.88749,-9.885024 8.26811,-24.988951 -1.39147,-33.932019 -9.72512,-9.003747 -24.06315,-8.789391 -33.538063,0.5014 -3.597688,3.527776 -5.895816,7.895064 -6.832682,12.984617 l -0.623683,3.388167 -2.315699,-0.33288 c -3.158201,-0.453993 -5.877961,-0.454367 -8.895772,-0.001 l -2.539463,0.381322 -0.549432,-3.41178 C 63.962876,65.156226 61.898932,61.225692 58.045261,57.34827 48.403812,47.647391 33.660243,47.557706 23.892547,57.140519 14.34103,66.511244 14.264299,81.90208 23.721945,91.360128 c 2.832709,2.832826 9.092665,6.439031 11.177427,6.439031 0.493973,0 0.898132,0.212546 0.898132,0.472322 0,0.259776 0.910455,1.112092 2.023232,1.894039 l 2.023233,1.42171 -0.129197,4.03568 -0.129196,4.03568 -2.513506,0.35823 c -3.495334,0.49816 -4.925065,2.74751 -2.981652,4.69092 0.663135,0.66313 1.453234,0.75738 4.166879,0.49703 l 3.348584,-0.32126 0.979305,2.44324 c 0.538618,1.34377 1.618218,3.53283 2.399113,4.86457 1.624762,2.77087 1.654126,2.88196 0.761745,2.88196 -0.361935,0 -2.504443,0.89289 -4.76113,1.98419 -4.460461,2.15703 -5.626611,3.46865 -4.765085,5.3595 0.896519,1.96764 2.179711,1.91552 6.436526,-0.26144 5.825794,-2.97934 6.04204,-2.83581 3.398744,2.25589 -5.195114,10.00719 -10.157166,23.45966 -12.577479,34.09842 -1.422228,6.25156 -1.601267,13.70575 -0.446813,18.60278 0.587895,2.49377 2.849098,7.96293 4.656525,11.26271 0.09596,0.17519 -0.409367,0.46506 -1.122949,0.64416 -1.878666,0.47152 -5.322554,3.76333 -6.390569,6.10838 -1.360395,2.98702 -1.24343,6.56331 0.263958,8.0707 1.663992,1.664 3.438565,1.89113 13.247727,1.69566 7.499188,-0.14943 8.739379,-0.29469 10.289089,-1.20507 1.731327,-1.01708 1.818601,-1.01949 4.996718,-0.13822 1.779037,0.49331 3.34346,1.00578 3.476492,1.13881 0.133037,0.13304 -4.579722,8.43295 -10.472794,18.44427 -5.893072,10.01131 -10.825177,18.62494 -10.960233,19.14139 -0.14356,0.54898 0.242894,1.47502 0.930392,2.22947 0.912333,1.00117 34.766929,21.28016 40.824435,24.45394 1.73825,0.91074 2.276884,0.84283 3.71676,-0.46862 z"
       id="path4780"
       inkscape:connector-curvature="0"
       transform="matrix(0.26458333,0,0,0.26458333,0,210.00002)" />
    <g
       id="g4612"
       transform="matrix(0.10143887,0,0,0.10143887,0.65076283,243.01777)">
      <path
         id="path4610"
         d="m 190.557,165.314 c 3.76,1.496 8.191,-0.3 9.741,-4.196 1.531,-3.849 -0.348,-8.21 -4.196,-9.742 -5.126,-2.04 -10.517,-3.073 -16.027,-3.073 -0.119,0 -0.24,0 -0.36,0.001 -5.392,0.044 -10.667,1.078 -15.677,3.072 -3.849,1.532 -5.727,5.894 -4.195,9.742 1.532,3.849 5.896,5.728 9.742,4.195 3.277,-1.304 6.727,-1.98 10.253,-2.009 3.706,-0.033 7.293,0.647 10.719,2.01 z M 447.75,249.18 c -46.234,0 -83.85,37.615 -83.85,83.85 v 30.05 c 0,16.404 -10.316,30.735 -25.096,36.343 -0.082,-7.268 -0.88,-14.6 -2.394,-21.814 -7.705,-36.708 -20.465,-73.443 -37.081,-107.001 -1.838,-3.712 -6.34,-5.23 -10.05,-3.392 -3.712,1.839 -5.23,6.338 -3.392,10.05 4.74,9.568 9.183,19.439 13.204,29.338 1.525,3.754 2.98,7.541 4.401,11.341 1.321,8.407 3.188,32.693 -14.345,52.384 -7.262,8.154 -16.843,14.209 -27.706,17.511 -0.979,0.297 -1.985,0.448 -2.991,0.448 -4.475,0 -8.51,-2.995 -9.813,-7.284 -0.797,-2.623 -0.524,-5.399 0.767,-7.817 1.291,-2.418 3.447,-4.189 6.07,-4.986 5.057,-1.537 12.343,-4.783 18.344,-11.521 12.45,-13.982 9.93,-32.572 9.298,-36.156 -0.718,-4.079 -4.604,-6.806 -8.688,-6.085 -4.079,0.719 -6.804,4.608 -6.084,8.688 0.258,1.465 2.29,14.573 -5.729,23.579 -0.395,0.444 -0.805,0.852 -1.219,1.248 -11.115,-17.622 -28.569,-28.262 -47.146,-28.262 -18.553,0 -35.995,10.621 -47.118,28.215 -0.398,-0.384 -0.793,-0.775 -1.174,-1.203 -8.019,-9.005 -5.986,-22.113 -5.729,-23.579 0.72,-4.079 -2.005,-7.969 -6.084,-8.688 -4.075,-0.718 -7.969,2.005 -8.688,6.085 -0.632,3.584 -3.152,22.175 9.297,36.156 6.001,6.739 13.289,9.985 18.345,11.521 5.415,1.646 8.481,7.39 6.837,12.804 -1.304,4.289 -5.339,7.284 -9.814,7.284 -1.006,0 -2.012,-0.151 -2.989,-0.447 -0.649,-0.197 -1.293,-0.406 -1.933,-0.623 -0.046,-0.018 -0.094,-0.03 -0.14,-0.047 -10.011,-3.418 -18.839,-9.211 -25.634,-16.842 -17.777,-19.963 -15.612,-44.654 -14.292,-52.727 1.381,-3.685 2.795,-7.357 4.275,-10.999 7.026,-17.305 15.233,-34.235 24.428,-50.477 25.488,28.392 54.128,47.544 56.28,48.965 2.374,1.568 5.427,1.656 7.885,0.235 0.981,-0.567 24.312,-14.155 47.94,-37.168 7.279,-7.09 13.765,-14.304 19.455,-21.598 10.578,2.191 20.553,6.369 29.582,12.398 3.41,2.277 8.082,1.404 10.402,-2.071 2.3,-3.445 1.373,-8.102 -2.072,-10.402 -8.824,-5.894 -18.415,-10.289 -28.563,-13.101 6.76,-10.565 11.844,-21.242 15.18,-31.906 4.556,0.514 8.542,1.427 11.755,2.388 3.972,1.187 8.147,-1.068 9.335,-5.037 1.187,-3.968 -1.068,-8.147 -5.036,-9.334 -3.497,-1.046 -7.739,-2.05 -12.559,-2.702 2.025,-12.493 1.473,-24.942 -1.164,-36.804 41.122,-0.274 74.494,-33.802 74.494,-74.987 0,-41.355 -33.645,-75 -75,-75 -41.012,0 -74.422,33.093 -74.974,73.976 -20.725,-4.63 -29.426,-3.614 -45.047,0.205 C 191.287,33.204 157.831,0 116.75,0 c -41.355,0 -75,33.645 -75,75 0,33.039 21.179,61.823 52.7,71.627 3.854,1.199 8.146,-0.932 9.39,-4.934 1.229,-3.956 -0.979,-8.159 -4.935,-9.389 C 73.69,124.462 56.75,101.433 56.75,75 c 0,-33.084 26.916,-60 60,-60 34.673,0 62.406,29.746 59.836,64.412 -15.515,6.838 -26.778,16.538 -33.465,23.434 -27.626,28.487 -32.235,57.144 -28.054,82.65 -5.259,0.361 -10.506,1.159 -15.669,2.415 -4.024,0.979 -6.494,5.035 -5.516,9.06 0.979,4.024 5.028,6.498 9.061,5.516 4.256,-1.035 9.693,-1.962 15.933,-2.172 3.886,11.397 9.76,22.355 16.693,32.609 -10.818,2.779 -21.031,7.319 -30.377,13.561 -3.445,2.3 -4.372,6.958 -2.072,10.402 2.319,3.474 6.996,4.346 10.402,2.071 8.588,-5.735 18.024,-9.8 28.049,-12.082 0.096,-0.022 0.193,-0.038 0.29,-0.06 -23.117,40.586 -40.182,85.152 -49.77,130.793 -6.223,29.624 -0.178,60.031 16.587,84.882 -16.082,3.531 -28.157,17.883 -28.157,35.01 0,3.874 1.509,7.516 4.226,10.232 2.73,2.752 6.379,4.268 10.274,4.268 h 49.851 c 6.587,0 12.871,-2.624 17.513,-7.104 12.451,4.648 25.8,7.103 39.515,7.103 h 24.7 c 13.894,0 27.202,-2.525 39.494,-7.126 4.644,4.494 10.939,7.126 17.537,7.126 h 49.851 c 3.896,0 7.544,-1.516 10.252,-4.246 2.739,-2.738 4.248,-6.38 4.248,-10.254 0,-17.11 -12.052,-31.45 -28.111,-34.999 3.349,-4.955 6.307,-10.191 8.831,-15.663 44.547,-1.92 80.2,-38.747 80.2,-83.757 v -30.05 c 0,-21.422 17.428,-38.85 38.85,-38.85 12.406,0 22.5,-10.093 22.5,-22.5 0,-12.407 -10.096,-22.501 -22.502,-22.501 z m -221.388,32.555 c -4.94,3.585 -9.066,6.331 -11.869,8.126 -2.899,-2.073 -7.254,-5.284 -12.486,-9.441 -0.015,-0.239 -0.047,-0.482 -0.047,-0.719 0,-6.764 5.514,-12.266 12.291,-12.266 6.777,0 12.291,5.502 12.291,12.266 -0.001,0.677 -0.062,1.357 -0.18,2.034 z M 311.75,15 c 33.084,0 60,26.916 60,60 0,33.084 -26.916,60 -60,60 -1.396,0 -2.785,-0.05 -4.16,-0.145 -6.287,-15.997 -14.836,-26.553 -17.21,-29.303 C 278.525,91.827 264.584,83.579 251.862,78.623 249.782,44.14 277.235,15 311.75,15 Z M 135.368,201.539 c 1.7,0.315 3.424,0.687 5.174,1.142 8.683,2.255 16.867,6.023 24.326,11.2 3.369,2.338 8.057,1.544 10.438,-1.885 2.362,-3.403 1.518,-8.076 -1.885,-10.438 -8.916,-6.188 -18.709,-10.694 -29.107,-13.396 -4.572,-1.187 -9.243,-2.008 -13.959,-2.466 -4.496,-22.736 -0.925,-47.188 23.535,-72.409 20.13,-20.757 52.659,-33.954 87.711,-22.482 12.884,4.217 25.174,10.363 37.428,24.55 1.365,1.58 10.331,12.36 15.988,28.807 0.037,0.113 0.074,0.226 0.117,0.337 4.636,11.972 5.641,28.195 3.186,41.668 -4.42,0.227 -9.084,0.821 -13.942,1.949 -10.646,2.472 -20.556,7.032 -29.454,13.554 -3.341,2.449 -4.064,7.142 -1.615,10.483 2.466,3.364 7.171,4.043 10.482,1.616 7.254,-5.316 15.321,-9.031 23.979,-11.042 2.16,-0.501 4.27,-0.863 6.333,-1.13 -3.738,10.214 -9.119,19.841 -15.37,28.739 -6.663,-0.706 -13.39,-0.738 -20.105,-0.081 -4.123,0.403 -7.138,4.072 -6.735,8.194 0.403,4.122 4.063,7.14 8.194,6.734 2.423,-0.237 4.846,-0.36 7.267,-0.387 -8.892,10.185 -18.488,19.05 -27.222,26.27 -3.624,-10.814 -13.853,-18.632 -25.88,-18.632 -11.44,0 -21.253,7.073 -25.303,17.069 -7.969,-7.008 -16.674,-15.347 -24.924,-24.62 1.464,0.067 2.928,0.157 4.392,0.3 4.123,0.411 7.791,-2.612 8.194,-6.734 0.402,-4.123 -2.612,-7.791 -6.735,-8.194 -5.965,-0.583 -11.936,-0.608 -17.863,-0.116 -6.678,-9.031 -12.502,-18.655 -16.645,-28.6 z m 58.92,183.825 c 3.739,-12.309 -2.417,-25.303 -13.879,-30.409 8.38,-12.818 20.61,-20.265 33.841,-20.265 13.024,0 25.466,7.613 33.836,20.3 -11.412,5.131 -17.533,18.093 -13.801,30.374 3.177,10.458 12.502,17.548 23.351,17.89 -1.833,11.448 -6.372,21.902 -13.184,30.08 -8.254,9.909 -18.979,15.366 -30.202,15.366 -11.224,0 -21.95,-5.459 -30.205,-15.372 -6.81,-8.178 -11.348,-18.628 -13.18,-30.071 10.88,-0.312 20.239,-7.412 23.423,-17.893 z M 144.87,497 H 95.525 c 0.267,-11.267 9.515,-20.35 20.845,-20.35 h 3.617 c 7.566,8.061 16.181,14.879 25.564,20.306 -0.226,0.015 -0.45,0.044 -0.681,0.044 z m 188.105,0 H 283.63 c -0.253,0 -0.5,-0.03 -0.749,-0.048 9.529,-5.504 18.168,-12.361 25.654,-20.302 h 3.595 c 11.33,0 20.578,9.083 20.845,20.35 z M 226.6,497 h -24.7 c -61.877,-10e-4 -107.672,-56.586 -95.131,-116.309 1.87,-8.906 4.045,-17.771 6.484,-26.571 2.816,8.688 7.463,17.752 14.97,26.184 7.378,8.286 16.634,14.831 27.076,19.197 3.184,36.384 28.309,64.199 58.95,64.199 30.628,0 55.75,-27.8 58.948,-64.167 10.472,-4.366 19.754,-10.923 27.152,-19.229 7.473,-8.392 12.11,-17.411 14.93,-26.062 2.425,8.76 4.589,17.584 6.451,26.449 C 334.124,439.71 288.048,497.224 226.6,497 Z M 447.75,279.18 c -29.692,0 -53.85,24.157 -53.85,53.85 v 30.05 c 0,34.755 -25.891,63.56 -59.395,68.185 1.486,-5.15 2.604,-10.453 3.33,-15.876 23.784,-5.809 41.065,-27.318 41.065,-52.308 v -30.05 c 0,-37.964 30.886,-68.85 68.85,-68.85 4.136,0 7.5,3.364 7.5,7.5 0,4.136 -3.364,7.499 -7.5,7.499 z M 237.943,165.314 c 3.279,-1.305 6.729,-1.98 10.254,-2.009 0.078,-0.001 0.157,-0.001 0.236,-0.001 3.604,0 7.131,0.676 10.482,2.01 3.76,1.497 8.192,-0.299 9.742,-4.195 1.531,-3.848 -0.347,-8.21 -4.195,-9.742 -5.236,-2.084 -10.73,-3.099 -16.389,-3.072 -5.391,0.044 -10.664,1.077 -15.676,3.071 -3.849,1.531 -5.728,5.893 -4.196,9.742 1.533,3.849 5.897,5.727 9.742,4.196 z"
         inkscape:connector-curvature="0" />
    </g>
    <path
       style="opacity:1;fill:#000000;fill-opacity:1;stroke:none;stroke-width:0.86138618;stroke-linecap:round;stroke-linejoin:round;stroke-miterlimit:4;stroke-dasharray:none;stroke-opacity:1"
       id="path4629"
       d="m 10.83939,256.64896 c 0.341579,-0.0183 0.673611,0.0351 1.003551,0.11657 0.246755,0.0804 0.517546,0.0556 0.748539,0.17817 0.15614,0.0877 0.286181,0.20861 0.443052,0.29558 0,0 -0.791228,0.51375 -0.791228,0.51375 v 0 c -0.151013,-0.0908 -0.283547,-0.20749 -0.440386,-0.28848 -0.23166,-0.0969 -0.495077,-0.0824 -0.732651,-0.16521 -0.327345,-0.0778 -0.658065,-0.11594 -0.995241,-0.0951 0,0 0.764364,-0.55534 0.764364,-0.55534 z"
       inkscape:connector-curvature="0" />
    <path
       style="opacity:1;fill:#000000;fill-opacity:1;stroke:none;stroke-width:0.86138618;stroke-linecap:round;stroke-linejoin:round;stroke-miterlimit:4;stroke-dasharray:none;stroke-opacity:1"
       id="path4631"
       d="m 11.439682,257.14585 c 0.327046,0.0895 0.660224,0.15105 0.99678,0.19013 0.26143,0.0271 0.524419,0.0296 0.786967,0.0309 0.03675,0.006 0.07352,0.0128 0.110274,0.0192 0,0 -0.771322,0.54444 -0.771322,0.54444 v 0 c -0.03402,-0.004 -0.06806,-0.008 -0.102081,-0.0101 -0.263977,-0.003 -0.528389,-0.009 -0.790688,-0.0417 -0.337457,-0.0454 -0.66917,-0.11771 -1.002013,-0.18841 0,0 0.772086,-0.54439 0.772086,-0.54439 z"
       inkscape:connector-curvature="0" />
    <path
       style="opacity:1;fill:#000000;fill-opacity:1;stroke:none;stroke-width:0.86138618;stroke-linecap:round;stroke-linejoin:round;stroke-miterlimit:4;stroke-dasharray:none;stroke-opacity:1"
       id="path4633"
       d="m 11.20467,257.16549 c 0.298986,0.10974 0.544562,0.31517 0.832848,0.44662 0.215519,0.062 0.424355,0.14589 0.644563,0.19125 0.105735,0.0375 0.213992,0.0661 0.322857,0.0928 0,0 -0.776878,0.53529 -0.776878,0.53529 v 0 c -0.107859,-0.0287 -0.21477,-0.0601 -0.322238,-0.0901 -0.222098,-0.0547 -0.438454,-0.13375 -0.653457,-0.21049 -0.27924,-0.1387 -0.524679,-0.34162 -0.826902,-0.43172 0,0 0.779207,-0.53364 0.779207,-0.53364 z"
       inkscape:connector-curvature="0" />
    <path
       style="opacity:1;fill:#000000;fill-opacity:1;stroke:none;stroke-width:0.86138618;stroke-linecap:round;stroke-linejoin:round;stroke-miterlimit:4;stroke-dasharray:none;stroke-opacity:1"
       id="path4635"
       d="m 29.813579,270.79768 c -0.190035,-0.27726 -0.353993,-0.57082 -0.531272,-0.85629 -0.174604,-0.20795 -0.255293,-0.4581 -0.349829,-0.7059 -0.0927,-0.19606 -0.153617,-0.40385 -0.231248,-0.60544 0,0 0.825097,-0.45957 0.825097,-0.45957 v 0 c 0.07846,0.20147 0.136639,0.41059 0.230939,0.60628 0.09198,0.24267 0.164819,0.48906 0.33782,0.69214 0.175369,0.28532 0.332466,0.58271 0.533413,0.85126 0,0 -0.81492,0.47752 -0.81492,0.47752 z"
       inkscape:connector-curvature="0" />
    <path
       style="opacity:1;fill:#000000;fill-opacity:1;stroke:none;stroke-width:0.86138618;stroke-linecap:round;stroke-linejoin:round;stroke-miterlimit:4;stroke-dasharray:none;stroke-opacity:1"
       id="path4637"
       d="m 30.181642,271.01436 c -0.127375,-0.31249 -0.293799,-0.60361 -0.473465,-0.88803 -0.119251,-0.21301 -0.209326,-0.44136 -0.268342,-0.67805 -0.02043,-0.21504 -0.127021,-0.39346 -0.240235,-0.57075 -0.06515,-0.12226 -0.03197,-0.0609 -0.09954,-0.18376 0,0 0.818488,-0.47066 0.818488,-0.47066 v 0 c 0.06799,0.12163 0.03568,0.0621 0.09716,0.17848 0.117784,0.18533 0.233225,0.37437 0.25411,0.5987 0.05327,0.22811 0.140424,0.44663 0.251782,0.65268 0.179006,0.29034 0.341151,0.58865 0.483088,0.89915 0,0 -0.823049,0.46224 -0.823049,0.46224 z"
       inkscape:connector-curvature="0" />
    <path
       style="opacity:1;fill:#000000;fill-opacity:1;stroke:none;stroke-width:0.86138618;stroke-linecap:round;stroke-linejoin:round;stroke-miterlimit:4;stroke-dasharray:none;stroke-opacity:1"
       id="path4639"
       d="m 28.702182,268.22368 c 0.02783,0.11405 0.04763,0.22989 0.08769,0.3406 0.02731,0.0726 0.06731,0.13972 0.106051,0.20668 0.03134,0.0679 0.04854,0.14221 0.06639,0.21478 0.03172,0.0708 0.06451,0.14058 0.09331,0.21292 0.04447,0.0651 0.06823,0.14018 0.103636,0.20984 0.03683,0.0716 0.101575,0.1105 0.160358,0.16048 0.04935,0.0548 0.09615,0.11114 0.143855,0.16727 0.0622,0.0502 0.106063,0.10772 0.133502,0.18258 0.02191,0.0761 0.02014,0.15527 0.03649,0.23236 0.0056,0.0697 0.03195,0.12087 0.07294,0.17525 0.04463,0.0624 0.09686,0.11492 0.130379,0.18483 0.02921,0.0665 0.04708,0.13688 0.07155,0.20493 0.02642,0.0639 0.03581,0.13232 0.05662,0.19797 0.01556,0.0363 0.034,0.0664 0.06502,0.0908 0,0 -0.283919,0.17697 -0.283919,0.17697 v 0 c -0.03326,-0.0306 -0.05648,-0.0651 -0.07408,-0.10696 -0.0209,-0.0652 -0.03062,-0.13287 -0.05595,-0.19675 -0.0247,-0.0669 -0.04098,-0.13683 -0.06961,-0.20246 -0.03191,-0.068 -0.08501,-0.11745 -0.127358,-0.17869 -0.04371,-0.0576 -0.07404,-0.11416 -0.07991,-0.18799 -0.01665,-0.0759 -0.01649,-0.15299 -0.03422,-0.22865 -0.02493,-0.0721 -0.07011,-0.12264 -0.127544,-0.17196 -0.04678,-0.0545 -0.09167,-0.11025 -0.140768,-0.16259 -0.0632,-0.0517 -0.127614,-0.0975 -0.166852,-0.17215 -0.03653,-0.0703 -0.06053,-0.14628 -0.105267,-0.21244 -0.02996,-0.0736 -0.06257,-0.14516 -0.09568,-0.21711 -0.0167,-0.0697 -0.03426,-0.14039 -0.06238,-0.20617 -0.03949,-0.0688 -0.07974,-0.13816 -0.107315,-0.2127 -0.04016,-0.11139 -0.05937,-0.22778 -0.09013,-0.34183 0,0 0.293178,-0.15983 0.293178,-0.15983 z"
       inkscape:connector-curvature="0" />
    <path
       style="opacity:1;fill:#000000;fill-opacity:1;stroke:none;stroke-width:0.86138618;stroke-linecap:round;stroke-linejoin:round;stroke-miterlimit:4;stroke-dasharray:none;stroke-opacity:1"
       id="path4641"
       d="m 29.468875,267.87675 c 0.0599,0.0958 0.122424,0.18758 0.161565,0.29424 0.0257,0.0742 0.06561,0.14355 0.118378,0.20179 0.03666,0.0506 0.07384,0.1009 0.111159,0.15109 0.02379,0.0101 0.08561,0.13683 0.0728,0.0765 -0.415003,0.24757 -0.20967,0.18004 -0.307478,-0.005 -0.05688,-0.0689 -0.08299,-0.15513 -0.12859,-0.2304 -0.04286,-0.0659 -0.09543,-0.12264 -0.137633,-0.1894 -0.04593,-0.0741 -0.06195,-0.15832 -0.07121,-0.24355 -0.01795,-0.16577 0.07113,-0.13023 0.309454,-0.21555 0.0052,-0.001 0.01075,0.0302 0.01637,0.0583 0.0052,0.069 0.01353,0.13802 0.03701,0.20349 0.02534,0.0526 0.04978,0.11176 0.09222,0.15302 0.04841,0.0515 0.0772,0.11859 0.110034,0.18061 0.02699,0.0716 0.05619,0.14075 0.09449,0.20702 0.02626,0.0727 0.08036,0.12706 0.121969,0.19025 0.0061,0.0114 0.01201,0.0239 0.01811,0.0358 0.0025,0.005 0.01389,0.0303 0.02206,0.0371 0.0014,8.8e-4 -4e-5,-0.006 -0.0019,-0.005 -0.313197,0.16186 -0.214643,0.23725 -0.319932,0.14558 -0.06365,-0.045 -0.08525,-0.11517 -0.113978,-0.18321 -0.02366,-0.0655 -0.04583,-0.1316 -0.06717,-0.198 -0.02168,-0.0751 -0.02513,-0.15364 -0.02785,-0.23133 -0.0019,-0.0841 -0.0016,-0.16816 -0.0014,-0.25224 1.86e-4,-0.0845 2.36e-4,-0.1689 2.36e-4,-0.25334 -0.008,-0.0573 -0.01644,-0.11531 -0.03352,-0.17056 0,0 0.292952,-0.16084 0.292952,-0.16084 v 0 c 0.0191,0.0583 0.02711,0.11973 0.03763,0.18006 -4.7e-5,0.0845 -1.29e-4,0.16891 -2.36e-4,0.25338 -1.6e-4,0.0837 -7.09e-4,0.16745 9.82e-4,0.25116 0.0021,0.0747 0.0044,0.15031 0.02414,0.22294 0.0205,0.0656 0.04324,0.13041 0.06551,0.19535 0.02717,0.0641 0.04544,0.12897 0.107176,0.16995 0.10222,0.092 0.03474,0.0192 -0.247723,0.21424 -0.0025,0.001 -0.04186,-0.0783 -0.04323,-0.0818 -0.042,-0.0636 -0.09668,-0.11872 -0.123435,-0.19174 -0.0383,-0.0668 -0.06805,-0.13613 -0.09439,-0.20841 -0.03157,-0.0592 -0.05984,-0.12289 -0.106203,-0.17195 -0.04343,-0.047 -0.07241,-0.10759 -0.09898,-0.16523 -0.02497,-0.0666 -0.03606,-0.13746 -0.04003,-0.20833 -0.02497,-0.15142 -0.06499,-0.0114 0.277772,-0.21173 0.0032,-10e-4 -0.0075,0.003 -0.0092,0.005 -0.0035,0.006 -0.0052,0.0129 -0.0056,0.0198 -7.09e-4,0.0101 0.0014,0.0211 0.0021,0.0317 0.0075,0.0803 0.02029,0.16011 0.0638,0.2299 0.04265,0.0666 0.09632,0.12327 0.13791,0.19023 0.04535,0.0761 0.07222,0.16238 0.129681,0.23166 0.118011,0.21683 -0.0047,0.21673 -0.246248,0.38007 -0.04138,-0.0303 -0.05756,-0.0807 -0.0963,-0.11442 -0.03708,-0.0493 -0.07285,-0.0995 -0.109502,-0.14897 -0.05385,-0.0628 -0.09653,-0.13492 -0.12336,-0.21346 -0.03658,-0.10481 -0.09729,-0.19474 -0.158635,-0.28654 0,0 0.288118,-0.16883 0.288118,-0.16883 z"
       inkscape:connector-curvature="0" />
    <path
       style="opacity:1;fill:#000000;fill-opacity:1;stroke:none;stroke-width:0.86138618;stroke-linecap:round;stroke-linejoin:round;stroke-miterlimit:4;stroke-dasharray:none;stroke-opacity:1"
       id="path4643"
       d="m 28.632041,269.04191 c 0.09352,0.0693 0.169378,0.15704 0.239312,0.24928 0.04509,0.0755 0.121286,0.12099 0.17841,0.18522 0.03558,0.0596 0.06351,0.12276 0.09881,0.18273 0.03533,0.0614 0.035,0.13335 0.06314,0.19725 0.03662,0.0626 0.07009,0.12504 0.09847,0.192 0.04192,0.0666 0.08429,0.13126 0.111766,0.20531 0.01049,0.07 0.05112,0.11973 0.09432,0.17215 0.0578,0.0441 0.09866,0.10355 0.144379,0.15882 0.0598,0.0511 0.117089,0.10507 0.172362,0.16101 0.04354,0.0527 0.0824,0.10962 0.130033,0.15889 0.0431,0.0542 0.103345,0.0894 0.14883,0.14068 0.03925,0.0363 0.06617,0.0833 0.09365,0.1288 0,0 -0.289282,0.16784 -0.289282,0.16784 v 0 c -0.02649,-0.0436 -0.0525,-0.0884 -0.09025,-0.1234 -0.04637,-0.0497 -0.105331,-0.0867 -0.148626,-0.14006 -0.04615,-0.0502 -0.08572,-0.10583 -0.128852,-0.15854 -0.05648,-0.0564 -0.115179,-0.11012 -0.174138,-0.16373 -0.04529,-0.0559 -0.08882,-0.11239 -0.144943,-0.15829 -0.04545,-0.0547 -0.08812,-0.10961 -0.09924,-0.18249 -0.02634,-0.0738 -0.07041,-0.13689 -0.11102,-0.20358 -0.02885,-0.0665 -0.06146,-0.12909 -0.09838,-0.19136 -0.02893,-0.063 -0.03,-0.13203 -0.06169,-0.19389 -0.03411,-0.058 -0.06136,-0.11923 -0.09481,-0.1773 -0.0584,-0.064 -0.134014,-0.11176 -0.179027,-0.18823 -0.06735,-0.0899 -0.140113,-0.17605 -0.23444,-0.23908 0,0 0.281228,-0.18007 0.281228,-0.18007 z"
       inkscape:connector-curvature="0" />
    <path
       style="opacity:1;fill:#6c5d53;fill-opacity:1;stroke:none;stroke-width:0.43506572;stroke-linecap:round;stroke-linejoin:round;stroke-miterlimit:4;stroke-dasharray:none;stroke-opacity:1"
       d="m 31.649898,256.08155 c -0.350526,-0.85228 -1.28232,-2.19258 -2.051589,-2.95104 -0.785333,-0.77426 -1.53492,-1.30031 -2.65612,-1.86397 l -0.756414,-0.38028 0.08265,-0.73832 c 0.166667,-1.48898 0.707515,-2.65667 1.712136,-3.69649 1.860552,-1.92576 4.622892,-2.38645 7.024325,-1.17151 3.683218,1.86344 4.394415,6.85908 1.378168,9.68064 -1.157069,1.08238 -2.527649,1.66641 -3.90824,1.66538 l -0.601191,-4.6e-4 z"
       id="path4645"
       inkscape:connector-curvature="0" />
    <path
       style="opacity:1;fill:#6c5d53;fill-opacity:1;stroke:none;stroke-width:0.43506572;stroke-linecap:round;stroke-linejoin:round;stroke-miterlimit:4;stroke-dasharray:none;stroke-opacity:1"
       d="m 24.850484,270.01828 c -0.219773,-0.42078 -0.733661,-0.89816 -1.267253,-1.17722 -0.603543,-0.31565 -1.818816,-0.29616 -2.456659,0.0393 -0.470542,0.24754 -1.149491,0.91058 -1.273418,1.24356 -0.03862,0.1038 -0.466689,-0.24046 -1.209285,-0.97254 l -1.149492,-1.13322 0.359754,-0.0742 c 0.522686,-0.10785 0.719082,-0.31965 0.719082,-0.77536 0,-0.69625 -0.311922,-0.88004 -1.493483,-0.88004 h -1.016338 l -0.518686,-0.80518 c -0.610777,-0.94815 -1.06595,-1.82015 -0.989823,-1.89628 0.104635,-0.10468 1.58104,0.45565 2.267409,0.86046 0.381944,0.22526 0.843314,0.40956 1.025266,0.40956 0.45573,0 0.751643,-0.35871 0.704224,-0.85367 -0.03205,-0.33457 -0.143915,-0.46832 -0.694285,-0.83017 -0.821892,-0.54035 -2.077702,-1.04143 -3.028081,-1.20824 -0.401189,-0.0704 -0.796532,-0.21025 -0.878541,-0.31078 -0.212216,-0.26009 -0.191383,-2.30716 0.0324,-3.1837 0.586279,-2.29642 2.53243,-4.57698 4.887984,-5.72787 2.439966,-1.19213 4.992035,-1.16527 7.530786,0.0793 2.681441,1.31449 4.580534,4.44881 4.575301,7.55121 -0.0021,1.22773 -0.07481,1.50124 -0.399967,1.50388 -1.069986,0.009 -3.526091,0.9641 -4.129379,1.60628 -0.324383,0.34528 -0.348447,0.81821 -0.05797,1.13919 0.311227,0.3439 0.773071,0.28836 1.562512,-0.18788 0.645989,-0.38972 2.259633,-0.98049 2.37178,-0.86835 0.07054,0.0706 -0.481024,1.22514 -0.968984,2.02841 l -0.421508,0.69387 h -1.098039 c -1.347564,0 -1.628268,0.14394 -1.628268,0.83501 0,0.55644 0.316432,0.83499 0.948523,0.83499 h 0.418292 l -1.071086,1.08173 c -1.344384,1.35772 -1.428442,1.40746 -1.652772,0.97796 z m -5.740483,-10.30477 c 1.635487,0.0951 1.647713,0.0934 1.831812,-0.2325 0.246498,-0.43646 0.0959,-0.8988 -0.372285,-1.14292 -0.500365,-0.26089 -2.055084,-0.35376 -2.797733,-0.1671 -0.716693,0.18012 -0.987874,0.42171 -0.987874,0.88006 0,0.19789 0.09394,0.46373 0.20875,0.59074 0.181791,0.20112 0.293481,0.21841 0.864826,0.134 0.36084,-0.0534 0.924467,-0.0813 1.252504,-0.0623 z m 6.918597,0.005 c 1.685911,0.0837 1.647587,0.0886 1.831814,-0.23755 0.445125,-0.78814 -0.201295,-1.31566 -1.712528,-1.39751 -1.913731,-0.10368 -2.911598,0.56778 -2.249228,1.51344 0.18183,0.2596 0.24492,0.27316 0.864825,0.18601 0.367777,-0.0517 0.93708,-0.0807 1.265117,-0.0643 z"
       id="path4647"
       inkscape:connector-curvature="0" />
    <path
       style="opacity:1;fill:#6c5d53;fill-opacity:1;stroke:none;stroke-width:0.43506572;stroke-linecap:round;stroke-linejoin:round;stroke-miterlimit:4;stroke-dasharray:none;stroke-opacity:1"
       d="m 11.705519,256.69226 c -1.117863,-0.22264 -2.689105,-1.03923 -3.435146,-1.78526 -1.1967562,-1.19677 -1.7509348,-2.53742 -1.7546937,-4.24489 -0.00657,-3.01307 2.0945597,-5.47474 5.1091147,-5.9856 2.672168,-0.45284 5.641814,1.33829 6.539693,3.94441 0.223387,0.64839 0.415671,1.91234 0.338,2.2218 -0.03913,0.15589 -0.283838,0.36292 -0.623103,0.52717 -1.819828,0.88101 -4.006084,3.13485 -4.841272,4.99092 -0.247923,0.55097 -0.240138,0.54903 -1.332593,0.33145 z"
       id="path4649"
       inkscape:connector-curvature="0" />
    <path
       style="opacity:1;fill:#6c5d53;fill-opacity:1;stroke:none;stroke-width:0.43506572;stroke-linecap:round;stroke-linejoin:round;stroke-miterlimit:4;stroke-dasharray:none;stroke-opacity:1"
       d="m 21.803542,271.89138 c -0.333318,-0.26347 -0.606033,-0.53413 -0.606033,-0.60147 0,-0.23975 0.36406,-0.82123 0.589823,-0.94206 0.600493,-0.32136 1.418339,-0.0306 1.678134,0.59657 0.192149,0.46389 0.115154,0.62031 -0.520631,1.05774 l -0.535259,0.36827 z"
       id="path4651"
       inkscape:connector-curvature="0" />
    <path
       style="opacity:1;fill:#6c5d53;fill-opacity:1;stroke:none;stroke-width:0.43506572;stroke-linecap:round;stroke-linejoin:round;stroke-miterlimit:4;stroke-dasharray:none;stroke-opacity:1"
       d="m 17.128912,282.11138 c -0.993431,-0.40866 -1.449037,-0.72456 -2.173397,-1.50696 -1.079593,-1.16608 -1.630892,-2.61161 -1.630892,-4.27624 0,-0.73291 0.07331,-1.07127 0.427457,-1.97298 0.379031,-0.96507 2.145332,-4.67656 2.402309,-5.04793 0.06773,-0.0979 0.474215,0.22163 1.300068,1.02191 1.382864,1.34005 3.687677,3.22414 4.428947,3.62048 l 0.506967,0.27105 0.563069,-0.29801 c 0.895995,-0.47422 3.268376,-2.29729 4.43841,-3.41073 0.590595,-0.56202 1.130171,-0.98702 1.199053,-0.94445 0.06889,0.0426 0.207516,0.27429 0.308062,0.51494 0.100551,0.24064 0.284081,0.54563 0.407847,0.67774 0.254984,0.27217 0.985479,1.814 1.696242,3.58021 0.471498,1.17164 0.478888,1.21301 0.415523,2.32608 -0.106278,1.8668 -0.686383,3.13537 -1.971999,4.31236 -0.757758,0.69373 -2.019596,1.3418 -2.612583,1.3418 -0.526495,0 -0.912754,-0.39294 -0.912754,-0.92856 0,-0.54177 0.186963,-0.74175 1.06617,-1.1404 0.963472,-0.43686 1.640899,-1.06319 2.046431,-1.89207 0.272695,-0.55737 0.336272,-0.86698 0.374749,-1.82493 0.04214,-1.04925 0.02354,-1.17647 -0.205573,-1.40559 -0.316839,-0.31684 -0.865021,-0.32442 -1.144291,-0.0158 -0.161955,0.17895 -0.218855,0.46142 -0.235194,1.16753 -0.01684,0.72752 -0.08251,1.03992 -0.299946,1.4268 l -0.278391,0.49532 -0.827631,-0.88621 c -2.064078,-2.21019 -4.809776,-2.53086 -7.181161,-0.83867 -0.41049,0.29291 -0.952646,0.80309 -1.204791,1.13374 l -0.458445,0.60114 -0.216837,-0.32589 c -0.311972,-0.46889 -0.462704,-1.11306 -0.43792,-1.87153 0.01609,-0.49272 -0.03342,-0.72214 -0.194214,-0.89982 -0.246544,-0.27243 -0.7489,-0.31165 -1.061733,-0.0829 -0.511316,0.37389 -0.458842,2.21644 0.09538,3.34923 0.401207,0.82004 0.953052,1.33019 2.001478,1.85027 1.022058,0.507 1.287439,0.87696 1.046439,1.45877 -0.129411,0.31243 -0.644101,0.70632 -0.912522,0.69836 -0.05247,-10e-4 -0.396412,-0.12667 -0.76433,-0.27801 z"
       id="path4653"
       inkscape:connector-curvature="0" />
    <path
       style="opacity:1;fill:#6c5d53;fill-opacity:1;stroke:none;stroke-width:0.43506572;stroke-linecap:round;stroke-linejoin:round;stroke-miterlimit:4;stroke-dasharray:none;stroke-opacity:1"
       d="m 19.706431,293.28748 c -2.581866,-0.40161 -5.062144,-1.92759 -6.560473,-4.03631 -1.721031,-2.42214 -2.190844,-5.14097 -1.442881,-8.35003 0.183501,-0.78729 0.363757,-1.48069 0.40057,-1.54091 0.03682,-0.0602 0.184932,0.1545 0.329153,0.47714 0.59467,1.33037 1.63355,2.43651 3.158259,3.36272 0.737342,0.44793 0.779251,0.49808 0.854708,1.02284 0.213752,1.48654 1.037341,3.14953 2.072402,4.18459 2.895338,2.89534 7.281741,1.92561 9.133485,-2.01921 0.365263,-0.77813 0.703023,-1.95441 0.703023,-2.44834 0,-0.2417 0.09934,-0.35793 0.447325,-0.52335 0.671314,-0.31913 1.849728,-1.19013 2.292578,-1.6945 0.52534,-0.59833 1.125646,-1.55379 1.324258,-2.10771 0.152856,-0.42632 0.167742,-0.43638 0.264532,-0.17893 0.375377,0.99849 0.708086,2.98328 0.705589,4.20925 -0.0087,4.3089 -2.885011,8.09773 -7.12179,9.38143 -0.726113,0.22001 -1.185005,0.25718 -3.518941,0.285 -1.476166,0.0176 -2.844974,0.006 -3.041797,-0.0236 z"
       id="path4655"
       inkscape:connector-curvature="0" />
    <path
       style="opacity:1;fill:#6c5d53;fill-opacity:1;stroke:none;stroke-width:0.43506572;stroke-linecap:round;stroke-linejoin:round;stroke-miterlimit:4;stroke-dasharray:none;stroke-opacity:1"
       d="m 34.681897,286.60653 c 0.0028,-0.0544 0.0717,-0.38425 0.153162,-0.73296 0.144725,-0.61957 0.163446,-0.64028 0.820314,-0.90724 1.372889,-0.55799 2.320242,-1.47713 2.993226,-2.90407 l 0.378837,-0.80325 0.07396,-2.80323 c 0.06909,-2.61896 0.09501,-2.86595 0.394274,-3.75752 0.778406,-2.31899 2.568571,-3.99546 4.904331,-4.59285 1.633572,-0.4178 2.324748,-0.26619 2.324748,0.50993 0,0.39799 -0.399054,0.68327 -0.95577,0.68327 -0.632409,0 -1.775286,0.32804 -2.384243,0.68435 -0.819778,0.47966 -1.718822,1.39295 -2.129253,2.16299 -0.593498,1.11353 -0.729862,1.93968 -0.731851,4.43387 -0.0019,2.46016 -0.111007,3.09918 -0.750482,4.39815 -0.690887,1.40339 -2.223834,2.78133 -3.707118,3.33227 -0.789994,0.29344 -1.390551,0.42199 -1.384132,0.29629 z"
       id="path4657"
       inkscape:connector-curvature="0" />
    <path
       style="opacity:1;fill:#6c5d53;fill-opacity:1;stroke:none;stroke-width:0.43506572;stroke-linecap:round;stroke-linejoin:round;stroke-miterlimit:4;stroke-dasharray:none;stroke-opacity:1"
       d="m 29.666825,293.32276 c 0,-0.024 0.228136,-0.19327 0.506965,-0.37596 0.278833,-0.18268 0.817327,-0.5992 1.196655,-0.92558 0.650065,-0.55934 0.720258,-0.58997 1.221919,-0.53343 0.856589,0.0966 1.726623,0.92004 1.726623,1.63426 0,0.23812 -0.06074,0.2445 -2.326081,0.2445 -1.279343,0 -2.326081,-0.0197 -2.326081,-0.0437 z"
       id="path4659"
       inkscape:connector-curvature="0" />
    <path
       style="opacity:1;fill:#6c5d53;fill-opacity:1;stroke:none;stroke-width:0.43506572;stroke-linecap:round;stroke-linejoin:round;stroke-miterlimit:4;stroke-dasharray:none;stroke-opacity:1"
       d="m 10.461754,293.08598 c 0,-0.33941 0.421134,-0.98364 0.851199,-1.30212 0.172924,-0.12806 0.56039,-0.26057 0.861033,-0.29445 0.519259,-0.0585 0.581153,-0.032 1.236311,0.53143 0.379327,0.32617 0.925874,0.76238 1.214548,0.96938 l 0.524864,0.37633 h -2.343977 -2.343978 z"
       id="path4661"
       inkscape:connector-curvature="0" />
    <path
       style="opacity:1;fill:#ac9d93;fill-opacity:1;stroke:none;stroke-width:0.43506572;stroke-linecap:round;stroke-linejoin:round;stroke-miterlimit:4;stroke-dasharray:none;stroke-opacity:1"
       d="m 21.355464,288.31132 c -0.970885,-0.31764 -1.832163,-1.03815 -2.465713,-2.06273 -0.302275,-0.48885 -0.793683,-1.78795 -0.793683,-2.09821 0,-0.0869 0.238532,-0.22175 0.53007,-0.29973 1.567789,-0.41931 2.329302,-2.28555 1.531068,-3.75216 -0.178522,-0.328 -0.506752,-0.72015 -0.729401,-0.87145 l -0.404814,-0.27508 0.565437,-0.6045 c 0.821491,-0.87823 1.675804,-1.26347 2.801943,-1.26347 1.117723,0 1.813959,0.31188 2.725789,1.22103 l 0.638283,0.63641 -0.473346,0.34288 c -0.629225,0.45581 -0.982148,1.20206 -0.982148,2.07676 0,1.17911 0.761301,2.19689 1.863875,2.49178 0.531954,0.14227 0.537416,0.14892 0.464043,0.56435 -0.241651,1.3682 -1.531703,3.11676 -2.723263,3.69119 -0.704068,0.33941 -1.851611,0.43081 -2.54814,0.20293 z"
       id="path4663"
       inkscape:connector-curvature="0" />
    <path
       style="opacity:1;fill:#ac9d93;fill-opacity:1;stroke:none;stroke-width:0.43506572;stroke-linecap:round;stroke-linejoin:round;stroke-miterlimit:4;stroke-dasharray:none;stroke-opacity:1"
       d="m 21.81541,271.82611 c -0.540615,-0.46276 -0.602291,-0.68425 -0.307649,-1.10492 0.549926,-0.78513 1.956184,-0.40104 1.956184,0.53429 0,0.24824 -0.780756,0.99742 -1.039448,0.99742 -0.06076,0 -0.334847,-0.19206 -0.609087,-0.42679 z"
       id="path4665"
       inkscape:connector-curvature="0" />
  </g>
</svg>
