<?xml version="1.0" encoding="UTF-8" standalone="no"?>
<!-- Created with Inkscape (http://www.inkscape.org/) -->

<svg
   xmlns:dc="http://purl.org/dc/elements/1.1/"
   xmlns:cc="http://creativecommons.org/ns#"
   xmlns:rdf="http://www.w3.org/1999/02/22-rdf-syntax-ns#"
   xmlns:svg="http://www.w3.org/2000/svg"
   xmlns="http://www.w3.org/2000/svg"
   xmlns:sodipodi="http://sodipodi.sourceforge.net/DTD/sodipodi-0.dtd"
   xmlns:inkscape="http://www.inkscape.org/namespaces/inkscape"
   width="5cm"
   height="8.6999998cm"
   viewBox="0 0 50 86.999996"
   version="1.1"
   id="svg8"
   inkscape:version="0.92.4 (5da689c313, 2019-01-14)"
   sodipodi:docname="fantasma2.svg">
  <defs
     id="defs2" />
  <sodipodi:namedview
     id="base"
     pagecolor="#ffffff"
     bordercolor="#666666"
     borderopacity="1.0"
     inkscape:pageopacity="0.0"
     inkscape:pageshadow="2"
     inkscape:zoom="1.979899"
     inkscape:cx="101.40691"
     inkscape:cy="152.69338"
     inkscape:document-units="mm"
     inkscape:current-layer="layer1"
     showgrid="false"
     inkscape:pagecheckerboard="true"
     units="cm"
     fit-margin-top="0"
     fit-margin-left="0"
     fit-margin-right="0"
     fit-margin-bottom="0"
     inkscape:window-width="1920"
     inkscape:window-height="986"
     inkscape:window-x="-11"
     inkscape:window-y="-11"
     inkscape:window-maximized="1" />
  <metadata
     id="metadata5">
    <rdf:RDF>
      <cc:Work
         rdf:about="">
        <dc:format>image/svg+xml</dc:format>
        <dc:type
           rdf:resource="http://purl.org/dc/dcmitype/StillImage" />
        <dc:title />
      </cc:Work>
    </rdf:RDF>
  </metadata>
  <g
     inkscape:label="Capa 1"
     inkscape:groupmode="layer"
     id="layer1"
     transform="translate(0,-210.00002)">
    <g
       id="g4628"
       transform="matrix(0.20947998,0,0,0.20947998,8.8908204,240.81071)" />
    <g
       id="g4630"
       transform="matrix(0.20947998,0,0,0.20947998,8.8908204,240.81071)" />
    <g
       id="g4632"
       transform="matrix(0.20947998,0,0,0.20947998,8.8908204,240.81071)" />
    <g
       id="g4634"
       transform="matrix(0.20947998,0,0,0.20947998,8.8908204,240.81071)" />
    <g
       id="g4636"
       transform="matrix(0.20947998,0,0,0.20947998,8.8908204,240.81071)" />
    <g
       id="g4638"
       transform="matrix(0.20947998,0,0,0.20947998,8.8908204,240.81071)" />
    <g
       id="g4640"
       transform="matrix(0.20947998,0,0,0.20947998,8.8908204,240.81071)" />
    <g
       id="g4642"
       transform="matrix(0.20947998,0,0,0.20947998,8.8908204,240.81071)" />
    <g
       id="g4644"
       transform="matrix(0.20947998,0,0,0.20947998,8.8908204,240.81071)" />
    <g
       id="g4646"
       transform="matrix(0.20947998,0,0,0.20947998,8.8908204,240.81071)" />
    <g
       id="g4648"
       transform="matrix(0.20947998,0,0,0.20947998,8.8908204,240.81071)" />
    <g
       id="g4650"
       transform="matrix(0.20947998,0,0,0.20947998,8.8908204,240.81071)" />
    <g
       id="g4652"
       transform="matrix(0.20947998,0,0,0.20947998,8.8908204,240.81071)" />
    <g
       id="g4654"
       transform="matrix(0.20947998,0,0,0.20947998,8.8908204,240.81071)" />
    <g
       id="g4656"
       transform="matrix(0.20947998,0,0,0.20947998,8.8908204,240.81071)" />
    <rect
       style="opacity:1;fill:#ffa300;fill-opacity:1;stroke:#399271;stroke-width:2.11612773;stroke-linecap:round;stroke-linejoin:round;stroke-miterlimit:4;stroke-dasharray:none;stroke-opacity:1"
       id="rect4620"
       width="47.446022"
       height="84.656914"
       x="1.4355676"
       y="211.30846"
       rx="6.6000047"
       ry="6.6000047" />
    <g
       id="g4685"
       transform="matrix(0.08494911,0,0,0.08494911,2.607344,219.24207)">
      <path
         id="path4683"
         d="m 190.557,165.314 c 3.76,1.496 8.191,-0.3 9.741,-4.196 1.531,-3.849 -0.348,-8.21 -4.196,-9.742 -5.126,-2.04 -10.517,-3.073 -16.027,-3.073 -0.119,0 -0.24,0 -0.36,0.001 -5.392,0.044 -10.667,1.078 -15.677,3.072 -3.849,1.532 -5.727,5.894 -4.195,9.742 1.532,3.849 5.896,5.728 9.742,4.195 3.277,-1.304 6.727,-1.98 10.253,-2.009 3.706,-0.033 7.293,0.647 10.719,2.01 z M 447.75,249.18 c -46.234,0 -83.85,37.615 -83.85,83.85 v 30.05 c 0,16.404 -10.316,30.735 -25.096,36.343 -0.082,-7.268 -0.88,-14.6 -2.394,-21.814 -7.705,-36.708 -20.465,-73.443 -37.081,-107.001 -1.838,-3.712 -6.34,-5.23 -10.05,-3.392 -3.712,1.839 -5.23,6.338 -3.392,10.05 4.74,9.568 9.183,19.439 13.204,29.338 1.525,3.754 2.98,7.541 4.401,11.341 1.321,8.407 3.188,32.693 -14.345,52.384 -7.262,8.154 -16.843,14.209 -27.706,17.511 -0.979,0.297 -1.985,0.448 -2.991,0.448 -4.475,0 -8.51,-2.995 -9.813,-7.284 -0.797,-2.623 -0.524,-5.399 0.767,-7.817 1.291,-2.418 3.447,-4.189 6.07,-4.986 5.057,-1.537 12.343,-4.783 18.344,-11.521 12.45,-13.982 9.93,-32.572 9.298,-36.156 -0.718,-4.079 -4.604,-6.806 -8.688,-6.085 -4.079,0.719 -6.804,4.608 -6.084,8.688 0.258,1.465 2.29,14.573 -5.729,23.579 -0.395,0.444 -0.805,0.852 -1.219,1.248 -11.115,-17.622 -28.569,-28.262 -47.146,-28.262 -18.553,0 -35.995,10.621 -47.118,28.215 -0.398,-0.384 -0.793,-0.775 -1.174,-1.203 -8.019,-9.005 -5.986,-22.113 -5.729,-23.579 0.72,-4.079 -2.005,-7.969 -6.084,-8.688 -4.075,-0.718 -7.969,2.005 -8.688,6.085 -0.632,3.584 -3.152,22.175 9.297,36.156 6.001,6.739 13.289,9.985 18.345,11.521 5.415,1.646 8.481,7.39 6.837,12.804 -1.304,4.289 -5.339,7.284 -9.814,7.284 -1.006,0 -2.012,-0.151 -2.989,-0.447 -0.649,-0.197 -1.293,-0.406 -1.933,-0.623 -0.046,-0.018 -0.094,-0.03 -0.14,-0.047 -10.011,-3.418 -18.839,-9.211 -25.634,-16.842 -17.777,-19.963 -15.612,-44.654 -14.292,-52.727 1.381,-3.685 2.795,-7.357 4.275,-10.999 7.026,-17.305 15.233,-34.235 24.428,-50.477 25.488,28.392 54.128,47.544 56.28,48.965 2.374,1.568 5.427,1.656 7.885,0.235 0.981,-0.567 24.312,-14.155 47.94,-37.168 7.279,-7.09 13.765,-14.304 19.455,-21.598 10.578,2.191 20.553,6.369 29.582,12.398 3.41,2.277 8.082,1.404 10.402,-2.071 2.3,-3.445 1.373,-8.102 -2.072,-10.402 -8.824,-5.894 -18.415,-10.289 -28.563,-13.101 6.76,-10.565 11.844,-21.242 15.18,-31.906 4.556,0.514 8.542,1.427 11.755,2.388 3.972,1.187 8.147,-1.068 9.335,-5.037 1.187,-3.968 -1.068,-8.147 -5.036,-9.334 -3.497,-1.046 -7.739,-2.05 -12.559,-2.702 2.025,-12.493 1.473,-24.942 -1.164,-36.804 41.122,-0.274 74.494,-33.802 74.494,-74.987 0,-41.355 -33.645,-75 -75,-75 -41.012,0 -74.422,33.093 -74.974,73.976 -20.725,-4.63 -29.426,-3.614 -45.047,0.205 C 191.287,33.204 157.831,0 116.75,0 c -41.355,0 -75,33.645 -75,75 0,33.039 21.179,61.823 52.7,71.627 3.854,1.199 8.146,-0.932 9.39,-4.934 1.229,-3.956 -0.979,-8.159 -4.935,-9.389 C 73.69,124.462 56.75,101.433 56.75,75 c 0,-33.084 26.916,-60 60,-60 34.673,0 62.406,29.746 59.836,64.412 -15.515,6.838 -26.778,16.538 -33.465,23.434 -27.626,28.487 -32.235,57.144 -28.054,82.65 -5.259,0.361 -10.506,1.159 -15.669,2.415 -4.024,0.979 -6.494,5.035 -5.516,9.06 0.979,4.024 5.028,6.498 9.061,5.516 4.256,-1.035 9.693,-1.962 15.933,-2.172 3.886,11.397 9.76,22.355 16.693,32.609 -10.818,2.779 -21.031,7.319 -30.377,13.561 -3.445,2.3 -4.372,6.958 -2.072,10.402 2.319,3.474 6.996,4.346 10.402,2.071 8.588,-5.735 18.024,-9.8 28.049,-12.082 0.096,-0.022 0.193,-0.038 0.29,-0.06 -23.117,40.586 -40.182,85.152 -49.77,130.793 -6.223,29.624 -0.178,60.031 16.587,84.882 -16.082,3.531 -28.157,17.883 -28.157,35.01 0,3.874 1.509,7.516 4.226,10.232 2.73,2.752 6.379,4.268 10.274,4.268 h 49.851 c 6.587,0 12.871,-2.624 17.513,-7.104 12.451,4.648 25.8,7.103 39.515,7.103 h 24.7 c 13.894,0 27.202,-2.525 39.494,-7.126 4.644,4.494 10.939,7.126 17.537,7.126 h 49.851 c 3.896,0 7.544,-1.516 10.252,-4.246 2.739,-2.738 4.248,-6.38 4.248,-10.254 0,-17.11 -12.052,-31.45 -28.111,-34.999 3.349,-4.955 6.307,-10.191 8.831,-15.663 44.547,-1.92 80.2,-38.747 80.2,-83.757 v -30.05 c 0,-21.422 17.428,-38.85 38.85,-38.85 12.406,0 22.5,-10.093 22.5,-22.5 0,-12.407 -10.096,-22.501 -22.502,-22.501 z m -221.388,32.555 c -4.94,3.585 -9.066,6.331 -11.869,8.126 -2.899,-2.073 -7.254,-5.284 -12.486,-9.441 -0.015,-0.239 -0.047,-0.482 -0.047,-0.719 0,-6.764 5.514,-12.266 12.291,-12.266 6.777,0 12.291,5.502 12.291,12.266 -0.001,0.677 -0.062,1.357 -0.18,2.034 z M 311.75,15 c 33.084,0 60,26.916 60,60 0,33.084 -26.916,60 -60,60 -1.396,0 -2.785,-0.05 -4.16,-0.145 -6.287,-15.997 -14.836,-26.553 -17.21,-29.303 C 278.525,91.827 264.584,83.579 251.862,78.623 249.782,44.14 277.235,15 311.75,15 Z M 135.368,201.539 c 1.7,0.315 3.424,0.687 5.174,1.142 8.683,2.255 16.867,6.023 24.326,11.2 3.369,2.338 8.057,1.544 10.438,-1.885 2.362,-3.403 1.518,-8.076 -1.885,-10.438 -8.916,-6.188 -18.709,-10.694 -29.107,-13.396 -4.572,-1.187 -9.243,-2.008 -13.959,-2.466 -4.496,-22.736 -0.925,-47.188 23.535,-72.409 20.13,-20.757 52.659,-33.954 87.711,-22.482 12.884,4.217 25.174,10.363 37.428,24.55 1.365,1.58 10.331,12.36 15.988,28.807 0.037,0.113 0.074,0.226 0.117,0.337 4.636,11.972 5.641,28.195 3.186,41.668 -4.42,0.227 -9.084,0.821 -13.942,1.949 -10.646,2.472 -20.556,7.032 -29.454,13.554 -3.341,2.449 -4.064,7.142 -1.615,10.483 2.466,3.364 7.171,4.043 10.482,1.616 7.254,-5.316 15.321,-9.031 23.979,-11.042 2.16,-0.501 4.27,-0.863 6.333,-1.13 -3.738,10.214 -9.119,19.841 -15.37,28.739 -6.663,-0.706 -13.39,-0.738 -20.105,-0.081 -4.123,0.403 -7.138,4.072 -6.735,8.194 0.403,4.122 4.063,7.14 8.194,6.734 2.423,-0.237 4.846,-0.36 7.267,-0.387 -8.892,10.185 -18.488,19.05 -27.222,26.27 -3.624,-10.814 -13.853,-18.632 -25.88,-18.632 -11.44,0 -21.253,7.073 -25.303,17.069 -7.969,-7.008 -16.674,-15.347 -24.924,-24.62 1.464,0.067 2.928,0.157 4.392,0.3 4.123,0.411 7.791,-2.612 8.194,-6.734 0.402,-4.123 -2.612,-7.791 -6.735,-8.194 -5.965,-0.583 -11.936,-0.608 -17.863,-0.116 -6.678,-9.031 -12.502,-18.655 -16.645,-28.6 z m 58.92,183.825 c 3.739,-12.309 -2.417,-25.303 -13.879,-30.409 8.38,-12.818 20.61,-20.265 33.841,-20.265 13.024,0 25.466,7.613 33.836,20.3 -11.412,5.131 -17.533,18.093 -13.801,30.374 3.177,10.458 12.502,17.548 23.351,17.89 -1.833,11.448 -6.372,21.902 -13.184,30.08 -8.254,9.909 -18.979,15.366 -30.202,15.366 -11.224,0 -21.95,-5.459 -30.205,-15.372 -6.81,-8.178 -11.348,-18.628 -13.18,-30.071 10.88,-0.312 20.239,-7.412 23.423,-17.893 z M 144.87,497 H 95.525 c 0.267,-11.267 9.515,-20.35 20.845,-20.35 h 3.617 c 7.566,8.061 16.181,14.879 25.564,20.306 -0.226,0.015 -0.45,0.044 -0.681,0.044 z m 188.105,0 H 283.63 c -0.253,0 -0.5,-0.03 -0.749,-0.048 9.529,-5.504 18.168,-12.361 25.654,-20.302 h 3.595 c 11.33,0 20.578,9.083 20.845,20.35 z M 226.6,497 h -24.7 c -61.877,-10e-4 -107.672,-56.586 -95.131,-116.309 1.87,-8.906 4.045,-17.771 6.484,-26.571 2.816,8.688 7.463,17.752 14.97,26.184 7.378,8.286 16.634,14.831 27.076,19.197 3.184,36.384 28.309,64.199 58.95,64.199 30.628,0 55.75,-27.8 58.948,-64.167 10.472,-4.366 19.754,-10.923 27.152,-19.229 7.473,-8.392 12.11,-17.411 14.93,-26.062 2.425,8.76 4.589,17.584 6.451,26.449 C 334.124,439.71 288.048,497.224 226.6,497 Z M 447.75,279.18 c -29.692,0 -53.85,24.157 -53.85,53.85 v 30.05 c 0,34.755 -25.891,63.56 -59.395,68.185 1.486,-5.15 2.604,-10.453 3.33,-15.876 23.784,-5.809 41.065,-27.318 41.065,-52.308 v -30.05 c 0,-37.964 30.886,-68.85 68.85,-68.85 4.136,0 7.5,3.364 7.5,7.5 0,4.136 -3.364,7.499 -7.5,7.499 z M 237.943,165.314 c 3.279,-1.305 6.729,-1.98 10.254,-2.009 0.078,-0.001 0.157,-0.001 0.236,-0.001 3.604,0 7.131,0.676 10.482,2.01 3.76,1.497 8.192,-0.299 9.742,-4.195 1.531,-3.848 -0.347,-8.21 -4.195,-9.742 -5.236,-2.084 -10.73,-3.099 -16.389,-3.072 -5.391,0.044 -10.664,1.077 -15.676,3.071 -3.849,1.531 -5.728,5.893 -4.196,9.742 1.533,3.849 5.897,5.727 9.742,4.196 z"
         inkscape:connector-curvature="0" />
    </g>
    <path
       style="opacity:1;fill:#ff0000;fill-opacity:1;stroke:none;stroke-width:0;stroke-linecap:round;stroke-linejoin:round;stroke-miterlimit:4;stroke-dasharray:none;stroke-opacity:1"
       d="m 31.246156,255.18808 c 0.123945,-0.54164 0.186397,-0.60632 0.851623,-0.88204 0.926782,-0.38413 1.842722,-1.28147 2.29236,-2.24579 0.33265,-0.71343 0.361911,-0.9294 0.438523,-3.23668 0.06907,-2.08003 0.127455,-2.58837 0.368046,-3.20419 0.783638,-2.00581 2.356861,-3.34737 4.395812,-3.74851 0.966221,-0.19009 1.453467,-0.10323 1.575368,0.28085 0.14472,0.45597 -0.249219,0.74682 -1.118253,0.82562 -1.496372,0.13568 -2.94005,1.18453 -3.60522,2.61922 -0.324459,0.69982 -0.355947,0.93473 -0.432541,3.22701 -0.06969,2.08579 -0.127551,2.58665 -0.370118,3.20418 -0.636966,1.62158 -1.765062,2.77863 -3.341103,3.42687 -1.12605,0.46315 -1.216257,0.44035 -1.054497,-0.26654 z"
       id="path4708"
       inkscape:connector-curvature="0" />
    <g
       id="g4626"
       transform="matrix(0.20275879,-0.05263777,0.05263777,0.20275879,2.4539616,244.29631)">
      <g
         id="g4624">
        <path
           id="path4622"
           d="M 207.485,16.759 191.809,1.083 c -1.443,-1.443 -3.781,-1.443 -5.225,0 l -26.122,26.12 c -10e-4,0.002 -0.004,0.002 -0.004,0.002 l -25.743,25.742 c -11.951,-4.036 -25.108,-1.018 -34.131,8.005 L 1.082,160.455 c -1.443,1.443 -1.443,3.781 0,5.225 l 41.802,41.802 c 0.722,0.722 1.667,1.083 2.612,1.083 0.945,0 1.891,-0.361 2.612,-1.083 l 99.503,-99.501 c 9.035,-9.035 12.052,-22.196 8.012,-34.138 L 181.35,48.114 c 0.001,-0.002 0.004,-0.002 0.004,-0.002 l 26.129,-26.128 c 0.693,-0.693 1.083,-1.633 1.083,-2.612 0.002,-0.98 -0.388,-1.92 -1.081,-2.613 z M 84.687,87.3 110.815,113.428 63.786,160.457 37.658,134.329 Z m 64.021,-16.993 c -1.063,1.064 -1.375,2.668 -0.789,4.054 4.135,9.753 1.963,20.899 -5.532,28.396 l -96.89,96.888 -36.577,-36.578 23.513,-23.514 28.741,28.74 c 0.722,0.722 1.667,1.083 2.612,1.083 0.945,0 1.891,-0.361 2.612,-1.083 l 52.254,-52.254 c 1.443,-1.443 1.443,-3.781 0,-5.225 L 89.911,82.074 105.808,66.177 c 7.486,-7.484 18.632,-9.656 28.392,-5.526 1.384,0.588 2.986,0.272 4.052,-0.79 l 24.815,-24.815 10.451,10.451 z m 30.038,-30.035 -10.451,-10.451 20.902,-20.9 10.451,10.451 z"
           inkscape:connector-curvature="0" />
      </g>
    </g>
    <path
       style="opacity:0.73000004;fill:#ff0000;fill-opacity:1;stroke:none;stroke-width:0;stroke-linecap:round;stroke-linejoin:round;stroke-miterlimit:4;stroke-dasharray:none;stroke-opacity:1"
       d="m 17.407759,279.56958 -4.561705,-2.67953 1.665732,-2.83011 c 0.916154,-1.55656 1.70915,-2.87528 1.762215,-2.93049 0.05306,-0.0552 1.747133,0.87169 3.764597,2.05978 3.529939,2.07878 4.20152,2.38104 4.529212,2.03851 0.194968,-0.20379 8.00835,-13.55513 8.098064,-13.83779 0.0461,-0.14526 -0.0069,-0.40033 -0.118557,-0.57078 -0.111051,-0.16948 -1.829895,-1.26402 -3.819652,-2.43229 -1.989756,-1.16828 -3.617751,-2.17403 -3.617761,-2.23501 -5.6e-5,-0.28793 2.411775,-4.21358 2.966318,-4.82817 1.080669,-1.19768 2.940936,-1.94111 4.366561,-1.74503 0.505259,0.0695 0.691028,0.038 0.918258,-0.15573 0.156673,-0.13356 1.075957,-1.59589 2.042856,-3.24962 0.966901,-1.65373 1.798407,-3.04978 1.847791,-3.10234 0.08687,-0.0924 2.548463,1.2264 2.554853,1.36881 0.002,0.0388 -0.8097,1.45198 -1.80321,3.14041 -0.993498,1.68844 -1.844083,3.21383 -1.890187,3.38976 -0.05234,0.19975 0.0019,0.45067 0.144026,0.66817 0.125317,0.19157 0.386371,0.67905 0.58012,1.08329 0.46681,0.97397 0.577419,2.72721 0.237598,3.76615 -0.211153,0.64556 -14.871038,25.77058 -15.032921,25.76434 -0.03988,-0.002 -2.12527,-1.20858 -4.634208,-2.68233 z"
       id="path4696"
       inkscape:connector-curvature="0" />
    <path
       style="opacity:0.73000004;fill:#ff0000;fill-opacity:1;stroke:none;stroke-width:0;stroke-linecap:round;stroke-linejoin:round;stroke-miterlimit:4;stroke-dasharray:none;stroke-opacity:1"
       d="m 39.659661,242.29759 c -0.607298,-0.35213 -1.165971,-0.70203 -1.241489,-0.77755 -0.09399,-0.094 0.331931,-0.93458 1.349973,-2.66432 0.818005,-1.38985 1.504159,-2.54425 1.524791,-2.56531 0.06987,-0.0713 2.474119,1.37381 2.475913,1.48823 0.0016,0.10053 -2.927445,5.16936 -2.982907,5.1621 -0.01214,-0.002 -0.51898,-0.29101 -1.126281,-0.64315 z"
       id="path4698"
       inkscape:connector-curvature="0" />
    <path
       style="opacity:0.98999999;fill:#ff0000;fill-opacity:1;stroke:none;stroke-width:0;stroke-linecap:round;stroke-linejoin:round;stroke-miterlimit:4;stroke-dasharray:none;stroke-opacity:1"
       d="m 20.6764,271.54439 c -1.713707,-1.0109 -3.173931,-1.8961 -3.244948,-1.96711 -0.08307,-0.0831 1.069565,-2.1746 3.231867,-5.86443 1.848543,-3.15442 3.429042,-5.80574 3.512219,-5.89182 0.114557,-0.11856 0.912799,0.29398 3.291647,1.70117 1.727232,1.02173 3.188872,1.87504 3.248094,1.89625 0.07525,0.0269 -6.698761,11.74764 -6.903945,11.94551 -0.0105,0.0101 -1.421228,-0.80867 -3.134934,-1.81957 z"
       id="path4700"
       inkscape:connector-curvature="0" />
    <path
       style="opacity:0.73000004;fill:#00b000;fill-opacity:0;stroke:none;stroke-width:0.53790623;stroke-linecap:round;stroke-linejoin:round;stroke-miterlimit:4;stroke-dasharray:none;stroke-opacity:1"
       d="M 6.4360482,294.61607 C 4.5155212,294.01258 3.0453123,292.34341 2.6628304,290.33221 2.5503278,289.74064 2.5206877,279.98205 2.549789,253.11493 l 0.039444,-36.41547 0.2997262,-0.73499 c 0.6112822,-1.49899 1.7294998,-2.57986 3.3432628,-3.23158 l 0.766958,-0.30974 17.305702,-0.0386 c 11.283267,-0.0252 17.700995,0.009 18.441598,0.099 2.65811,0.32189 4.580911,2.15098 4.950888,4.7096 0.173458,1.19956 0.161224,71.66455 -0.01265,72.8677 -0.271073,1.87572 -1.394285,3.43754 -3.057509,4.25147 l -0.878464,0.42989 -18.37478,0.0254 c -14.930879,0.0207 -18.4803252,-0.008 -18.9379115,-0.15152 z M 22.882849,283.68388 c 0.283655,-0.25835 14.642031,-24.55595 15.436125,-26.12139 0.895371,-1.76509 0.891818,-3.95049 -0.0097,-5.94089 l -0.403987,-0.89198 0.692853,-1.2005 c 0.487699,-0.84504 0.80409,-1.24659 1.068526,-1.35612 0.206621,-0.0856 0.544269,-0.33158 0.750331,-0.54667 0.306216,-0.31962 0.385493,-0.54084 0.433967,-1.21101 0.05655,-0.78187 0.17022,-1.00826 2.447372,-4.87456 2.448584,-4.15737 2.639978,-4.60371 2.154201,-5.02364 -0.5465,-0.47243 -4.246766,-2.54537 -4.543568,-2.54537 -0.178504,0 -0.420857,0.0963 -0.538559,0.21401 -0.117703,0.1177 -1.938073,3.14592 -4.045268,6.72939 l -3.831267,6.51539 -1.19121,0.15956 c -1.284554,0.17207 -2.321703,0.52347 -3.094117,1.04834 -0.267374,0.18169 -0.52669,0.28602 -0.576257,0.23185 -0.04956,-0.0542 -0.348969,-0.69151 -0.665345,-1.41631 -0.316375,-0.7248 -0.683963,-1.38572 -0.816861,-1.46871 -0.132892,-0.083 -0.241627,-0.21928 -0.241627,-0.30285 0,-0.0836 -0.0902,-0.22681 -0.200452,-0.31831 -0.225537,-0.18717 -0.255913,-0.50724 -0.07524,-0.79275 0.09998,-0.15799 0.322979,-0.0923 1.277497,0.3763 1.101516,0.54078 1.17175,0.55763 1.48045,0.35537 0.765074,-0.5013 0.121864,-1.31939 -1.520148,-1.93346 l -0.78524,-0.29367 0.579741,-1.15514 c 0.318855,-0.63532 0.579739,-1.2266 0.579739,-1.31393 0,-0.11755 0.146384,-0.1259 0.563581,-0.0322 0.760939,0.17097 1.14962,0.0541 1.258131,-0.37821 0.12532,-0.49932 -0.08671,-0.75191 -0.800333,-0.95347 l -0.620474,-0.17524 -0.02006,-1.32858 c -0.01103,-0.73072 -0.02606,-1.4035 -0.03341,-1.49506 -0.0084,-0.10422 0.261524,-0.20138 0.721627,-0.25977 1.509374,-0.19159 2.780442,-0.86386 3.820549,-2.02071 2.351481,-2.61541 2.187604,-6.61166 -0.36816,-8.97784 -2.573105,-2.38224 -6.366708,-2.32553 -8.873613,0.13266 -0.951888,0.93339 -1.559934,2.0889 -1.807813,3.43551 l -0.165016,0.89645 -0.612696,-0.0881 c -0.835607,-0.12012 -1.55521,-0.12022 -2.353673,-2.6e-4 l -0.671899,0.10089 -0.145371,-0.9027 c -0.212714,-1.321 -0.758799,-2.36095 -1.778417,-3.38685 -2.550966,-2.56669 -6.4518688,-2.59042 -9.0362384,-0.055 -2.5271721,2.47934 -2.5474739,6.5515 -0.045138,9.05394 0.7494876,0.74952 2.4057676,1.70366 2.9573609,1.70366 0.130697,0 0.2376307,0.0562 0.2376307,0.12497 0,0.0687 0.2408912,0.29424 0.5353128,0.50113 l 0.535314,0.37616 -0.03418,1.06777 -0.03418,1.06777 -0.6650319,0.0948 c -0.9248071,0.1318 -1.3030901,0.72694 -0.7888954,1.24114 0.1754545,0.17545 0.3845015,0.20039 1.1024863,0.1315 l 0.88598,-0.085 0.259107,0.64644 c 0.14251,0.35554 0.428154,0.93473 0.634766,1.28709 0.429885,0.73312 0.437654,0.76251 0.201545,0.76251 -0.09576,0 -0.662634,0.23625 -1.259716,0.52499 -1.1801632,0.57071 -1.488707,0.91775 -1.2607616,1.41803 0.237204,0.52061 0.5767146,0.50682 1.7029966,-0.0692 1.541408,-0.78828 1.598624,-0.75031 0.899251,0.59687 -1.37454,2.64774 -2.6874159,6.20704 -3.3277904,9.02187 -0.3762978,1.65406 -0.4236686,3.62632 -0.1182193,4.92199 0.1555472,0.65981 0.7538238,2.10686 1.2320389,2.97993 0.025389,0.0464 -0.1083117,0.12304 -0.2971136,0.17043 -0.4970637,0.12476 -1.408259,0.99571 -1.690838,1.61617 -0.3599379,0.79032 -0.3289909,1.73655 0.069839,2.13538 0.4402645,0.44026 0.909787,0.50036 3.5051284,0.44864 1.98416,-0.0395 2.312294,-0.078 2.722321,-0.31884 0.45808,-0.2691 0.481172,-0.26974 1.322049,-0.0366 0.470703,0.13052 0.884623,0.26611 0.919821,0.30131 0.0352,0.0352 -1.211718,2.23122 -2.770926,4.88005 -1.559209,2.64882 -2.864162,4.92784 -2.899895,5.06449 -0.03798,0.14525 0.06427,0.39026 0.246166,0.58988 0.241388,0.26489 9.198749,5.63037 10.801465,6.4701 0.459912,0.24097 0.602425,0.223 0.983393,-0.12399 z"
       id="path4778"
       inkscape:connector-curvature="0" />
    <path
       style="opacity:0.73000004;fill:#00b000;fill-opacity:0;stroke:none;stroke-width:0.53790623;stroke-linecap:round;stroke-linejoin:round;stroke-miterlimit:4;stroke-dasharray:none;stroke-opacity:1"
       d="M 6.4360482,294.61607 C 4.5155212,294.01258 3.0453123,292.34341 2.6628304,290.33221 2.5503278,289.74064 2.5206877,279.98205 2.549789,253.11493 l 0.039444,-36.41547 0.2997262,-0.73499 c 0.6112822,-1.49899 1.7294998,-2.57986 3.3432628,-3.23158 l 0.766958,-0.30974 17.305702,-0.0386 c 11.283267,-0.0252 17.700995,0.009 18.441598,0.099 2.65811,0.32189 4.580911,2.15098 4.950888,4.7096 0.173458,1.19956 0.161224,71.66455 -0.01265,72.8677 -0.271073,1.87572 -1.394285,3.43754 -3.057509,4.25147 l -0.878464,0.42989 -18.37478,0.0254 c -14.930879,0.0207 -18.4803252,-0.008 -18.9379115,-0.15152 z M 22.882849,283.68388 c 0.283655,-0.25835 14.642031,-24.55595 15.436125,-26.12139 0.895371,-1.76509 0.891818,-3.95049 -0.0097,-5.94089 l -0.403987,-0.89198 0.692853,-1.2005 c 0.487699,-0.84504 0.80409,-1.24659 1.068526,-1.35612 0.206621,-0.0856 0.544269,-0.33158 0.750331,-0.54667 0.306216,-0.31962 0.385493,-0.54084 0.433967,-1.21101 0.05655,-0.78187 0.17022,-1.00826 2.447372,-4.87456 2.448584,-4.15737 2.639978,-4.60371 2.154201,-5.02364 -0.5465,-0.47243 -4.246766,-2.54537 -4.543568,-2.54537 -0.178504,0 -0.420857,0.0963 -0.538559,0.21401 -0.117703,0.1177 -1.938073,3.14592 -4.045268,6.72939 l -3.831267,6.51539 -1.19121,0.15956 c -1.284554,0.17207 -2.321703,0.52347 -3.094117,1.04834 -0.267374,0.18169 -0.52669,0.28602 -0.576257,0.23185 -0.04956,-0.0542 -0.348969,-0.69151 -0.665345,-1.41631 -0.316375,-0.7248 -0.683963,-1.38572 -0.816861,-1.46871 -0.132892,-0.083 -0.241627,-0.21928 -0.241627,-0.30285 0,-0.0836 -0.0902,-0.22681 -0.200452,-0.31831 -0.225537,-0.18717 -0.255913,-0.50724 -0.07524,-0.79275 0.09998,-0.15799 0.322979,-0.0923 1.277497,0.3763 1.101516,0.54078 1.17175,0.55763 1.48045,0.35537 0.765074,-0.5013 0.121864,-1.31939 -1.520148,-1.93346 l -0.78524,-0.29367 0.579741,-1.15514 c 0.318855,-0.63532 0.579739,-1.2266 0.579739,-1.31393 0,-0.11755 0.146384,-0.1259 0.563581,-0.0322 0.760939,0.17097 1.14962,0.0541 1.258131,-0.37821 0.12532,-0.49932 -0.08671,-0.75191 -0.800333,-0.95347 l -0.620474,-0.17524 -0.02006,-1.32858 c -0.01103,-0.73072 -0.02606,-1.4035 -0.03341,-1.49506 -0.0084,-0.10422 0.261524,-0.20138 0.721627,-0.25977 1.509374,-0.19159 2.780442,-0.86386 3.820549,-2.02071 2.351481,-2.61541 2.187604,-6.61166 -0.36816,-8.97784 -2.573105,-2.38224 -6.366708,-2.32553 -8.873613,0.13266 -0.951888,0.93339 -1.559934,2.0889 -1.807813,3.43551 l -0.165016,0.89645 -0.612696,-0.0881 c -0.835607,-0.12012 -1.55521,-0.12022 -2.353673,-2.6e-4 l -0.671899,0.10089 -0.145371,-0.9027 c -0.212714,-1.321 -0.758799,-2.36095 -1.778417,-3.38685 -2.550966,-2.56669 -6.4518688,-2.59042 -9.0362384,-0.055 -2.5271721,2.47934 -2.5474739,6.5515 -0.045138,9.05394 0.7494876,0.74952 2.4057676,1.70366 2.9573609,1.70366 0.130697,0 0.2376307,0.0562 0.2376307,0.12497 0,0.0687 0.2408912,0.29424 0.5353128,0.50113 l 0.535314,0.37616 -0.03418,1.06777 -0.03418,1.06777 -0.6650319,0.0948 c -0.9248071,0.1318 -1.3030901,0.72694 -0.7888954,1.24114 0.1754545,0.17545 0.3845015,0.20039 1.1024863,0.1315 l 0.88598,-0.085 0.259107,0.64644 c 0.14251,0.35554 0.428154,0.93473 0.634766,1.28709 0.429885,0.73312 0.437654,0.76251 0.201545,0.76251 -0.09576,0 -0.662634,0.23625 -1.259716,0.52499 -1.1801632,0.57071 -1.488707,0.91775 -1.2607616,1.41803 0.237204,0.52061 0.5767146,0.50682 1.7029966,-0.0692 1.541408,-0.78828 1.598624,-0.75031 0.899251,0.59687 -1.37454,2.64774 -2.6874159,6.20704 -3.3277904,9.02187 -0.3762978,1.65406 -0.4236686,3.62632 -0.1182193,4.92199 0.1555472,0.65981 0.7538238,2.10686 1.2320389,2.97993 0.025389,0.0464 -0.1083117,0.12304 -0.2971136,0.17043 -0.4970637,0.12476 -1.408259,0.99571 -1.690838,1.61617 -0.3599379,0.79032 -0.3289909,1.73655 0.069839,2.13538 0.4402645,0.44026 0.909787,0.50036 3.5051284,0.44864 1.98416,-0.0395 2.312294,-0.078 2.722321,-0.31884 0.45808,-0.2691 0.481172,-0.26974 1.322049,-0.0366 0.470703,0.13052 0.884623,0.26611 0.919821,0.30131 0.0352,0.0352 -1.211718,2.23122 -2.770926,4.88005 -1.559209,2.64882 -2.864162,4.92784 -2.899895,5.06449 -0.03798,0.14525 0.06427,0.39026 0.246166,0.58988 0.241388,0.26489 9.198749,5.63037 10.801465,6.4701 0.459912,0.24097 0.602425,0.223 0.983393,-0.12399 z"
       id="path4780"
       inkscape:connector-curvature="0" />
    <path
       style="opacity:0.73000004;fill:#ff0000;fill-opacity:1;stroke:none;stroke-width:2.03303146;stroke-linecap:round;stroke-linejoin:round;stroke-miterlimit:4;stroke-dasharray:none;stroke-opacity:1"
       d="m 117.96577,172.56551 c -0.40613,-0.40614 0.11802,-2.72685 0.81549,-3.61063 0.28437,-0.36034 1.70603,-1.21764 3.15924,-1.90512 2.97094,-1.40548 6.17943,-4.61487 7.81119,-7.8134 1.16399,-2.28161 1.97199,-8.37539 1.99662,-15.05809 l 0.0137,-3.71349 4.11161,-6.89312 c 5.12963,-8.59982 4.87282,-8.3166 6.90033,-7.60981 0.88823,0.30964 1.61496,0.64528 1.61496,0.74587 0,0.10059 -1.13365,1.24329 -2.51923,2.53934 -1.38558,1.29604 -3.11981,3.58398 -3.85385,5.08429 -1.20566,2.46428 -1.37524,3.54397 -1.75516,11.17458 -0.2313,4.6457 -0.56794,9.35587 -0.74808,10.46704 -0.94123,5.80592 -6.10851,12.29429 -12.07747,15.16524 -3.61795,1.74017 -4.83806,2.05857 -5.46934,1.4273 z"
       id="path5520"
       inkscape:connector-curvature="0"
       transform="matrix(0.26458333,0,0,0.26458333,0,210.00002)" />
    <path
       style="opacity:1;fill:#ff0000;fill-opacity:1;stroke:none;stroke-width:1.84213638;stroke-linecap:round;stroke-linejoin:round;stroke-miterlimit:4;stroke-dasharray:none;stroke-opacity:1"
       d="m 136.66887,145.6189 c 0.13744,-7.96024 0.20728,-8.46285 1.55828,-11.21401 0.82611,-1.68227 2.47744,-3.83602 3.97021,-5.17815 l 2.55581,-2.29789 2.45461,1.33597 2.45462,1.33596 -2.16168,1.3709 c -4.51271,2.86188 -6.37682,6.39997 -6.41751,12.18044 -0.0204,2.90147 -0.24982,3.60378 -2.29047,7.01247 l -2.26777,3.78807 z"
       id="path864"
       inkscape:connector-curvature="0"
       transform="matrix(0.26458333,0,0,0.26458333,0,210.00002)" />
    <path
       style="opacity:1;fill:#ff0000;fill-opacity:1;stroke:none;stroke-width:1.84213638;stroke-linecap:round;stroke-linejoin:round;stroke-miterlimit:4;stroke-dasharray:none;stroke-opacity:1"
       d="m 156.76327,115.72401 c -1.48981,-0.82739 -2.38326,-0.93492 -5.68211,-0.6839 -2.15289,0.16382 -3.91434,0.14331 -3.91434,-0.0456 0,-0.6351 8.80867,-15.337577 9.18918,-15.337577 0.20695,0 2.31767,1.146687 4.69048,2.548207 4.03747,2.38475 4.27731,2.61963 3.73915,3.6618 -1.09585,2.12214 -6.10896,10.9623 -6.18161,10.90069 -0.0401,-0.034 -0.86848,-0.50368 -1.84075,-1.04365 z"
       id="path866"
       inkscape:connector-curvature="0"
       transform="matrix(0.26458333,0,0,0.26458333,0,210.00002)" />
    <path
       style="opacity:1;fill:#ff0000;fill-opacity:1;stroke:none;stroke-width:1.84213638;stroke-linecap:round;stroke-linejoin:round;stroke-miterlimit:4;stroke-dasharray:none;stroke-opacity:1"
       d="m 155.55581,120.57942 c -0.28632,-0.74612 -0.86933,-0.82526 -4.33138,-0.58797 -4.71326,0.32306 -5.91823,-0.20177 -5.38067,-2.34356 0.44577,-1.7761 2.02322,-2.33356 6.60329,-2.33356 2.8357,0 3.96639,0.21633 4.84371,0.92674 l 1.14447,0.92674 -1.27429,2.13689 c -1.01471,1.7016 -1.34168,1.96127 -1.60513,1.27472 z"
       id="path868"
       inkscape:connector-curvature="0"
       transform="matrix(0.26458333,0,0,0.26458333,0,210.00002)" />
    <path
       style="opacity:1;fill:#ff0000;fill-opacity:1;stroke:none;stroke-width:1.84213638;stroke-linecap:round;stroke-linejoin:round;stroke-miterlimit:4;stroke-dasharray:none;stroke-opacity:1"
       d="m 117.87929,172.00914 c 0.0179,-2.2922 0.71901,-3.21519 3.61467,-4.75856 3.69945,-1.97179 7.6047,-6.15261 8.74831,-9.36565 0.5933,-1.66689 0.94483,-4.73205 1.13267,-9.87619 l 0.27236,-7.45914 4.51289,-7.69314 c 2.48209,-4.23123 4.69962,-7.88477 4.92785,-8.11897 0.39894,-0.4094 2.75862,0.82 3.80594,1.98291 0.27779,0.30845 1.3907,1.08937 2.47312,1.73538 1.93206,1.15308 1.94915,1.18913 0.9343,1.9715 -0.56857,0.43832 -1.82655,1.41141 -2.79551,2.16242 -2.45662,1.90403 -3.88147,5.14554 -4.36347,9.92683 -0.33395,3.31259 -0.75309,4.63639 -2.36772,7.47809 l -1.96194,3.45297 -0.28471,-4.29315 -0.28471,-4.29315 -0.0941,4.56584 c -0.0518,2.51121 -0.44465,5.92048 -0.8731,7.57614 -1.59815,6.17577 -6.06804,11.46281 -12.17265,14.39796 -3.57181,1.71736 -5.23436,1.91082 -5.2242,0.60791 z m 19.02909,-33.33503 c -0.12704,-0.48614 -0.23098,-0.0884 -0.23098,0.88388 0,0.97227 0.10394,1.37002 0.23098,0.88388 0.12704,-0.48613 0.12704,-1.28163 0,-1.76776 z m 3.2518,-7.07107 c 0.62825,-0.80108 0.61038,-0.81895 -0.1907,-0.1907 -0.84133,0.65982 -1.10888,1.07458 -0.69319,1.07458 0.10488,0 0.50263,-0.39775 0.88389,-0.88388 z"
       id="path870"
       inkscape:connector-curvature="0"
       transform="matrix(0.26458333,0,0,0.26458333,0,210.00002)" />
    <path
       style="opacity:1;fill:#ff0000;fill-opacity:1;stroke:none;stroke-width:1.84213638;stroke-linecap:round;stroke-linejoin:round;stroke-miterlimit:4;stroke-dasharray:none;stroke-opacity:1"
       d="m 117.8724,171.67164 c 0,-2.08863 0.51644,-2.7516 3.45171,-4.43099 3.4355,-1.96559 6.7219,-5.15589 8.10602,-7.869 1.17569,-2.30454 2.07932,-8.61809 2.07932,-14.52788 v -4.08464 l 4.16688,-7.09913 c 6.04536,-10.29951 5.44225,-9.59248 7.22551,-8.47063 0.81788,0.51452 1.82799,1.24682 2.24467,1.62732 0.41669,0.38051 1.54526,1.15655 2.50793,1.72455 l 1.75031,1.03272 -1.34388,1.15595 c -0.73913,0.63577 -1.77954,1.46165 -2.31202,1.83529 -1.99559,1.40027 -3.53657,4.43833 -4.12535,8.13313 -0.8552,5.36663 -1.33872,6.89017 -3.16458,9.97134 l -1.64616,2.77792 -0.25771,-2.77792 c -0.23987,-2.58568 -0.27923,-2.45366 -0.56871,1.90764 -0.25887,3.90016 -0.5907,5.25475 -1.97963,8.08122 -2.11765,4.3094 -6.27794,8.50535 -10.53288,10.62315 -4.00604,1.99392 -5.60143,2.10499 -5.60143,0.38996 z"
       id="path872"
       inkscape:connector-curvature="0"
       transform="matrix(0.26458333,0,0,0.26458333,0,210.00002)" />
    <path
       style="opacity:1;fill:#ff0000;fill-opacity:1;stroke:none;stroke-width:1.84213638;stroke-linecap:round;stroke-linejoin:round;stroke-miterlimit:4;stroke-dasharray:none;stroke-opacity:1"
       d="m 114.33686,186.19597 c -2.91681,-1.7937 -5.60148,-3.43518 -5.96591,-3.64774 -0.5083,-0.29645 -0.25146,-1.08348 1.10282,-3.37933 4.07978,-6.91629 5.35776,-15.42405 3.49192,-23.24631 l -0.97582,-4.091 2.16006,-0.80057 c 2.00195,-0.74198 2.17933,-0.73829 2.42318,0.0504 0.72148,2.33336 1.80436,8.4716 1.80436,10.22789 0,1.093 0.19318,1.98728 0.4293,1.98728 0.83239,0 4.50268,-2.96024 5.62568,-4.53735 1.4466,-2.03156 2.53132,-5.6202 2.53132,-8.3745 0,-1.65902 0.51471,-2.97954 2.27284,-5.83115 l 2.27284,-3.68644 -0.0137,2.75469 c -0.0214,4.30243 -0.83458,11.6936 -1.54888,14.07773 -1.0959,3.65779 -7.88862,10.14271 -10.62411,10.14271 -0.92493,0 -1.17919,0.5443 -1.7467,3.73908 l -0.35018,1.97131 1.71221,-0.34191 c 3.38478,-0.67592 8.03272,-3.28936 10.83652,-6.09316 2.46933,-2.46933 4.56263,-5.99753 6.01281,-10.13446 0.29569,-0.84354 0.60048,-0.5267 1.84782,1.92092 l 1.49372,2.93106 -1.62987,2.87731 c -0.89643,1.58252 -3.01051,4.24102 -4.69795,5.90777 -4.31715,4.26421 -8.30076,6.12987 -16.27349,7.6214 -0.64327,0.12034 -1.72131,1.22677 -2.62278,2.69184 l -1.53058,2.48752 1.56766,0.54649 c 2.67512,0.93255 6.675,4.56882 5.86538,5.33219 -0.0919,0.0867 -2.55367,-1.30994 -5.47049,-3.10365 z"
       id="path874"
       inkscape:connector-curvature="0"
       transform="matrix(0.26458333,0,0,0.26458333,0,210.00002)" />
    <path
       style="opacity:1;fill:#ff0000;fill-opacity:1;stroke:none;stroke-width:1.84213638;stroke-linecap:round;stroke-linejoin:round;stroke-miterlimit:4;stroke-dasharray:none;stroke-opacity:1"
       d="m 113.70552,185.7214 c -2.98627,-1.81508 -5.42957,-3.52702 -5.42957,-3.80432 0,-0.27729 0.24747,-1.00062 0.54994,-1.60739 0.43155,-0.86571 0.29563,-0.80854 -0.63135,0.26555 l -1.18128,1.36876 -5.80756,-3.51288 c -3.19416,-1.93209 -5.886276,-3.74902 -5.982481,-4.03764 -0.302631,-0.90789 7.588371,-13.65068 10.253401,-16.55771 6.07897,-6.63097 5.93969,-6.51304 6.37483,-5.39804 0.31145,0.79804 0.40155,0.83268 0.42961,0.16514 0.0406,-0.96654 3.41543,-2.29083 4.09814,-1.60813 0.49457,0.49457 1.99827,8.66129 1.99827,10.85276 0,0.79699 0.1976,1.44907 0.4391,1.44907 0.24151,0 1.57529,-0.90465 2.96397,-2.01033 2.87595,-2.28987 4.56369,-5.575 5.01625,-9.76399 0.32069,-2.96844 2.04079,-6.39612 9.80587,-19.54041 5.08018,-8.59943 4.48636,-8.06916 7.04574,-6.29174 1.18283,0.82143 2.95403,2.03423 3.936,2.6951 l 1.78539,1.20158 -2.86709,2.58649 c -3.25013,2.93205 -3.97337,4.40114 -5.10592,10.37146 -0.52491,2.76711 -1.45495,5.44036 -2.69293,7.74044 l -1.89109,3.51352 -0.30714,-1.94332 -0.30713,-1.94332 -0.0717,2.08344 c -0.0394,1.14589 -0.22079,2.82905 -0.40305,3.74034 -0.23251,1.16256 -0.16253,1.55254 0.23456,1.30713 0.34675,-0.2143 1.07232,0.64954 1.87342,2.23044 l 1.3075,2.58021 -1.37627,2.36298 c -2.0551,3.52849 -7.44881,8.87072 -10.70368,10.60151 -1.58039,0.84038 -4.6534,1.98262 -6.82892,2.53831 -4.21962,1.07781 -5.30283,1.77567 -6.86445,4.42242 -0.92909,1.57469 -0.93485,1.68907 -0.0985,1.95453 1.69236,0.53713 5.54579,3.23872 6.10202,4.27805 0.30732,0.57423 0.3803,1.03642 0.16218,1.0271 -0.21811,-0.009 -2.83988,-1.50203 -5.82614,-3.31711 z m 5.08181,-12.66548 c -0.46905,-0.12375 -0.95408,-0.60878 -1.07783,-1.07784 -0.15942,-0.60425 -0.24208,-0.52159 -0.28359,0.2836 -0.0451,0.87481 0.20302,1.12293 1.07783,1.07783 0.80519,-0.0415 0.88785,-0.12417 0.28359,-0.28359 z m -5.63119,-4.83485 c -0.14012,-0.34724 -0.25476,-0.0631 -0.25476,0.63134 0,0.69448 0.11464,0.97859 0.25476,0.63135 0.14011,-0.34724 0.14011,-0.91545 0,-1.26269 z m 5.97895,0.12627 c 0.17168,-0.2778 0.0714,-0.50508 -0.22273,-0.50508 -0.29419,0 -0.53489,0.22728 -0.53489,0.50508 0,0.27779 0.10023,0.50507 0.22273,0.50507 0.1225,0 0.3632,-0.22728 0.53489,-0.50507 z m -5.43978,-6.93354 c -0.10933,-1.04791 -0.20062,-0.31431 -0.20287,1.63024 -0.002,1.94454 0.0872,2.80192 0.1988,1.9053 0.11158,-0.89663 0.11341,-2.48762 0.004,-3.53554 z m 14.34304,-0.0113 c 0.62825,-0.80108 0.61038,-0.81895 -0.1907,-0.1907 -0.48613,0.38126 -0.88388,0.779 -0.88388,0.88389 0,0.41569 0.41476,0.14814 1.07458,-0.69319 z m -14.87169,-4.26158 c -0.16124,-0.40292 -0.28092,-0.28324 -0.30515,0.30515 -0.0219,0.53243 0.0974,0.83074 0.26527,0.66291 0.16784,-0.16783 0.18578,-0.60346 0.0399,-0.96806 z m -0.50508,-2.52539 c -0.16123,-0.40291 -0.28091,-0.28323 -0.30515,0.30516 -0.0219,0.53243 0.0974,0.83074 0.26528,0.66291 0.16783,-0.16783 0.18577,-0.60346 0.0399,-0.96807 z"
       id="path876"
       inkscape:connector-curvature="0"
       transform="matrix(0.26458333,0,0,0.26458333,0,210.00002)" />
    <path
       style="opacity:1;fill:#ff0000;fill-opacity:1;stroke:none;stroke-width:1.84213638;stroke-linecap:round;stroke-linejoin:round;stroke-miterlimit:4;stroke-dasharray:none;stroke-opacity:1"
       d="m 66.323285,263.05136 c -12.152191,-7.09393 -16.88081,-10.10573 -16.860507,-10.73895 0.04264,-1.32975 11.771527,-20.83054 12.528675,-20.83054 0.36223,0 6.414246,3.28971 13.448924,7.31047 12.70357,7.2609 15.606961,8.67028 16.865924,8.18717 0.689986,-0.26477 6.6621,-10.18307 22.235919,-36.92869 5.1651,-8.87027 9.39109,-16.40992 9.39109,-16.75478 0,-1.09572 -7.75099,-8.73722 -9.45952,-9.3259 -1.57466,-0.54255 -1.60644,-0.60817 -0.92238,-1.90517 1.427,-2.70564 2.08202,-3.15145 6.09477,-4.14822 2.21903,-0.55121 5.24787,-1.59263 6.73076,-2.31428 3.49975,-1.70314 8.70627,-6.59906 11.04207,-10.38335 1.53295,-2.48357 1.92686,-2.84713 2.32125,-2.14238 0.62932,1.12452 1.0848,8.71519 0.65912,10.98426 -0.185,0.98612 -4.15911,8.45665 -8.83137,16.60119 -15.31938,26.70431 -47.011319,80.73992 -48.012837,81.8632 -0.18874,0.21169 -7.943089,-4.05163 -17.231888,-9.47403 z"
       id="path878"
       inkscape:connector-curvature="0"
       transform="matrix(0.26458333,0,0,0.26458333,0,210.00002)" />
    <path
       style="opacity:1;fill:#ff0000;fill-opacity:1;stroke:none;stroke-width:1.84213638;stroke-linecap:round;stroke-linejoin:round;stroke-miterlimit:4;stroke-dasharray:none;stroke-opacity:1"
       d="m 118.62546,160.39238 c -0.17545,-1.31951 -0.6695,-4.05924 -1.0979,-6.0883 -0.4284,-2.02905 -0.62152,-3.84733 -0.42916,-4.04061 0.19237,-0.19328 2.37746,-0.46506 4.85576,-0.60396 l 4.50601,-0.25253 -7.6e-4,1.9617 c -0.001,3.52168 -1.07984,5.96928 -3.86501,8.77117 -1.4497,1.4584 -2.864,2.65165 -3.14289,2.65165 -0.27889,0 -0.65061,-1.0796 -0.82605,-2.39912 z"
       id="path880"
       inkscape:connector-curvature="0"
       transform="matrix(0.26458333,0,0,0.26458333,0,210.00002)" />
    <path
       style="opacity:1;fill:#ff0000;fill-opacity:1;stroke:none;stroke-width:1.84213638;stroke-linecap:round;stroke-linejoin:round;stroke-miterlimit:4;stroke-dasharray:none;stroke-opacity:1"
       d="m 74.918265,267.95842 c -8.838157,-5.02098 -22.962863,-13.4166 -24.454943,-14.53584 -0.85748,-0.64322 -0.914389,-0.94819 -0.4209,-2.25559 0.803819,-2.12956 10.50978,-18.34664 11.445085,-19.12287 0.647322,-0.53723 1.821055,-0.0524 7.239264,2.99 3.556674,1.99716 9.66448,5.42167 13.572901,7.61002 3.908422,2.18835 7.801188,4.11782 8.650591,4.2877 1.491649,0.29833 1.638526,0.15628 4.302542,-4.16128 6.765435,-10.96471 28.680505,-48.72728 28.680505,-49.42031 0,-0.74077 -3.8694,-4.54721 -4.68988,-4.61357 -0.4505,-0.0364 -3.12069,-1.48871 -5.93375,-3.22727 -4.17278,-2.57893 -5.06716,-3.34263 -4.85678,-4.14713 0.23635,-0.9038 0.18524,-0.92036 -0.61248,-0.19844 -0.79936,0.72341 -1.35266,0.49841 -6.7834,-2.75852 -3.252183,-1.95039 -5.913057,-3.83206 -5.913057,-4.18149 0,-0.34942 1.875096,-3.72465 4.16688,-7.50051 4.355507,-7.17597 10.394317,-14.40107 12.341587,-14.76603 0.60701,-0.11377 1.5962,-0.47045 2.19821,-0.79264 0.60202,-0.32219 1.515,-0.47585 2.02887,-0.34147 0.51387,0.13438 1.01657,-0.002 1.11712,-0.30415 0.1042,-0.31259 2.17831,-0.66967 4.82256,-0.83027 l 4.63973,-0.28178 0.0687,1.26269 0.0687,1.26269 0.20725,-1.26269 c 0.30146,-1.83668 1.18639,-3.98315 2.70698,-6.566 0.73595,-1.25006 3.55795,-6.08226 6.2711,-10.73821 2.71316,-4.65596 5.1528,-8.60122 5.42145,-8.76725 0.26864,-0.16603 2.11814,0.79745 4.11,2.14106 1.99186,1.34361 3.7222,2.51058 3.84521,2.59327 0.12302,0.0827 -1.04438,1.45128 -2.59421,3.04132 -3.49269,3.5833 -3.75525,4.09881 -5.00565,9.82793 -0.60311,2.76335 -1.76423,6.0672 -2.87553,8.182 -1.79943,3.42434 -1.87408,3.49504 -2.15694,2.04276 -0.23787,-1.22131 -0.3363,-0.9817 -0.52315,1.27357 -0.12658,1.52786 -0.046,2.856 0.17908,2.95142 0.22508,0.0954 0.9971,1.33362 1.71561,2.75153 1.11863,2.20751 1.21364,2.727 0.66105,3.61457 -0.57268,0.91984 -0.55597,0.9627 0.14845,0.38068 1.18538,-0.97942 1.45297,-0.1624 1.75762,5.36636 l 0.26998,4.89956 -3.02349,5.80158 c -4.55706,8.74424 -50.23336,87.22941 -53.272855,91.53827 -0.53888,0.76393 -1.144959,1.38896 -1.346843,1.38896 -0.201884,0 -3.879777,-1.99558 -8.173097,-4.43463 z M 118.92541,161.7284 c -0.44495,-1.11234 -0.48649,-1.12502 -0.51592,-0.1575 -0.0176,0.57873 0.1195,1.20376 0.3047,1.38896 0.60325,0.60325 0.70585,0.005 0.21122,-1.23146 z"
       id="path882"
       inkscape:connector-curvature="0"
       transform="matrix(0.26458333,0,0,0.26458333,0,210.00002)" />
    <path
       style="opacity:1;fill:#ff0000;fill-opacity:1;stroke:none;stroke-width:1.84213638;stroke-linecap:round;stroke-linejoin:round;stroke-miterlimit:4;stroke-dasharray:none;stroke-opacity:1"
       d="m 72.906092,266.94501 c -15.971651,-9.19586 -23.724069,-13.94093 -23.724069,-14.52094 0,-0.90094 12.114502,-20.9422 12.659106,-20.9422 0.752457,0 3.677164,1.55025 14.109936,7.47901 5.139151,2.92049 10.785033,5.98642 12.546404,6.81319 l 3.202494,1.50321 1.166282,-1.20544 c 1.005969,-1.03975 12.748795,-20.73568 26.995375,-45.27864 5.25355,-9.05044 5.53421,-8.33263 -5.90912,-15.11311 -4.86229,-2.88103 -5.64642,-3.52198 -5.40342,-4.41678 0.26174,-0.96379 0.22878,-0.97807 -0.41615,-0.18027 -0.64936,0.80326 -0.97332,0.70882 -4.44557,-1.29608 -6.07228,-3.50616 -8.543397,-5.09485 -8.543397,-5.49259 0,-0.20558 1.928376,-3.6165 4.28528,-7.57982 3.014437,-5.06903 5.399707,-8.37065 8.043147,-11.13308 2.06682,-2.15987 3.94545,-3.87473 4.17474,-3.81081 0.22929,0.0639 1.26476,-0.17381 2.30105,-0.52829 1.03629,-0.35449 2.15101,-0.47961 2.47715,-0.27804 0.36124,0.22326 0.45831,0.14857 0.24838,-0.19111 -0.40129,-0.64929 1.39496,-1.00033 6.37572,-1.24597 3.351,-0.16527 3.41003,-0.14616 3.45443,1.11848 0.0321,0.91492 0.2296,0.61809 0.68359,-1.02748 0.35114,-1.27276 1.46724,-3.72824 2.48022,-5.45663 1.01298,-1.72839 1.84178,-3.22224 1.84178,-3.31966 0,-0.0974 2.16744,-3.83586 4.81654,-8.30762 l 4.81654,-8.13049 1.87572,1.02918 c 2.92529,1.60505 5.92861,3.9318 5.79613,4.4904 -0.0661,0.27876 0.25527,0.36275 0.7142,0.18664 0.45892,-0.17611 0.72403,-0.11111 0.58913,0.14444 -2.67516,5.06761 -8.78519,15.25191 -9.05155,15.08729 -0.19667,-0.12154 -0.51282,0.40247 -0.70258,1.16448 -0.18975,0.76201 -1.04921,2.61898 -1.90991,4.12661 -1.32461,2.32021 -1.62347,2.59167 -1.94622,1.76776 -0.2585,-0.65988 -0.39275,-0.19405 -0.41681,1.44636 -0.0283,1.92695 0.39601,3.21271 2.08332,6.31346 1.99015,3.65729 2.13155,4.18831 2.32866,8.74545 0.25623,5.92405 0.45244,5.43197 -8.24283,20.67307 -14.07783,24.67567 -48.497466,83.31913 -48.902542,83.31913 -0.06138,0 -4.764404,-2.6789 -10.451156,-5.95311 z M 119.05684,162.51718 c -0.1645,-0.42867 -0.40741,-0.67108 -0.5398,-0.53868 -0.1324,0.13239 -0.0909,0.48312 0.0922,0.77939 0.49803,0.80583 0.78912,0.64928 0.4476,-0.24071 z"
       id="path884"
       inkscape:connector-curvature="0"
       transform="matrix(0.26458333,0,0,0.26458333,0,210.00002)" />
    <path
       style="opacity:1;fill:#ff0000;fill-opacity:1;stroke:none;stroke-width:1.84213638;stroke-linecap:round;stroke-linejoin:round;stroke-miterlimit:4;stroke-dasharray:none;stroke-opacity:1"
       d="m 150.20704,122.38183 c -1.5198,-0.97643 -2.01745,-1.53323 -1.51522,-1.69533 0.41131,-0.13276 1.08877,-0.35508 1.50546,-0.49406 0.41668,-0.13897 -0.18052,-0.27062 -1.32712,-0.29255 -2.53234,-0.0484 -3.54782,-1.00631 -2.71552,-2.56146 0.31522,-0.58901 1.06967,-1.27099 1.67654,-1.5155 0.86732,-0.34945 0.91429,-0.45142 0.21952,-0.47659 -0.48613,-0.0176 -0.88388,-0.17663 -0.88388,-0.35339 0,-0.50368 8.52706,-14.73469 9.00635,-15.030901 0.57544,-0.355646 8.14712,4.108151 8.49174,5.006211 0.35357,0.92139 -5.90354,11.90719 -6.55321,11.50567 -0.2719,-0.16804 -0.34297,-0.0606 -0.15794,0.23881 0.18504,0.29939 -0.14687,1.36346 -0.73756,2.36461 -0.86705,1.46954 -1.21113,1.70643 -1.78581,1.22949 -0.39151,-0.32493 -0.85787,-0.44474 -1.03635,-0.26626 -0.17848,0.17848 -0.0837,0.32451 0.21071,0.32451 0.8369,0 1.19894,1.48713 0.62371,2.56197 -0.72026,1.34582 -2.35414,1.16841 -5.02142,-0.54523 z m 3.65204,-7.42395 c -0.62503,-0.12039 -1.64781,-0.12039 -2.27284,0 -0.62504,0.12039 -0.11365,0.21888 1.13642,0.21888 1.25006,0 1.76145,-0.0985 1.13642,-0.21888 z"
       id="path886"
       inkscape:connector-curvature="0"
       transform="matrix(0.26458333,0,0,0.26458333,0,210.00002)" />
    <path
       style="opacity:1;fill:#ff0000;fill-opacity:1;stroke:none;stroke-width:1.84213638;stroke-linecap:round;stroke-linejoin:round;stroke-miterlimit:4;stroke-dasharray:none;stroke-opacity:1"
       d="m 150.26585,122.41844 c -1.64606,-1.05841 -2.02978,-1.52714 -1.51523,-1.85091 0.50049,-0.31492 0.2892,-0.50559 -0.77217,-0.69681 -0.80367,-0.14478 -1.71281,-0.67476 -2.02031,-1.17773 -0.4594,-0.75144 -0.31411,-1.12755 0.8149,-2.10947 0.80441,-0.69961 1.12851,-1.27682 0.78181,-1.39239 -0.59075,-0.19691 1.96255,-4.93467 6.55362,-12.16052 l 2.18876,-3.444888 3.38975,1.853288 c 3.75153,2.05108 5.15751,3.13933 5.15751,3.99198 0,1.0226 -8.49457,15.18962 -9.03386,15.06643 -0.28943,-0.0661 -0.40327,0.20023 -0.25298,0.59188 0.43999,1.1466 -0.74171,2.81447 -1.96888,2.7789 -0.61526,-0.0178 -2.11057,-0.67022 -3.32292,-1.44976 z"
       id="path888"
       inkscape:connector-curvature="0"
       transform="matrix(0.26458333,0,0,0.26458333,0,210.00002)" />
    <path
       style="opacity:1;fill:#000000;fill-opacity:1;stroke:none;stroke-width:0.96499997;stroke-linecap:round;stroke-linejoin:round;stroke-miterlimit:4;stroke-dasharray:none;stroke-opacity:1"
       id="path913"
       d="m 11.368791,230.42823 c 0.384718,0.0307 0.753821,0.0946 1.121676,0.20989 0.283061,0.0958 0.562951,0.19234 0.853307,0.26449 0.09479,0.0377 0.122531,0.074 0.147483,0.1677 0,0 -0.957567,0.46863 -0.957567,0.46863 v 0 c 0.01,0.004 0.02343,0.0211 0.02995,0.0125 0.02091,-0.0277 -0.162306,-0.0378 -0.09208,-0.0486 -0.287725,-0.0789 -0.566433,-0.18088 -0.850181,-0.27232 -0.365555,-0.11149 -0.737216,-0.15913 -1.117545,-0.19248 0,0 0.86496,-0.60986 0.86496,-0.60986 z"
       inkscape:connector-curvature="0" />
    <path
       style="opacity:1;fill:#000000;fill-opacity:1;stroke:none;stroke-width:0.96499997;stroke-linecap:round;stroke-linejoin:round;stroke-miterlimit:4;stroke-dasharray:none;stroke-opacity:1"
       id="path915"
       d="m 11.769695,230.96277 c 0.314694,0.077 0.623813,0.17451 0.901218,0.34351 0,0 -0.883653,0.57245 -0.883653,0.57245 v 0 c -0.272082,-0.15621 -0.573876,-0.25124 -0.882525,-0.3061 0,0 0.86496,-0.60986 0.86496,-0.60986 z"
       inkscape:connector-curvature="0" />
    <path
       style="opacity:1;fill:#000000;fill-opacity:1;stroke:none;stroke-width:0.96499997;stroke-linecap:round;stroke-linejoin:round;stroke-miterlimit:4;stroke-dasharray:none;stroke-opacity:1"
       id="path917"
       d="m 11.913892,231.02766 c 0.265819,0.18067 0.528445,0.36536 0.789491,0.55302 0,0 -0.887969,0.56409 -0.887969,0.56409 v 0 c -0.258566,-0.18625 -0.515107,-0.37538 -0.787606,-0.54112 0,0 0.886084,-0.57599 0.886084,-0.57599 z"
       inkscape:connector-curvature="0" />
    <path
       style="opacity:1;fill:#000000;fill-opacity:1;stroke:none;stroke-width:0.96499997;stroke-linecap:round;stroke-linejoin:round;stroke-miterlimit:4;stroke-dasharray:none;stroke-opacity:1"
       id="path919"
       d="m 12.301328,231.164 c 0.296235,0.21569 0.500132,0.50269 0.63087,0.84097 0.05328,0.18756 0.08769,0.37973 0.130923,0.5699 0,0 -0.929674,0.50008 -0.929674,0.50008 v 0 c -0.04199,-0.18596 -0.07837,-0.37261 -0.122727,-0.55781 -0.117999,-0.32159 -0.310651,-0.59152 -0.60051,-0.78256 0,0 0.891118,-0.57058 0.891118,-0.57058 z"
       inkscape:connector-curvature="0" />
    <path
       style="opacity:1;fill:#000000;fill-opacity:1;stroke:none;stroke-width:0.96499997;stroke-linecap:round;stroke-linejoin:round;stroke-miterlimit:4;stroke-dasharray:none;stroke-opacity:1"
       id="path921"
       d="m 26.987291,242.69838 c -0.26973,-0.21545 -0.545933,-0.4215 -0.792699,-0.66368 -0.178684,-0.20574 -0.339771,-0.42295 -0.502632,-0.64059 -0.118545,-0.18597 -0.281028,-0.33783 -0.422751,-0.50556 0,0 0.907072,-0.54587 0.907072,-0.54587 v 0 c 0.144443,0.16849 0.306891,0.32374 0.425938,0.51216 0.156734,0.21505 0.315552,0.42682 0.490823,0.62783 0.243491,0.23664 0.511069,0.44538 0.785368,0.64514 0,0 -0.891119,0.57057 -0.891119,0.57057 z"
       inkscape:connector-curvature="0" />
    <path
       style="opacity:1;fill:#000000;fill-opacity:1;stroke:none;stroke-width:0.96499997;stroke-linecap:round;stroke-linejoin:round;stroke-miterlimit:4;stroke-dasharray:none;stroke-opacity:1"
       id="path923"
       d="m 27.008349,242.6486 c -0.214236,-0.25927 -0.444953,-0.50395 -0.651739,-0.77019 -0.136151,-0.17363 -0.168395,-0.38756 -0.228755,-0.59223 0,0 0.928598,-0.50764 0.928598,-0.50764 v 0 c 0.05807,0.19192 0.07917,0.39585 0.207041,0.55992 0.207071,0.26947 0.436412,0.51814 0.6578,0.77519 0,0 -0.912945,0.53495 -0.912945,0.53495 z"
       inkscape:connector-curvature="0" />
    <path
       style="opacity:1;fill:#000000;fill-opacity:1;stroke:none;stroke-width:0.96499997;stroke-linecap:round;stroke-linejoin:round;stroke-miterlimit:4;stroke-dasharray:none;stroke-opacity:1"
       id="path927"
       d="m 26.846461,240.16731 c 0.181237,0.32558 0.347284,0.65866 0.529249,0.98386 0.117363,0.20076 0.276801,0.36712 0.426987,0.54191 0.13844,0.19044 0.165661,0.42909 0.221866,0.65193 0.04352,0.16701 0.05773,0.33881 0.09781,0.50632 0,0 -0.930458,0.50283 -0.930458,0.50283 v 0 c -0.04246,-0.16713 -0.05534,-0.33843 -0.09692,-0.50603 -0.05261,-0.20612 -0.07638,-0.42998 -0.199787,-0.60796 -0.155983,-0.17931 -0.313635,-0.3564 -0.43293,-0.56387 -0.177206,-0.32427 -0.338142,-0.65744 -0.528762,-0.97403 0,0 0.912945,-0.53496 0.912945,-0.53496 z"
       inkscape:connector-curvature="0" />
    <path
       style="opacity:1;fill:#0026ff;fill-opacity:1;stroke:none;stroke-width:1.84213638;stroke-linecap:round;stroke-linejoin:round;stroke-miterlimit:4;stroke-dasharray:none;stroke-opacity:1"
       d="m 45.393951,77.383553 c -0.833376,-0.257568 -1.996685,-0.354857 -2.585132,-0.216198 -1.635315,0.385339 -6.887114,-2.495061 -9.27752,-5.088346 -1.164597,-1.263438 -2.722117,-3.587031 -3.461157,-5.163541 -1.174221,-2.504833 -1.343708,-3.503455 -1.343708,-7.917144 0,-4.426584 0.16779,-5.408779 1.357731,-7.947774 1.732138,-3.695888 5.397407,-7.361157 9.255317,-9.255317 2.701779,-1.326521 3.5353,-1.484731 7.822236,-1.484731 4.313974,0 5.130198,0.157324 8.087606,1.558861 6.056599,2.870266 10.386561,8.918124 10.966876,15.317942 l 0.270732,2.985677 -1.973218,1.00666 c -5.484177,2.797819 -12.133937,9.374435 -14.774982,14.612468 -1.131797,2.244712 -1.634874,2.428983 -4.344781,1.591443 z"
       id="path929"
       inkscape:connector-curvature="0"
       transform="matrix(0.26458333,0,0,0.26458333,0,210.00002)" />
    <path
       style="opacity:1;fill:#0026ff;fill-opacity:1;stroke:none;stroke-width:1.84213638;stroke-linecap:round;stroke-linejoin:round;stroke-miterlimit:4;stroke-dasharray:none;stroke-opacity:1"
       d="M 106.97364,74.341111 C 104.44988,69.46869 99.182149,64.170632 94.472604,61.768097 l -3.449279,-1.759621 0.185318,-3.079744 c 0.377196,-6.268482 4.732326,-12.322535 11.006387,-15.299945 2.38863,-1.133543 3.45033,-1.318285 7.57615,-1.318285 4.31995,0 5.12546,0.155791 8.08122,1.562983 4.17392,1.987141 7.31108,5.125152 9.29364,9.296156 1.38513,2.914114 1.56046,3.793756 1.56046,7.828683 0,4.030548 -0.17638,4.91773 -1.55643,7.828682 -2.93375,6.18817 -8.85882,10.484983 -15.15516,10.990392 l -3.1113,0.249746 z"
       id="path931"
       inkscape:connector-curvature="0"
       transform="matrix(0.26458333,0,0,0.26458333,0,210.00002)" />
    <path
       style="opacity:1;fill:#0026ff;fill-opacity:1;stroke:none;stroke-width:1.84213638;stroke-linecap:round;stroke-linejoin:round;stroke-miterlimit:4;stroke-dasharray:none;stroke-opacity:1"
       d="m 85.582939,119.24957 c -2.952248,-3.51646 -6.901549,-4.353 -11.055973,-2.34188 -1.236458,0.59856 -2.615102,1.73354 -3.063654,2.52219 -0.448551,0.78865 -0.935286,1.43534 -1.081632,1.43709 -0.146346,0.002 -1.844882,-1.58779 -3.774526,-3.53234 -2.758885,-2.78018 -3.28527,-3.53553 -2.463847,-3.53553 1.170115,0 2.72047,-1.46822 2.708651,-2.56515 -0.01855,-1.72161 -0.975888,-2.23391 -4.644895,-2.48561 l -3.681129,-0.25254 -2.42565,-4.04061 c -2.989366,-4.979641 -2.53132,-5.287775 3.452604,-2.32262 2.297682,1.13854 4.50552,2.07008 4.906309,2.07008 1.229999,0 2.549723,-1.86205 2.22806,-3.14366 -0.530102,-2.112094 -7.535439,-5.569723 -12.725963,-6.281163 L 51.824158,94.484899 51.494615,91.57212 c -0.695799,-6.150049 1.921039,-13.340324 6.880007,-18.904161 6.704045,-7.521771 16.41405,-11.033164 25.440944,-9.200113 5.92121,1.202393 10.588028,3.701667 14.278378,7.646663 5.177666,5.53494 7.900806,12.616175 7.569076,19.682568 l -0.16499,3.514482 -3.283,0.644681 c -3.514451,0.690132 -10.453143,3.924782 -11.270201,5.25389 -0.272416,0.44314 -0.344729,1.40564 -0.160697,2.13889 0.516879,2.0594 2.251888,2.19346 5.434394,0.41987 2.894532,-1.6131 6.828644,-2.953219 7.296414,-2.48546 0.31839,0.3184 -1.91988,4.9502 -3.41938,7.07595 -0.914812,1.29687 -1.221949,1.38896 -4.632436,1.38896 -3.984329,0 -4.864847,0.45708 -4.864847,2.52538 0,1.78312 0.875295,2.52538 2.978014,2.52538 h 1.765831 l -1.740577,1.81262 c -0.957318,0.99693 -2.769471,2.68027 -4.027008,3.74076 l -2.286431,1.92814 z M 66.636832,87.717603 c 0.849698,-0.155811 2.431606,-0.03846 3.51535,0.260774 2.589072,0.714877 4.424157,-0.323152 4.187882,-2.368906 -0.4842,-4.19238 -12.958774,-4.208351 -13.443854,-0.01721 -0.185827,1.605573 1.633524,3.147591 3.185563,2.699971 0.555584,-0.160235 1.70536,-0.418818 2.555059,-0.574629 z m 22.008521,-0.01486 c 1.009332,-0.15665 2.646013,-0.01721 3.63707,0.309869 2.914458,0.961858 5.192606,-1.039788 3.910335,-3.435733 -1.574344,-2.941688 -13.034473,-2.698435 -13.230468,0.280831 -0.163427,2.484223 1.061327,3.965835 2.837762,3.4329 0.555584,-0.166676 1.83597,-0.431216 2.845301,-0.587867 z"
       id="path933"
       inkscape:connector-curvature="0"
       transform="matrix(0.26458333,0,0,0.26458333,0,210.00002)" />
    <path
       style="opacity:1;fill:#0026ff;fill-opacity:1;stroke:none;stroke-width:1.84213638;stroke-linecap:round;stroke-linejoin:round;stroke-miterlimit:4;stroke-dasharray:none;stroke-opacity:1"
       d="m 60.917215,158.25591 c -3.116042,-1.41436 -7.293683,-5.59259 -8.966015,-8.9673 -1.180278,-2.38175 -1.481985,-3.74367 -1.656675,-7.47828 -0.202809,-4.33574 -0.121178,-4.78942 1.617511,-8.98965 1.582232,-3.82226 6.63647,-14.3522 7.164476,-14.92638 0.100115,-0.10887 2.39448,1.91718 5.098588,4.50232 5.448444,5.20875 13.07776,11.08998 14.394516,11.09634 1.321497,0.006 9.272445,-5.55952 14.257598,-9.98076 l 4.501781,-3.99254 1.928742,1.92875 c 3.257383,3.25737 8.014513,14.56516 7.996003,19.00661 -0.0211,5.05283 -0.59475,6.42081 -4.14573,9.88548 -1.78471,1.74132 -3.763373,4.08849 -4.397028,5.21593 -2.206586,3.92609 -7.447097,5.0109 -8.669891,1.79471 -0.685641,-1.80337 0.413708,-3.21517 3.789851,-4.86696 4.77265,-2.33504 7.373938,-6.74915 7.373938,-12.51279 0,-3.61593 -2.045915,-5.40207 -4.299892,-3.75392 -0.729431,0.53337 -0.983561,1.42322 -1.067174,3.73674 -0.06036,1.67016 -0.474233,3.74149 -0.919715,4.60296 l -0.809967,1.5663 -2.891349,-2.90692 c -3.898526,-3.91952 -6.911892,-5.35439 -11.730184,-5.58553 -5.471361,-0.26248 -8.865107,1.10802 -13.017192,5.25675 l -3.168205,3.16563 -0.81472,-1.24342 c -0.462889,-0.70645 -0.9248,-2.78193 -1.069628,-4.80609 -0.222441,-3.1089 -0.404063,-3.63063 -1.425955,-4.09624 -0.916033,-0.41737 -1.463997,-0.34161 -2.516302,0.34788 -1.302179,0.85322 -1.337866,1.00511 -1.114518,4.7436 0.362982,6.07573 2.258509,8.94746 7.874855,11.93042 2.335121,1.24023 2.908223,1.79833 3.041424,2.96181 0.206257,1.80163 -1.145778,3.36831 -2.894059,3.35351 -0.720873,-0.006 -2.280161,-0.45113 -3.465084,-0.98896 z"
       id="path935"
       inkscape:connector-curvature="0"
       transform="matrix(0.26458333,0,0,0.26458333,0,210.00002)" />
    <path
       style="opacity:1;fill:#0026ff;fill-opacity:1;stroke:none;stroke-width:1.84213638;stroke-linecap:round;stroke-linejoin:round;stroke-miterlimit:4;stroke-dasharray:none;stroke-opacity:1"
       d="m 76.451532,125.98837 c -1.600372,-1.33605 -1.687087,-1.55123 -1.12355,-2.78806 1.313534,-2.8829 5.474444,-2.72488 6.708654,0.25476 0.339014,0.81845 0.528975,1.55216 0.422136,1.63046 -0.106839,0.0783 -0.849936,0.63922 -1.651327,1.24649 -1.881419,1.4257 -2.273579,1.39476 -4.355913,-0.34365 z"
       id="path937"
       inkscape:connector-curvature="0"
       transform="matrix(0.26458333,0,0,0.26458333,0,210.00002)" />
    <path
       style="opacity:1;fill:#0026ff;fill-opacity:1;stroke:none;stroke-width:1.84213638;stroke-linecap:round;stroke-linejoin:round;stroke-miterlimit:4;stroke-dasharray:none;stroke-opacity:1"
       d="m 76.203603,178.48166 c -3.928019,-0.95627 -7.584409,-4.30651 -9.616181,-8.81102 -1.886918,-4.18336 -1.826581,-4.83162 0.524808,-5.63849 2.459689,-0.84404 4.546643,-3.06167 5.324485,-5.65788 0.80798,-2.69679 -0.115647,-5.87978 -2.356379,-8.12051 -1.691846,-1.69184 -1.714872,-1.76818 -0.83863,-2.77994 2.767864,-3.19594 6.13647,-4.8902 9.703521,-4.88044 2.421917,0.007 6.466508,1.98844 8.568303,4.1984 l 1.713478,1.80166 -1.655886,1.39334 c -3.055996,2.57145 -3.819895,6.33005 -2.031101,9.9936 1.095972,2.24461 3.727196,4.32635 5.468317,4.32635 1.725393,0 1.389253,1.67952 -1.293945,6.46518 -2.64507,4.71766 -4.442293,6.39253 -8.01245,7.46699 -2.575498,0.77511 -3.198612,0.80262 -5.49834,0.24276 z"
       id="path939"
       inkscape:connector-curvature="0"
       transform="matrix(0.26458333,0,0,0.26458333,0,210.00002)" />
    <path
       style="opacity:1;fill:#0026ff;fill-opacity:1;stroke:none;stroke-width:1.84213638;stroke-linecap:round;stroke-linejoin:round;stroke-miterlimit:4;stroke-dasharray:none;stroke-opacity:1"
       d="m 66.859692,193.30437 c -6.210818,-1.69068 -12.472743,-5.71363 -16.208249,-10.41291 -4.071954,-5.12255 -6.993899,-13.10638 -7.016489,-19.17165 -0.0088,-2.36767 0.943084,-8.07207 2.005224,-12.01655 l 0.571336,-2.12178 1.287459,2.58359 c 1.780426,3.57285 5.538463,7.52888 9.141427,9.62304 2.937811,1.70755 3.038838,1.83657 3.328465,4.25067 0.401864,3.34963 3.298455,9.29766 5.904735,12.12514 1.227252,1.33142 3.527884,2.99597 5.445809,3.94016 2.816498,1.38656 3.880261,1.63586 7.00425,1.64147 2.025871,0.004 3.684509,0.0437 3.685862,0.0891 0.0014,0.0454 -1.314396,2.31822 -2.923885,5.05077 l -2.926345,4.96827 -3.260839,0.10344 c -1.793462,0.0569 -4.510904,-0.23685 -6.03876,-0.65276 z"
       id="path941"
       inkscape:connector-curvature="0"
       transform="matrix(0.26458333,0,0,0.26458333,0,210.00002)" />
    <path
       style="opacity:1;fill:#0026ff;fill-opacity:1;stroke:none;stroke-width:1.84213638;stroke-linecap:round;stroke-linejoin:round;stroke-miterlimit:4;stroke-dasharray:none;stroke-opacity:1"
       d="m 41.146948,192.71727 c 0.780047,-2.05894 2.436861,-3.60856 4.528058,-4.2351 1.820563,-0.54545 1.932624,-0.49603 5.745444,2.53388 l 3.888665,3.09018 h -7.344193 -7.344194 z"
       id="path943"
       inkscape:connector-curvature="0"
       transform="matrix(0.26458333,0,0,0.26458333,0,210.00002)" />
  </g>
</svg>
