<?xml version="1.0" encoding="UTF-8" standalone="no"?>
<!-- Created with Inkscape (http://www.inkscape.org/) -->

<svg
   xmlns:dc="http://purl.org/dc/elements/1.1/"
   xmlns:cc="http://creativecommons.org/ns#"
   xmlns:rdf="http://www.w3.org/1999/02/22-rdf-syntax-ns#"
   xmlns:svg="http://www.w3.org/2000/svg"
   xmlns="http://www.w3.org/2000/svg"
   xmlns:sodipodi="http://sodipodi.sourceforge.net/DTD/sodipodi-0.dtd"
   xmlns:inkscape="http://www.inkscape.org/namespaces/inkscape"
   width="5cm"
   height="8.6999998cm"
   viewBox="0 0 50 86.999996"
   version="1.1"
   id="svg8"
   inkscape:version="0.92.4 (5da689c313, 2019-01-14)"
   sodipodi:docname="libro1.svg">
  <defs
     id="defs2" />
  <sodipodi:namedview
     id="base"
     pagecolor="#ffffff"
     bordercolor="#666666"
     borderopacity="1.0"
     inkscape:pageopacity="0.0"
     inkscape:pageshadow="2"
     inkscape:zoom="1.979899"
     inkscape:cx="101.40691"
     inkscape:cy="152.69338"
     inkscape:document-units="mm"
     inkscape:current-layer="g5442"
     showgrid="false"
     inkscape:pagecheckerboard="true"
     units="cm"
     fit-margin-top="0"
     fit-margin-left="0"
     fit-margin-right="0"
     fit-margin-bottom="0"
     inkscape:window-width="1920"
     inkscape:window-height="986"
     inkscape:window-x="-11"
     inkscape:window-y="-11"
     inkscape:window-maximized="1" />
  <metadata
     id="metadata5">
    <rdf:RDF>
      <cc:Work
         rdf:about="">
        <dc:format>image/svg+xml</dc:format>
        <dc:type
           rdf:resource="http://purl.org/dc/dcmitype/StillImage" />
        <dc:title />
      </cc:Work>
    </rdf:RDF>
  </metadata>
  <g
     inkscape:label="Capa 1"
     inkscape:groupmode="layer"
     id="layer1"
     transform="translate(0,-210.00002)">
    <g
       id="g4628"
       transform="matrix(0.20947998,0,0,0.20947998,8.8908204,240.81071)" />
    <g
       id="g4630"
       transform="matrix(0.20947998,0,0,0.20947998,8.8908204,240.81071)" />
    <g
       id="g4632"
       transform="matrix(0.20947998,0,0,0.20947998,8.8908204,240.81071)" />
    <g
       id="g4634"
       transform="matrix(0.20947998,0,0,0.20947998,8.8908204,240.81071)" />
    <g
       id="g4636"
       transform="matrix(0.20947998,0,0,0.20947998,8.8908204,240.81071)" />
    <g
       id="g4638"
       transform="matrix(0.20947998,0,0,0.20947998,8.8908204,240.81071)" />
    <g
       id="g4640"
       transform="matrix(0.20947998,0,0,0.20947998,8.8908204,240.81071)" />
    <g
       id="g4642"
       transform="matrix(0.20947998,0,0,0.20947998,8.8908204,240.81071)" />
    <g
       id="g4644"
       transform="matrix(0.20947998,0,0,0.20947998,8.8908204,240.81071)" />
    <g
       id="g4646"
       transform="matrix(0.20947998,0,0,0.20947998,8.8908204,240.81071)" />
    <g
       id="g4648"
       transform="matrix(0.20947998,0,0,0.20947998,8.8908204,240.81071)" />
    <g
       id="g4650"
       transform="matrix(0.20947998,0,0,0.20947998,8.8908204,240.81071)" />
    <g
       id="g4652"
       transform="matrix(0.20947998,0,0,0.20947998,8.8908204,240.81071)" />
    <g
       id="g4654"
       transform="matrix(0.20947998,0,0,0.20947998,8.8908204,240.81071)" />
    <g
       id="g4656"
       transform="matrix(0.20947998,0,0,0.20947998,8.8908204,240.81071)" />
    <g
       id="g5442">
      <rect
         ry="6.6000047"
         rx="6.6000047"
         y="211.30846"
         x="1.4355676"
         height="84.656914"
         width="47.446022"
         id="rect4620"
         style="opacity:1;fill:#ffa300;fill-opacity:1;stroke:#399271;stroke-width:2.11612773;stroke-linecap:round;stroke-linejoin:round;stroke-miterlimit:4;stroke-dasharray:none;stroke-opacity:1" />
      <g
         transform="translate(-46.416192,27.496937)"
         id="g4762">
        <g
           id="g4685"
           transform="matrix(0.08494911,0,0,0.08494911,49.023536,191.74513)">
          <path
             id="path4683"
             d="m 190.557,165.314 c 3.76,1.496 8.191,-0.3 9.741,-4.196 1.531,-3.849 -0.348,-8.21 -4.196,-9.742 -5.126,-2.04 -10.517,-3.073 -16.027,-3.073 -0.119,0 -0.24,0 -0.36,0.001 -5.392,0.044 -10.667,1.078 -15.677,3.072 -3.849,1.532 -5.727,5.894 -4.195,9.742 1.532,3.849 5.896,5.728 9.742,4.195 3.277,-1.304 6.727,-1.98 10.253,-2.009 3.706,-0.033 7.293,0.647 10.719,2.01 z M 447.75,249.18 c -46.234,0 -83.85,37.615 -83.85,83.85 v 30.05 c 0,16.404 -10.316,30.735 -25.096,36.343 -0.082,-7.268 -0.88,-14.6 -2.394,-21.814 -7.705,-36.708 -20.465,-73.443 -37.081,-107.001 -1.838,-3.712 -6.34,-5.23 -10.05,-3.392 -3.712,1.839 -5.23,6.338 -3.392,10.05 4.74,9.568 9.183,19.439 13.204,29.338 1.525,3.754 2.98,7.541 4.401,11.341 1.321,8.407 3.188,32.693 -14.345,52.384 -7.262,8.154 -16.843,14.209 -27.706,17.511 -0.979,0.297 -1.985,0.448 -2.991,0.448 -4.475,0 -8.51,-2.995 -9.813,-7.284 -0.797,-2.623 -0.524,-5.399 0.767,-7.817 1.291,-2.418 3.447,-4.189 6.07,-4.986 5.057,-1.537 12.343,-4.783 18.344,-11.521 12.45,-13.982 9.93,-32.572 9.298,-36.156 -0.718,-4.079 -4.604,-6.806 -8.688,-6.085 -4.079,0.719 -6.804,4.608 -6.084,8.688 0.258,1.465 2.29,14.573 -5.729,23.579 -0.395,0.444 -0.805,0.852 -1.219,1.248 -11.115,-17.622 -28.569,-28.262 -47.146,-28.262 -18.553,0 -35.995,10.621 -47.118,28.215 -0.398,-0.384 -0.793,-0.775 -1.174,-1.203 -8.019,-9.005 -5.986,-22.113 -5.729,-23.579 0.72,-4.079 -2.005,-7.969 -6.084,-8.688 -4.075,-0.718 -7.969,2.005 -8.688,6.085 -0.632,3.584 -3.152,22.175 9.297,36.156 6.001,6.739 13.289,9.985 18.345,11.521 5.415,1.646 8.481,7.39 6.837,12.804 -1.304,4.289 -5.339,7.284 -9.814,7.284 -1.006,0 -2.012,-0.151 -2.989,-0.447 -0.649,-0.197 -1.293,-0.406 -1.933,-0.623 -0.046,-0.018 -0.094,-0.03 -0.14,-0.047 -10.011,-3.418 -18.839,-9.211 -25.634,-16.842 -17.777,-19.963 -15.612,-44.654 -14.292,-52.727 1.381,-3.685 2.795,-7.357 4.275,-10.999 7.026,-17.305 15.233,-34.235 24.428,-50.477 25.488,28.392 54.128,47.544 56.28,48.965 2.374,1.568 5.427,1.656 7.885,0.235 0.981,-0.567 24.312,-14.155 47.94,-37.168 7.279,-7.09 13.765,-14.304 19.455,-21.598 10.578,2.191 20.553,6.369 29.582,12.398 3.41,2.277 8.082,1.404 10.402,-2.071 2.3,-3.445 1.373,-8.102 -2.072,-10.402 -8.824,-5.894 -18.415,-10.289 -28.563,-13.101 6.76,-10.565 11.844,-21.242 15.18,-31.906 4.556,0.514 8.542,1.427 11.755,2.388 3.972,1.187 8.147,-1.068 9.335,-5.037 1.187,-3.968 -1.068,-8.147 -5.036,-9.334 -3.497,-1.046 -7.739,-2.05 -12.559,-2.702 2.025,-12.493 1.473,-24.942 -1.164,-36.804 41.122,-0.274 74.494,-33.802 74.494,-74.987 0,-41.355 -33.645,-75 -75,-75 -41.012,0 -74.422,33.093 -74.974,73.976 -20.725,-4.63 -29.426,-3.614 -45.047,0.205 C 191.287,33.204 157.831,0 116.75,0 c -41.355,0 -75,33.645 -75,75 0,33.039 21.179,61.823 52.7,71.627 3.854,1.199 8.146,-0.932 9.39,-4.934 1.229,-3.956 -0.979,-8.159 -4.935,-9.389 C 73.69,124.462 56.75,101.433 56.75,75 c 0,-33.084 26.916,-60 60,-60 34.673,0 62.406,29.746 59.836,64.412 -15.515,6.838 -26.778,16.538 -33.465,23.434 -27.626,28.487 -32.235,57.144 -28.054,82.65 -5.259,0.361 -10.506,1.159 -15.669,2.415 -4.024,0.979 -6.494,5.035 -5.516,9.06 0.979,4.024 5.028,6.498 9.061,5.516 4.256,-1.035 9.693,-1.962 15.933,-2.172 3.886,11.397 9.76,22.355 16.693,32.609 -10.818,2.779 -21.031,7.319 -30.377,13.561 -3.445,2.3 -4.372,6.958 -2.072,10.402 2.319,3.474 6.996,4.346 10.402,2.071 8.588,-5.735 18.024,-9.8 28.049,-12.082 0.096,-0.022 0.193,-0.038 0.29,-0.06 -23.117,40.586 -40.182,85.152 -49.77,130.793 -6.223,29.624 -0.178,60.031 16.587,84.882 -16.082,3.531 -28.157,17.883 -28.157,35.01 0,3.874 1.509,7.516 4.226,10.232 2.73,2.752 6.379,4.268 10.274,4.268 h 49.851 c 6.587,0 12.871,-2.624 17.513,-7.104 12.451,4.648 25.8,7.103 39.515,7.103 h 24.7 c 13.894,0 27.202,-2.525 39.494,-7.126 4.644,4.494 10.939,7.126 17.537,7.126 h 49.851 c 3.896,0 7.544,-1.516 10.252,-4.246 2.739,-2.738 4.248,-6.38 4.248,-10.254 0,-17.11 -12.052,-31.45 -28.111,-34.999 3.349,-4.955 6.307,-10.191 8.831,-15.663 44.547,-1.92 80.2,-38.747 80.2,-83.757 v -30.05 c 0,-21.422 17.428,-38.85 38.85,-38.85 12.406,0 22.5,-10.093 22.5,-22.5 0,-12.407 -10.096,-22.501 -22.502,-22.501 z m -221.388,32.555 c -4.94,3.585 -9.066,6.331 -11.869,8.126 -2.899,-2.073 -7.254,-5.284 -12.486,-9.441 -0.015,-0.239 -0.047,-0.482 -0.047,-0.719 0,-6.764 5.514,-12.266 12.291,-12.266 6.777,0 12.291,5.502 12.291,12.266 -0.001,0.677 -0.062,1.357 -0.18,2.034 z M 311.75,15 c 33.084,0 60,26.916 60,60 0,33.084 -26.916,60 -60,60 -1.396,0 -2.785,-0.05 -4.16,-0.145 -6.287,-15.997 -14.836,-26.553 -17.21,-29.303 C 278.525,91.827 264.584,83.579 251.862,78.623 249.782,44.14 277.235,15 311.75,15 Z M 135.368,201.539 c 1.7,0.315 3.424,0.687 5.174,1.142 8.683,2.255 16.867,6.023 24.326,11.2 3.369,2.338 8.057,1.544 10.438,-1.885 2.362,-3.403 1.518,-8.076 -1.885,-10.438 -8.916,-6.188 -18.709,-10.694 -29.107,-13.396 -4.572,-1.187 -9.243,-2.008 -13.959,-2.466 -4.496,-22.736 -0.925,-47.188 23.535,-72.409 20.13,-20.757 52.659,-33.954 87.711,-22.482 12.884,4.217 25.174,10.363 37.428,24.55 1.365,1.58 10.331,12.36 15.988,28.807 0.037,0.113 0.074,0.226 0.117,0.337 4.636,11.972 5.641,28.195 3.186,41.668 -4.42,0.227 -9.084,0.821 -13.942,1.949 -10.646,2.472 -20.556,7.032 -29.454,13.554 -3.341,2.449 -4.064,7.142 -1.615,10.483 2.466,3.364 7.171,4.043 10.482,1.616 7.254,-5.316 15.321,-9.031 23.979,-11.042 2.16,-0.501 4.27,-0.863 6.333,-1.13 -3.738,10.214 -9.119,19.841 -15.37,28.739 -6.663,-0.706 -13.39,-0.738 -20.105,-0.081 -4.123,0.403 -7.138,4.072 -6.735,8.194 0.403,4.122 4.063,7.14 8.194,6.734 2.423,-0.237 4.846,-0.36 7.267,-0.387 -8.892,10.185 -18.488,19.05 -27.222,26.27 -3.624,-10.814 -13.853,-18.632 -25.88,-18.632 -11.44,0 -21.253,7.073 -25.303,17.069 -7.969,-7.008 -16.674,-15.347 -24.924,-24.62 1.464,0.067 2.928,0.157 4.392,0.3 4.123,0.411 7.791,-2.612 8.194,-6.734 0.402,-4.123 -2.612,-7.791 -6.735,-8.194 -5.965,-0.583 -11.936,-0.608 -17.863,-0.116 -6.678,-9.031 -12.502,-18.655 -16.645,-28.6 z m 58.92,183.825 c 3.739,-12.309 -2.417,-25.303 -13.879,-30.409 8.38,-12.818 20.61,-20.265 33.841,-20.265 13.024,0 25.466,7.613 33.836,20.3 -11.412,5.131 -17.533,18.093 -13.801,30.374 3.177,10.458 12.502,17.548 23.351,17.89 -1.833,11.448 -6.372,21.902 -13.184,30.08 -8.254,9.909 -18.979,15.366 -30.202,15.366 -11.224,0 -21.95,-5.459 -30.205,-15.372 -6.81,-8.178 -11.348,-18.628 -13.18,-30.071 10.88,-0.312 20.239,-7.412 23.423,-17.893 z M 144.87,497 H 95.525 c 0.267,-11.267 9.515,-20.35 20.845,-20.35 h 3.617 c 7.566,8.061 16.181,14.879 25.564,20.306 -0.226,0.015 -0.45,0.044 -0.681,0.044 z m 188.105,0 H 283.63 c -0.253,0 -0.5,-0.03 -0.749,-0.048 9.529,-5.504 18.168,-12.361 25.654,-20.302 h 3.595 c 11.33,0 20.578,9.083 20.845,20.35 z M 226.6,497 h -24.7 c -61.877,-10e-4 -107.672,-56.586 -95.131,-116.309 1.87,-8.906 4.045,-17.771 6.484,-26.571 2.816,8.688 7.463,17.752 14.97,26.184 7.378,8.286 16.634,14.831 27.076,19.197 3.184,36.384 28.309,64.199 58.95,64.199 30.628,0 55.75,-27.8 58.948,-64.167 10.472,-4.366 19.754,-10.923 27.152,-19.229 7.473,-8.392 12.11,-17.411 14.93,-26.062 2.425,8.76 4.589,17.584 6.451,26.449 C 334.124,439.71 288.048,497.224 226.6,497 Z M 447.75,279.18 c -29.692,0 -53.85,24.157 -53.85,53.85 v 30.05 c 0,34.755 -25.891,63.56 -59.395,68.185 1.486,-5.15 2.604,-10.453 3.33,-15.876 23.784,-5.809 41.065,-27.318 41.065,-52.308 v -30.05 c 0,-37.964 30.886,-68.85 68.85,-68.85 4.136,0 7.5,3.364 7.5,7.5 0,4.136 -3.364,7.499 -7.5,7.499 z M 237.943,165.314 c 3.279,-1.305 6.729,-1.98 10.254,-2.009 0.078,-0.001 0.157,-0.001 0.236,-0.001 3.604,0 7.131,0.676 10.482,2.01 3.76,1.497 8.192,-0.299 9.742,-4.195 1.531,-3.848 -0.347,-8.21 -4.195,-9.742 -5.236,-2.084 -10.73,-3.099 -16.389,-3.072 -5.391,0.044 -10.664,1.077 -15.676,3.071 -3.849,1.531 -5.728,5.893 -4.196,9.742 1.533,3.849 5.897,5.727 9.742,4.196 z"
             inkscape:connector-curvature="0" />
        </g>
        <path
           style="opacity:1;fill:#ff0000;fill-opacity:1;stroke:none;stroke-width:0;stroke-linecap:round;stroke-linejoin:round;stroke-miterlimit:4;stroke-dasharray:none;stroke-opacity:1"
           d="m 293.52699,66.864063 c 0.46845,-2.047124 0.70449,-2.2916 3.21873,-3.333695 3.5028,-1.45183 6.96462,-4.843321 8.66404,-8.488026 1.25726,-2.696425 1.36785,-3.512677 1.65741,-12.233118 0.26104,-7.861501 0.48172,-9.782799 1.39104,-12.110305 2.96178,-7.581026 8.90782,-12.651496 16.61409,-14.167611 3.65186,-0.718461 5.49342,-0.390159 5.95415,1.061472 0.54697,1.723355 -0.94193,2.822628 -4.22647,3.120459 -5.65558,0.512831 -11.112,4.476968 -13.62603,9.899423 -1.2263,2.644989 -1.34531,3.532853 -1.6348,12.196562 -0.26341,7.88333 -0.48208,9.776337 -1.39887,12.110306 -2.40743,6.128792 -6.6711,10.501905 -12.62779,12.951948 -4.25594,1.750498 -4.59688,1.664317 -3.9855,-1.007415 z"
           id="path4708"
           inkscape:connector-curvature="0"
           transform="matrix(0.26458333,0,0,0.26458333,0,210.00002)" />
        <path
           style="opacity:1;fill:#ff0000;fill-opacity:1;stroke:none;stroke-width:2.03303146;stroke-linecap:round;stroke-linejoin:round;stroke-miterlimit:4;stroke-dasharray:none;stroke-opacity:1"
           d="m 221.04649,-23.257257 c -1.36462,-2.310128 -3.34772,-4.012852 -4.67362,-4.012852 -1.83231,0 -6.17116,-2.993021 -8.3683,-5.77261 -3.08445,-3.90212 -4.14982,-7.381938 -3.91543,-12.788943 0.17258,-3.981178 0.40687,-4.937837 1.88661,-7.703471 2.04622,-3.8244 5.19113,-6.828379 9.03537,-8.63049 2.52098,-1.181792 3.47499,-1.340894 7.91714,-1.320355 6.04018,0.02793 8.49059,0.938384 12.42142,4.615214 3.04271,2.846102 4.83209,5.737348 5.79919,9.370231 1.29788,4.875485 1.10656,5.456324 -2.45199,7.444133 -1.78417,0.996634 -5.0122,3.618987 -7.47052,6.068811 -3.387,3.375295 -4.78808,5.231442 -6.43972,8.531323 -1.16101,2.319608 -2.11091,4.532078 -2.11091,4.916598 0,1.127976 -0.7286,0.807069 -1.62924,-0.717589 z"
           id="path4718"
           inkscape:connector-curvature="0"
           transform="matrix(0.26458333,0,0,0.26458333,0,210.00002)" />
        <path
           style="opacity:1;fill:#ff0000;fill-opacity:1;stroke:none;stroke-width:2.03303146;stroke-linecap:round;stroke-linejoin:round;stroke-miterlimit:4;stroke-dasharray:none;stroke-opacity:1"
           d="m 282.48946,-29.478622 c -2.55396,-4.935194 -8.30245,-10.707793 -12.76399,-12.817506 l -3.20435,-1.515229 0.23075,-3.282995 c 0.42235,-6.00911 4.18366,-11.499205 10.06167,-14.686262 3.05431,-1.656045 3.41128,-1.728717 8.49164,-1.728717 4.76676,0 5.59006,0.140893 8.13768,1.392614 3.17553,1.56023 7.36606,5.690214 8.97636,8.846677 0.58474,1.146173 1.33238,3.653919 1.66142,5.572766 1.79678,10.477982 -6.11655,20.523647 -17.07261,21.673039 l -2.59031,0.271747 z"
           id="path4720"
           inkscape:connector-curvature="0"
           transform="matrix(0.26458333,0,0,0.26458333,0,210.00002)" />
        <g
           id="g4737">
          <path
             transform="matrix(0.26458333,0,0,0.26458333,0,210.00002)"
             inkscape:connector-curvature="0"
             id="path4704"
             d="m 261.38176,15.741177 c -2.08099,-2.608032 -4.20383,-3.737509 -7.02872,-3.739716 -3.18439,-0.0025 -5.40711,0.982247 -7.2422,3.208527 l -1.50075,1.820679 -3.49869,-3.5257 c -2.88688,-2.909174 -3.30436,-3.5257005 -2.38745,-3.5257005 1.60892,0 2.95122,-2.2196042 2.25988,-3.7369149 -0.57666,-1.2656454 -2.36175,-1.8189241 -5.86854,-1.8189241 -1.93916,0 -2.20536,-0.1747812 -3.65394,-2.3991123 -0.85932,-1.31951178 -1.94112,-3.1377864 -2.40399,-4.0406102 -0.80633,-1.5727277 -0.80117,-1.6414979 0.12305,-1.6414979 0.53055,0 2.78104,0.9091373 5.00109,2.0203051 2.22004,1.11116781 4.40032,2.0203051 4.84506,2.0203051 1.33181,0 2.58517,-2.3588224 1.97036,-3.7081993 -0.88956,-1.9523663 -6.82785,-4.6644511 -13.35027,-6.0972196 -1.19936,-0.263461 -1.39035,-0.5986434 -1.68502,-2.9570964 -1.33411,-10.677889 7.56076,-23.187134 19.35649,-27.221872 4.40136,-1.505487 11.63067,-1.607203 15.75355,-0.221651 9.52016,3.199378 15.96638,10.102513 18.42437,19.730296 0.79893,3.129391 1.02723,9.207524 0.38199,10.1702782 -0.20409,0.3045221 -1.41888,0.6935636 -2.69953,0.864537 -3.21133,0.4287284 -7.51684,2.1111031 -9.99279,3.9046694 -1.63731,1.186064 -2.07343,1.8223 -2.07343,3.0248725 0,1.13108902 0.32233,1.66975084 1.25286,2.09372601 1.08647,0.49503031 1.79596,0.29237148 5.34258,-1.52605711 2.24935,-1.1532917 4.65779,-2.0968939 5.35207,-2.0968939 h 1.26234 l -2.18551,4.08513873 -2.1855,4.08513867 -3.5852,0.081741 c -4.05395,0.092428 -5.25364,0.7527581 -5.25364,2.891696 0,1.5691366 0.46482,2.0031739 2.62121,2.4476764 l 1.4467,0.2982071 -3.68068,3.655196 -3.68068,3.655202 z m -11.79133,-32.579048 c 0.94764,-1.502511 0.0104,-3.357578 -2.03778,-4.033555 -3.55591,-1.173557 -9.76853,-0.480817 -10.84304,1.20906 -0.54883,0.863134 -0.48301,2.584374 0.12196,3.189345 0.30027,0.300274 2.98951,0.502375 6.38474,0.479823 4.79174,-0.03183 5.95901,-0.18651 6.37412,-0.844673 z m 21.81252,-0.101648 c 0.9429,-1.289633 0.38453,-2.793054 -1.37535,-3.703122 -1.75547,-0.90779 -7.48783,-1.049987 -9.60363,-0.238228 -1.75831,0.674603 -2.70367,2.566688 -1.96863,3.94012 0.47962,0.896171 1.06889,0.983351 6.4062,0.947772 5.04497,-0.03363 5.97202,-0.167775 6.54141,-0.946542 z"
             style="opacity:1;fill:#ff0000;fill-opacity:1;stroke:none;stroke-width:0;stroke-linecap:round;stroke-linejoin:round;stroke-miterlimit:4;stroke-dasharray:none;stroke-opacity:1" />
          <path
             transform="matrix(0.26458333,0,0,0.26458333,0,210.00002)"
             inkscape:connector-curvature="0"
             id="path4706"
             d="m 249.08601,73.575616 c -3.70287,-1.832898 -7.32607,-6.859073 -8.43397,-11.699762 -0.26779,-1.170065 -0.15323,-1.38896 0.72697,-1.38896 1.50737,0 3.77158,-1.286081 4.98899,-2.833765 2.67374,-3.39911 2.34243,-8.103109 -0.79143,-11.236973 l -1.75738,-1.757385 0.96737,-1.303581 c 0.53206,-0.716969 2.02635,-1.962096 3.32065,-2.766948 4.49791,-2.797001 9.85518,-2.189039 14.04204,1.59354 2.18093,1.970336 2.41004,2.867187 0.93423,3.657017 -1.47698,0.790456 -3.03211,4.190199 -3.03211,6.628647 0,3.841711 3.5261,8.019448 6.76859,8.019448 1.06797,0 1.01859,0.913278 -0.22975,4.249772 -1.2615,3.371654 -5.02092,7.689267 -7.79076,8.947523 -2.7937,1.26909 -7.02581,1.221785 -9.71344,-0.108573 z"
             style="opacity:1;fill:#ff0000;fill-opacity:1;stroke:none;stroke-width:0;stroke-linecap:round;stroke-linejoin:round;stroke-miterlimit:4;stroke-dasharray:none;stroke-opacity:1" />
          <path
             transform="matrix(0.26458333,0,0,0.26458333,0,210.00002)"
             inkscape:connector-curvature="0"
             id="path4710"
             d="m 216.40103,89.149972 c 0.83991,-2.655985 3.59458,-4.924493 5.97987,-4.924493 0.44836,0 2.53128,1.363706 4.62871,3.030457 l 3.81351,3.030458 h -7.39073 -7.39073 z"
             style="opacity:1;fill:#ff0000;fill-opacity:1;stroke:none;stroke-width:0;stroke-linecap:round;stroke-linejoin:round;stroke-miterlimit:4;stroke-dasharray:none;stroke-opacity:1" />
          <path
             transform="matrix(0.26458333,0,0,0.26458333,0,210.00002)"
             inkscape:connector-curvature="0"
             id="path4712"
             d="m 280.07259,88.101228 c 1.62786,-1.201841 3.27169,-2.565546 3.65294,-3.030457 1.39231,-1.697813 5.49845,-0.382793 7.12254,2.281041 1.77808,2.916385 1.73866,2.934582 -6.35606,2.934582 h -7.37917 z"
             style="opacity:1;fill:#ff0000;fill-opacity:1;stroke:none;stroke-width:0;stroke-linecap:round;stroke-linejoin:round;stroke-miterlimit:4;stroke-dasharray:none;stroke-opacity:1" />
          <path
             inkscape:connector-curvature="0"
             id="path4714"
             d="m 56.39387,203.32205 c 0.311814,0 0.623629,0 0.935443,0 0.04454,0 0.133635,-0.0445 0.133635,0 0,0.0445 -0.165134,-0.0315 -0.133635,0 0.07043,0.0704 0.196839,0.0632 0.267269,0.13363 0.0315,0.0315 -0.01992,0.0938 0,0.13363 0.05635,0.1127 0.210925,0.15458 0.267271,0.26727 0.01992,0.0399 -0.0315,0.10214 0,0.13364 0.0315,0.0315 0.102134,-0.0315 0.133633,0 0.063,0.063 -0.063,0.20427 0,0.26727 0.0315,0.0315 0.102137,-0.0315 0.133636,0 0.0315,0.0315 -0.0315,0.10214 0,0.13363 0.0315,0.0315 0.102137,-0.0315 0.133636,0 0.0315,0.0315 -0.0315,0.10214 0,0.13364 0.0315,0.0315 0.09379,-0.0199 0.133633,0 0.05635,0.0282 0.07729,0.10546 0.133635,0.13363 0.03984,0.0199 0.133634,-0.0445 0.133634,0 0,0.0446 -0.133634,-0.0445 -0.133634,0 0,0.063 0.07729,0.10547 0.133634,0.13364 0.03984,0.0199 0.133635,-0.0446 0.133635,0 0,0.0445 -0.178178,0 -0.133635,0 0.222726,0 0.445449,0 0.668176,0"
             style="fill:none;stroke:#000000;stroke-width:0.86500001;stroke-linecap:butt;stroke-linejoin:miter;stroke-miterlimit:4;stroke-dasharray:none;stroke-opacity:1" />
          <path
             inkscape:connector-curvature="0"
             id="path4716"
             d="m 73.267757,212.6901 c -0.422645,0.68994 -0.436811,0.67941 -0.436811,1.18909 0,0.0446 -0.0315,0.10214 0,0.13364 0.0315,0.0315 0.102137,-0.0315 0.133635,0 0.0315,0.0315 -0.0315,0.10213 0,0.13363 0.063,0.063 0.187585,-0.0398 0.267269,0 0.05635,0.0282 0.07729,0.10546 0.133633,0.13364 0.03984,0.0199 0.102138,-0.0315 0.133636,0 0.02732,0.0273 -0.02649,0.34792 0,0.4009 0.02817,0.0563 0.105463,0.0773 0.133636,0.13363 0.01992,0.0399 -0.0315,0.10214 0,0.13364 0.0315,0.0315 0.102137,-0.0315 0.133633,0 0.0315,0.0315 -0.0315,0.10214 0,0.13363 0.0315,0.0315 0.102137,-0.0315 0.133636,0 0.0315,0.0315 -0.0315,0.10214 0,0.13364 0.0315,0.0315 0.102137,-0.0315 0.133636,0 0.131826,0.13183 -0.273828,0.26727 0.133633,0.26727"
             style="fill:#ff0000;stroke:#000000;stroke-width:1.06500006;stroke-linecap:butt;stroke-linejoin:miter;stroke-miterlimit:4;stroke-dasharray:none;stroke-opacity:1" />
          <path
             transform="matrix(0.26458333,0,0,0.26458333,0,210.00002)"
             inkscape:connector-curvature="0"
             id="path4722"
             d="m 236.4454,54.194683 c -5.71232,-2.659497 -9.68015,-8.038947 -10.71707,-14.529843 -0.59646,-3.733683 -0.38688,-5.513676 1.11653,-9.482523 1.0703,-2.825515 6.49817,-14.308991 7.38201,-15.617751 0.38255,-0.566473 1.60382,0.342355 5.78683,4.306368 2.91607,2.763404 7.16497,6.365761 9.44201,8.005237 3.69473,2.660233 4.28352,2.926443 5.47382,2.474898 2.27375,-0.862553 9.84583,-6.516343 14.14936,-10.564796 2.25745,-2.123651 4.10446,-3.618124 4.10446,-3.321051 0,0.297072 0.68327,1.239104 1.51837,2.093404 2.88443,2.950725 8.07808,14.826114 8.07808,18.470684 0,7.922676 -4.22791,14.985175 -10.84464,18.115391 -3.28823,1.555579 -4.4905,1.613656 -5.82288,0.281278 -1.88694,-1.886949 -1.05173,-4.015185 2.06518,-5.262325 1.15206,-0.460961 2.85771,-1.420125 3.79034,-2.131475 4.72265,-3.602144 6.3893,-14.663149 2.29768,-15.248951 -2.01369,-0.288302 -3.10243,1.233223 -3.10243,4.335684 0,1.512267 -0.359,3.506105 -0.79777,4.43075 l -0.79777,1.681175 -3.11657,-3.168446 c -2.32226,-2.360914 -3.88894,-3.463393 -6.14703,-4.325705 -3.47794,-1.328141 -8.02426,-1.545602 -11.11168,-0.531497 -2.98793,0.981428 -7.0897,3.85911 -8.7834,6.162187 l -1.48939,2.025265 -0.90535,-1.381729 c -0.56325,-0.859632 -0.97811,-2.641684 -1.09793,-4.716202 -0.1985,-3.436715 -0.87605,-4.597164 -2.68414,-4.597164 -1.7067,0 -2.46492,1.430182 -2.46492,4.649434 0,1.684128 0.26729,3.954186 0.59398,5.044574 0.79934,2.66798 3.88568,6.066188 6.56257,7.225714 3.04106,1.31727 3.95513,2.204277 3.95513,3.838046 0,1.456258 -1.54991,2.985263 -3.01657,2.975883 -0.42433,-0.0027 -1.96189,-0.559145 -3.41681,-1.236514 z"
             style="opacity:1;fill:#ff0000;fill-opacity:1;stroke:none;stroke-width:2.03303146;stroke-linecap:round;stroke-linejoin:round;stroke-miterlimit:4;stroke-dasharray:none;stroke-opacity:1" />
          <path
             transform="matrix(0.26458333,0,0,0.26458333,0,210.00002)"
             inkscape:connector-curvature="0"
             id="path4724"
             d="m 252.09186,22.213779 c -1.99048,-1.663169 -2.06977,-2.729358 -0.30614,-4.116634 1.67885,-1.320576 2.73062,-1.320576 4.40946,0 1.76395,1.387524 1.70279,3.033887 -0.16397,4.414045 -1.86699,1.380327 -1.93782,1.37498 -3.93935,-0.297411 z"
             style="opacity:1;fill:#ff0000;fill-opacity:1;stroke:none;stroke-width:2.03303146;stroke-linecap:round;stroke-linejoin:round;stroke-miterlimit:4;stroke-dasharray:none;stroke-opacity:1" />
          <path
             transform="matrix(0.26458333,0,0,0.26458333,0,210.00002)"
             inkscape:connector-curvature="0"
             id="path4726"
             d="m 244.89908,89.960661 c -8.9827,-1.668722 -17.86002,-8.028674 -21.79607,-15.615297 -3.01012,-5.801936 -3.68635,-8.428314 -3.69824,-14.363546 -0.0101,-5.023447 1.40051,-13.63706 2.23322,-13.63706 0.18225,0 0.83493,1.036469 1.45038,2.303264 1.50636,3.100533 5.19863,6.953755 8.7837,9.166585 2.06584,1.275112 3.02473,2.209466 3.21117,3.129016 2.25696,11.131825 8.53614,17.983323 17.4402,19.02982 3.23787,0.380549 7.52991,-0.653213 10.49215,-2.527097 4.52084,-2.859831 8.55435,-9.102991 9.72522,-15.052899 0.54952,-2.79244 0.66464,-2.945621 3.35479,-4.463851 3.48243,-1.965361 7.09532,-5.693211 9.05235,-9.340387 l 1.50158,-2.798386 1.15379,5.088781 c 3.31179,14.606606 -1.96147,27.745039 -14.08403,35.090609 -5.58966,3.387011 -8.32405,3.99665 -18.46615,4.117072 -5.00025,0.05937 -9.65958,0.0024 -10.35406,-0.126624 z"
             style="opacity:1;fill:#ff0000;fill-opacity:1;stroke:none;stroke-width:2.03303146;stroke-linecap:round;stroke-linejoin:round;stroke-miterlimit:4;stroke-dasharray:none;stroke-opacity:1" />
        </g>
      </g>
      <g
         transform="matrix(0.20275879,-0.05263777,0.05263777,0.20275879,2.4539616,244.29631)"
         id="g4626">
        <g
           id="g4624">
          <path
             inkscape:connector-curvature="0"
             d="M 207.485,16.759 191.809,1.083 c -1.443,-1.443 -3.781,-1.443 -5.225,0 l -26.122,26.12 c -10e-4,0.002 -0.004,0.002 -0.004,0.002 l -25.743,25.742 c -11.951,-4.036 -25.108,-1.018 -34.131,8.005 L 1.082,160.455 c -1.443,1.443 -1.443,3.781 0,5.225 l 41.802,41.802 c 0.722,0.722 1.667,1.083 2.612,1.083 0.945,0 1.891,-0.361 2.612,-1.083 l 99.503,-99.501 c 9.035,-9.035 12.052,-22.196 8.012,-34.138 L 181.35,48.114 c 0.001,-0.002 0.004,-0.002 0.004,-0.002 l 26.129,-26.128 c 0.693,-0.693 1.083,-1.633 1.083,-2.612 0.002,-0.98 -0.388,-1.92 -1.081,-2.613 z M 84.687,87.3 110.815,113.428 63.786,160.457 37.658,134.329 Z m 64.021,-16.993 c -1.063,1.064 -1.375,2.668 -0.789,4.054 4.135,9.753 1.963,20.899 -5.532,28.396 l -96.89,96.888 -36.577,-36.578 23.513,-23.514 28.741,28.74 c 0.722,0.722 1.667,1.083 2.612,1.083 0.945,0 1.891,-0.361 2.612,-1.083 l 52.254,-52.254 c 1.443,-1.443 1.443,-3.781 0,-5.225 L 89.911,82.074 105.808,66.177 c 7.486,-7.484 18.632,-9.656 28.392,-5.526 1.384,0.588 2.986,0.272 4.052,-0.79 l 24.815,-24.815 10.451,10.451 z m 30.038,-30.035 -10.451,-10.451 20.902,-20.9 10.451,10.451 z"
             id="path4622" />
        </g>
      </g>
      <path
         inkscape:connector-curvature="0"
         id="path4696"
         d="m 17.407759,279.56958 -4.561705,-2.67953 1.665732,-2.83011 c 0.916154,-1.55656 1.70915,-2.87528 1.762215,-2.93049 0.05306,-0.0552 1.747133,0.87169 3.764597,2.05978 3.529939,2.07878 4.20152,2.38104 4.529212,2.03851 0.194968,-0.20379 8.00835,-13.55513 8.098064,-13.83779 0.0461,-0.14526 -0.0069,-0.40033 -0.118557,-0.57078 -0.111051,-0.16948 -1.829895,-1.26402 -3.819652,-2.43229 -1.989756,-1.16828 -3.617751,-2.17403 -3.617761,-2.23501 -5.6e-5,-0.28793 2.411775,-4.21358 2.966318,-4.82817 1.080669,-1.19768 2.940936,-1.94111 4.366561,-1.74503 0.505259,0.0695 0.691028,0.038 0.918258,-0.15573 0.156673,-0.13356 1.075957,-1.59589 2.042856,-3.24962 0.966901,-1.65373 1.798407,-3.04978 1.847791,-3.10234 0.08687,-0.0924 2.548463,1.2264 2.554853,1.36881 0.002,0.0388 -0.8097,1.45198 -1.80321,3.14041 -0.993498,1.68844 -1.844083,3.21383 -1.890187,3.38976 -0.05234,0.19975 0.0019,0.45067 0.144026,0.66817 0.125317,0.19157 0.386371,0.67905 0.58012,1.08329 0.46681,0.97397 0.577419,2.72721 0.237598,3.76615 -0.211153,0.64556 -14.871038,25.77058 -15.032921,25.76434 -0.03988,-0.002 -2.12527,-1.20858 -4.634208,-2.68233 z"
         style="opacity:1;fill:#ffffff;fill-opacity:0.99215686;stroke:none;stroke-width:0;stroke-linecap:round;stroke-linejoin:round;stroke-miterlimit:4;stroke-dasharray:none;stroke-opacity:1" />
      <path
         inkscape:connector-curvature="0"
         id="path4698"
         d="m 39.659661,242.29759 c -0.607298,-0.35213 -1.165971,-0.70203 -1.241489,-0.77755 -0.09399,-0.094 0.331931,-0.93458 1.349973,-2.66432 0.818005,-1.38985 1.504159,-2.54425 1.524791,-2.56531 0.06987,-0.0713 2.474119,1.37381 2.475913,1.48823 0.0016,0.10053 -2.927445,5.16936 -2.982907,5.1621 -0.01214,-0.002 -0.51898,-0.29101 -1.126281,-0.64315 z"
         style="opacity:1;fill:#ffffff;fill-opacity:0.99215686;stroke:none;stroke-width:0;stroke-linecap:round;stroke-linejoin:round;stroke-miterlimit:4;stroke-dasharray:none;stroke-opacity:1" />
      <path
         inkscape:connector-curvature="0"
         id="path4700"
         d="m 20.6764,271.54439 c -1.713707,-1.0109 -3.173931,-1.8961 -3.244948,-1.96711 -0.08307,-0.0831 1.069565,-2.1746 3.231867,-5.86443 1.848543,-3.15442 3.429042,-5.80574 3.512219,-5.89182 0.114557,-0.11856 0.912799,0.29398 3.291647,1.70117 1.727232,1.02173 3.188872,1.87504 3.248094,1.89625 0.07525,0.0269 -6.698761,11.74764 -6.903945,11.94551 -0.0105,0.0101 -1.421228,-0.80867 -3.134934,-1.81957 z"
         style="opacity:0.98999999;fill:#ffffff;fill-opacity:1;stroke:none;stroke-width:0;stroke-linecap:round;stroke-linejoin:round;stroke-miterlimit:4;stroke-dasharray:none;stroke-opacity:1" />
      <path
         inkscape:connector-curvature="0"
         id="path4778"
         d="M 6.4360482,294.61607 C 4.5155212,294.01258 3.0453123,292.34341 2.6628304,290.33221 2.5503278,289.74064 2.5206877,279.98205 2.549789,253.11493 l 0.039444,-36.41547 0.2997262,-0.73499 c 0.6112822,-1.49899 1.7294998,-2.57986 3.3432628,-3.23158 l 0.766958,-0.30974 17.305702,-0.0386 c 11.283267,-0.0252 17.700995,0.009 18.441598,0.099 2.65811,0.32189 4.580911,2.15098 4.950888,4.7096 0.173458,1.19956 0.161224,71.66455 -0.01265,72.8677 -0.271073,1.87572 -1.394285,3.43754 -3.057509,4.25147 l -0.878464,0.42989 -18.37478,0.0254 c -14.930879,0.0207 -18.4803252,-0.008 -18.9379115,-0.15152 z M 22.882849,283.68388 c 0.283655,-0.25835 14.642031,-24.55595 15.436125,-26.12139 0.895371,-1.76509 0.891818,-3.95049 -0.0097,-5.94089 l -0.403987,-0.89198 0.692853,-1.2005 c 0.487699,-0.84504 0.80409,-1.24659 1.068526,-1.35612 0.206621,-0.0856 0.544269,-0.33158 0.750331,-0.54667 0.306216,-0.31962 0.385493,-0.54084 0.433967,-1.21101 0.05655,-0.78187 0.17022,-1.00826 2.447372,-4.87456 2.448584,-4.15737 2.639978,-4.60371 2.154201,-5.02364 -0.5465,-0.47243 -4.246766,-2.54537 -4.543568,-2.54537 -0.178504,0 -0.420857,0.0963 -0.538559,0.21401 -0.117703,0.1177 -1.938073,3.14592 -4.045268,6.72939 l -3.831267,6.51539 -1.19121,0.15956 c -1.284554,0.17207 -2.321703,0.52347 -3.094117,1.04834 -0.267374,0.18169 -0.52669,0.28602 -0.576257,0.23185 -0.04956,-0.0542 -0.348969,-0.69151 -0.665345,-1.41631 -0.316375,-0.7248 -0.683963,-1.38572 -0.816861,-1.46871 -0.132892,-0.083 -0.241627,-0.21928 -0.241627,-0.30285 0,-0.0836 -0.0902,-0.22681 -0.200452,-0.31831 -0.225537,-0.18717 -0.255913,-0.50724 -0.07524,-0.79275 0.09998,-0.15799 0.322979,-0.0923 1.277497,0.3763 1.101516,0.54078 1.17175,0.55763 1.48045,0.35537 0.765074,-0.5013 0.121864,-1.31939 -1.520148,-1.93346 l -0.78524,-0.29367 0.579741,-1.15514 c 0.318855,-0.63532 0.579739,-1.2266 0.579739,-1.31393 0,-0.11755 0.146384,-0.1259 0.563581,-0.0322 0.760939,0.17097 1.14962,0.0541 1.258131,-0.37821 0.12532,-0.49932 -0.08671,-0.75191 -0.800333,-0.95347 l -0.620474,-0.17524 -0.02006,-1.32858 c -0.01103,-0.73072 -0.02606,-1.4035 -0.03341,-1.49506 -0.0084,-0.10422 0.261524,-0.20138 0.721627,-0.25977 1.509374,-0.19159 2.780442,-0.86386 3.820549,-2.02071 2.351481,-2.61541 2.187604,-6.61166 -0.36816,-8.97784 -2.573105,-2.38224 -6.366708,-2.32553 -8.873613,0.13266 -0.951888,0.93339 -1.559934,2.0889 -1.807813,3.43551 l -0.165016,0.89645 -0.612696,-0.0881 c -0.835607,-0.12012 -1.55521,-0.12022 -2.353673,-2.6e-4 l -0.671899,0.10089 -0.145371,-0.9027 c -0.212714,-1.321 -0.758799,-2.36095 -1.778417,-3.38685 -2.550966,-2.56669 -6.4518688,-2.59042 -9.0362384,-0.055 -2.5271721,2.47934 -2.5474739,6.5515 -0.045138,9.05394 0.7494876,0.74952 2.4057676,1.70366 2.9573609,1.70366 0.130697,0 0.2376307,0.0562 0.2376307,0.12497 0,0.0687 0.2408912,0.29424 0.5353128,0.50113 l 0.535314,0.37616 -0.03418,1.06777 -0.03418,1.06777 -0.6650319,0.0948 c -0.9248071,0.1318 -1.3030901,0.72694 -0.7888954,1.24114 0.1754545,0.17545 0.3845015,0.20039 1.1024863,0.1315 l 0.88598,-0.085 0.259107,0.64644 c 0.14251,0.35554 0.428154,0.93473 0.634766,1.28709 0.429885,0.73312 0.437654,0.76251 0.201545,0.76251 -0.09576,0 -0.662634,0.23625 -1.259716,0.52499 -1.1801632,0.57071 -1.488707,0.91775 -1.2607616,1.41803 0.237204,0.52061 0.5767146,0.50682 1.7029966,-0.0692 1.541408,-0.78828 1.598624,-0.75031 0.899251,0.59687 -1.37454,2.64774 -2.6874159,6.20704 -3.3277904,9.02187 -0.3762978,1.65406 -0.4236686,3.62632 -0.1182193,4.92199 0.1555472,0.65981 0.7538238,2.10686 1.2320389,2.97993 0.025389,0.0464 -0.1083117,0.12304 -0.2971136,0.17043 -0.4970637,0.12476 -1.408259,0.99571 -1.690838,1.61617 -0.3599379,0.79032 -0.3289909,1.73655 0.069839,2.13538 0.4402645,0.44026 0.909787,0.50036 3.5051284,0.44864 1.98416,-0.0395 2.312294,-0.078 2.722321,-0.31884 0.45808,-0.2691 0.481172,-0.26974 1.322049,-0.0366 0.470703,0.13052 0.884623,0.26611 0.919821,0.30131 0.0352,0.0352 -1.211718,2.23122 -2.770926,4.88005 -1.559209,2.64882 -2.864162,4.92784 -2.899895,5.06449 -0.03798,0.14525 0.06427,0.39026 0.246166,0.58988 0.241388,0.26489 9.198749,5.63037 10.801465,6.4701 0.459912,0.24097 0.602425,0.223 0.983393,-0.12399 z"
         style="opacity:0.73000004;fill:#00b000;fill-opacity:0;stroke:none;stroke-width:0.53790623;stroke-linecap:round;stroke-linejoin:round;stroke-miterlimit:4;stroke-dasharray:none;stroke-opacity:1" />
      <path
         inkscape:connector-curvature="0"
         id="path4780"
         d="M 6.4360482,294.61607 C 4.5155212,294.01258 3.0453123,292.34341 2.6628304,290.33221 2.5503278,289.74064 2.5206877,279.98205 2.549789,253.11493 l 0.039444,-36.41547 0.2997262,-0.73499 c 0.6112822,-1.49899 1.7294998,-2.57986 3.3432628,-3.23158 l 0.766958,-0.30974 17.305702,-0.0386 c 11.283267,-0.0252 17.700995,0.009 18.441598,0.099 2.65811,0.32189 4.580911,2.15098 4.950888,4.7096 0.173458,1.19956 0.161224,71.66455 -0.01265,72.8677 -0.271073,1.87572 -1.394285,3.43754 -3.057509,4.25147 l -0.878464,0.42989 -18.37478,0.0254 c -14.930879,0.0207 -18.4803252,-0.008 -18.9379115,-0.15152 z M 22.882849,283.68388 c 0.283655,-0.25835 14.642031,-24.55595 15.436125,-26.12139 0.895371,-1.76509 0.891818,-3.95049 -0.0097,-5.94089 l -0.403987,-0.89198 0.692853,-1.2005 c 0.487699,-0.84504 0.80409,-1.24659 1.068526,-1.35612 0.206621,-0.0856 0.544269,-0.33158 0.750331,-0.54667 0.306216,-0.31962 0.385493,-0.54084 0.433967,-1.21101 0.05655,-0.78187 0.17022,-1.00826 2.447372,-4.87456 2.448584,-4.15737 2.639978,-4.60371 2.154201,-5.02364 -0.5465,-0.47243 -4.246766,-2.54537 -4.543568,-2.54537 -0.178504,0 -0.420857,0.0963 -0.538559,0.21401 -0.117703,0.1177 -1.938073,3.14592 -4.045268,6.72939 l -3.831267,6.51539 -1.19121,0.15956 c -1.284554,0.17207 -2.321703,0.52347 -3.094117,1.04834 -0.267374,0.18169 -0.52669,0.28602 -0.576257,0.23185 -0.04956,-0.0542 -0.348969,-0.69151 -0.665345,-1.41631 -0.316375,-0.7248 -0.683963,-1.38572 -0.816861,-1.46871 -0.132892,-0.083 -0.241627,-0.21928 -0.241627,-0.30285 0,-0.0836 -0.0902,-0.22681 -0.200452,-0.31831 -0.225537,-0.18717 -0.255913,-0.50724 -0.07524,-0.79275 0.09998,-0.15799 0.322979,-0.0923 1.277497,0.3763 1.101516,0.54078 1.17175,0.55763 1.48045,0.35537 0.765074,-0.5013 0.121864,-1.31939 -1.520148,-1.93346 l -0.78524,-0.29367 0.579741,-1.15514 c 0.318855,-0.63532 0.579739,-1.2266 0.579739,-1.31393 0,-0.11755 0.146384,-0.1259 0.563581,-0.0322 0.760939,0.17097 1.14962,0.0541 1.258131,-0.37821 0.12532,-0.49932 -0.08671,-0.75191 -0.800333,-0.95347 l -0.620474,-0.17524 -0.02006,-1.32858 c -0.01103,-0.73072 -0.02606,-1.4035 -0.03341,-1.49506 -0.0084,-0.10422 0.261524,-0.20138 0.721627,-0.25977 1.509374,-0.19159 2.780442,-0.86386 3.820549,-2.02071 2.351481,-2.61541 2.187604,-6.61166 -0.36816,-8.97784 -2.573105,-2.38224 -6.366708,-2.32553 -8.873613,0.13266 -0.951888,0.93339 -1.559934,2.0889 -1.807813,3.43551 l -0.165016,0.89645 -0.612696,-0.0881 c -0.835607,-0.12012 -1.55521,-0.12022 -2.353673,-2.6e-4 l -0.671899,0.10089 -0.145371,-0.9027 c -0.212714,-1.321 -0.758799,-2.36095 -1.778417,-3.38685 -2.550966,-2.56669 -6.4518688,-2.59042 -9.0362384,-0.055 -2.5271721,2.47934 -2.5474739,6.5515 -0.045138,9.05394 0.7494876,0.74952 2.4057676,1.70366 2.9573609,1.70366 0.130697,0 0.2376307,0.0562 0.2376307,0.12497 0,0.0687 0.2408912,0.29424 0.5353128,0.50113 l 0.535314,0.37616 -0.03418,1.06777 -0.03418,1.06777 -0.6650319,0.0948 c -0.9248071,0.1318 -1.3030901,0.72694 -0.7888954,1.24114 0.1754545,0.17545 0.3845015,0.20039 1.1024863,0.1315 l 0.88598,-0.085 0.259107,0.64644 c 0.14251,0.35554 0.428154,0.93473 0.634766,1.28709 0.429885,0.73312 0.437654,0.76251 0.201545,0.76251 -0.09576,0 -0.662634,0.23625 -1.259716,0.52499 -1.1801632,0.57071 -1.488707,0.91775 -1.2607616,1.41803 0.237204,0.52061 0.5767146,0.50682 1.7029966,-0.0692 1.541408,-0.78828 1.598624,-0.75031 0.899251,0.59687 -1.37454,2.64774 -2.6874159,6.20704 -3.3277904,9.02187 -0.3762978,1.65406 -0.4236686,3.62632 -0.1182193,4.92199 0.1555472,0.65981 0.7538238,2.10686 1.2320389,2.97993 0.025389,0.0464 -0.1083117,0.12304 -0.2971136,0.17043 -0.4970637,0.12476 -1.408259,0.99571 -1.690838,1.61617 -0.3599379,0.79032 -0.3289909,1.73655 0.069839,2.13538 0.4402645,0.44026 0.909787,0.50036 3.5051284,0.44864 1.98416,-0.0395 2.312294,-0.078 2.722321,-0.31884 0.45808,-0.2691 0.481172,-0.26974 1.322049,-0.0366 0.470703,0.13052 0.884623,0.26611 0.919821,0.30131 0.0352,0.0352 -1.211718,2.23122 -2.770926,4.88005 -1.559209,2.64882 -2.864162,4.92784 -2.899895,5.06449 -0.03798,0.14525 0.06427,0.39026 0.246166,0.58988 0.241388,0.26489 9.198749,5.63037 10.801465,6.4701 0.459912,0.24097 0.602425,0.223 0.983393,-0.12399 z"
         style="opacity:0.73000004;fill:#00b000;fill-opacity:0;stroke:none;stroke-width:0.53790623;stroke-linecap:round;stroke-linejoin:round;stroke-miterlimit:4;stroke-dasharray:none;stroke-opacity:1" />
    </g>
  </g>
</svg>
